<svg width="80" height="80" viewBox="0 0 80 80" fill="none" xmlns="http://www.w3.org/2000/svg">
<path d="M45.625 6.40625C44.4375 6.625 43.3281 7.5625 42.9844 8.64062C42.8281 9.09375 42.7031 9.20312 42.2188 9.29688C40.625 9.57812 38.8125 10.9219 37.9531 12.4375L37.5 13.2344L36.3594 13.3281C33.9844 13.5312 31.0469 14.5625 28.7969 15.9688C23.9531 19.0156 20.8125 24.0156 20.1562 29.6875C20.0781 30.4219 20 35.3906 20 40.7188V50.4375L18.6562 50.4844C16.7812 50.5625 16.7188 50.6562 16.7188 53.2031C16.7188 55.5469 16.8438 55.7812 18.1094 55.9062C18.9375 55.9844 18.9375 55.9844 18.8594 56.4688C18.8281 56.7344 18.5938 58.625 18.3438 60.6562C17.875 64.6875 17.8906 65.0156 18.6875 65.3125C19.25 65.5312 25.6719 65.5156 26.1562 65.2969C26.9219 64.9375 26.9375 64.5938 26.4219 60.3125C26.1562 58.1562 25.9375 56.2812 25.9375 56.1562C25.9375 56.0156 26.1094 55.9375 26.4844 55.9375C27.1406 55.9375 27.8906 55.5938 28.0312 55.2344C28.0781 55.0938 28.125 54.1406 28.125 53.125C28.125 50.6875 28.0469 50.5781 26.2656 50.5L25 50.4375V40.5625C25 34.5938 25.0625 30.2969 25.1562 29.6875C26.0938 23.7812 31 18.9688 36.875 18.2188C37.5625 18.125 37.5781 18.1406 37.8594 18.7344C38.0156 19.0625 38.4219 19.6562 38.75 20.0469L39.375 20.75V22.4688V24.1719L37.3906 24.2656C34.75 24.375 33.875 24.6875 32.5625 26C31.8906 26.6719 31.5 27.2344 31.2344 27.8906L30.8594 28.8281L30.8125 50.3125C30.7812 65.2812 30.8125 71.9688 30.9375 72.375C31.0312 72.6875 31.2812 73.0938 31.5156 73.2656C31.9062 73.5938 32.0469 73.5938 43.5938 73.5938C55.1406 73.5938 55.2812 73.5938 55.6719 73.2656C55.9062 73.0938 56.1562 72.6875 56.25 72.375C56.375 71.9688 56.4062 65.2969 56.375 50.3125L56.3281 28.8281L55.9531 27.8906C55.6875 27.2344 55.2969 26.6719 54.625 26C53.3125 24.6875 52.4375 24.375 49.8125 24.2656L47.8125 24.1719V22.4219C47.8125 21.0312 47.8594 20.625 48.0469 20.4688C48.25 20.2969 49.3281 20.5781 54.5 22.1562C60.1406 23.8906 60.7656 24.0469 61.2812 23.9062C61.6094 23.8125 61.9844 23.5625 62.1562 23.3125C62.5938 22.6875 63.1562 20.6719 63.0469 20.1406C62.9062 19.5469 62.2031 18.9844 61.2188 18.6875C56.4375 17.2812 50.2344 15.2969 50.1406 15.125C50.0625 15.0156 50 14.7656 50 14.5781C50 14.3906 49.9375 14.0625 49.8438 13.8438C49.7656 13.625 49.75 13.4375 49.8125 13.4375C50.4688 13.4375 62.0625 11.8281 62.3906 11.7031C63.0781 11.4219 63.2812 10.8281 63.2812 9.21875C63.2812 7.64062 63.0625 7.04688 62.3906 6.73438C62.1406 6.625 59.7812 6.53125 55.7344 6.48438C52.2812 6.4375 48.7188 6.375 47.8125 6.34375C46.9062 6.3125 45.9219 6.34375 45.625 6.40625ZM60.75 8.21875L61.5625 8.29688V9.26562V10.2344L55.2812 11.0469L48.9844 11.8438L48.125 11.0156C47.1875 10.125 46.4062 9.67188 45.3438 9.39062C44.9844 9.28125 44.6875 9.15625 44.6875 9.07812C44.6875 8.92188 45.2969 8.375 45.7031 8.15625C46.0156 7.98438 58.9844 8.04688 60.75 8.21875ZM45.5781 11.2812C46.5312 11.7344 47.5938 12.7812 48.0156 13.7188C48.5 14.7656 48.4844 16.5156 48 17.5781C47.5469 18.5625 46.7031 19.4375 45.7031 19.9688C45.0312 20.3281 44.7344 20.3906 43.5938 20.3906C42.4531 20.3906 42.1562 20.3281 41.4844 19.9688C40.4844 19.4375 39.6406 18.5625 39.1875 17.5781C38.7031 16.5156 38.6875 14.7656 39.1719 13.7188C39.7656 12.4375 41.1406 11.2969 42.5781 10.9219C43.3125 10.7188 44.7656 10.9062 45.5781 11.2812ZM37.0312 15.5312C37.0312 15.8281 37.0625 16.1719 37.125 16.2969C37.1875 16.4688 36.9844 16.5469 36.2188 16.625C35.0938 16.75 32.8906 17.4531 31.6875 18.0625C28.0781 19.8906 25.2344 23.2344 24.0156 27.1094C23.3281 29.2812 23.2812 30.2344 23.2812 40.6406V50.4688H22.5H21.7188V40.4062C21.7188 29.3594 21.75 28.9375 22.6719 26.3125C23.5469 23.7812 24.8281 21.75 26.8125 19.7812C28.2031 18.375 30.3281 16.9375 32 16.2344C33.3438 15.6719 35.7656 15.0156 36.5312 15C37 15 37.0312 15.0312 37.0312 15.5312ZM56.3281 18.9844C59.0781 19.8281 61.3438 20.5312 61.3594 20.5469C61.4688 20.6094 60.7969 22.2656 60.6875 22.25C60.5156 22.2188 49.4688 18.8594 49.4062 18.8281C49.375 18.7969 49.4688 18.5156 49.5938 18.1875C49.7188 17.8438 49.8594 17.4531 49.9062 17.3125C49.9844 17.0625 50.0469 17.0625 50.6562 17.25C51.0312 17.3594 53.5781 18.1406 56.3281 18.9844ZM42.625 22.0781C43.5469 22.25 44.7031 22.1406 45.9062 21.7812C46.25 21.6875 46.25 21.7031 46.25 22.9531V24.2188H43.5938H40.9375V22.9531C40.9375 21.7031 40.9375 21.6875 41.2969 21.7812C41.4844 21.8438 42.0781 21.9688 42.625 22.0781ZM51.5938 26.0938C52.6875 26.4062 53.625 27.1875 54.1719 28.25L54.6875 29.25V32.6719V36.0938H43.5781H32.4844L32.5312 32.5312L32.5781 28.9844L33.0625 28.125C33.5781 27.2344 34.625 26.375 35.5312 26.1094C36.2188 25.9062 50.875 25.8906 51.5938 26.0938ZM54.6875 48.9062V60.1562H43.5938H32.5V48.9062V37.6562H43.5938H54.6875V48.9062ZM26.4062 53.2031V54.2188H22.3438H18.2812V53.2031V52.1875H22.3438H26.4062V53.2031ZM24.2188 56.0938C24.2188 56.3281 24.9844 62.6406 25.0781 63.2344L25.1719 63.75H22.4219C20.9219 63.75 19.6875 63.7188 19.6875 63.6719C19.6875 63.5156 20.4688 57.1094 20.5625 56.5156L20.6562 55.9375H22.4375C23.5312 55.9375 24.2188 56 24.2188 56.0938ZM54.6562 66.9062L54.6094 71.9531H43.5938H32.5781L32.5312 66.9062L32.5 61.875H43.5938H54.6875L54.6562 66.9062Z" fill="#2C4569"/>
<path d="M42.1562 13.125C41.1875 13.6406 40.8594 14.2656 40.8594 15.6406C40.8594 16.6875 40.9062 16.8906 41.2812 17.375C42.4062 18.8594 44.7656 18.8594 45.9062 17.375C46.5 16.5938 46.5781 15.0312 46.0625 14.1406C45.3438 12.9062 43.5 12.4219 42.1562 13.125ZM44.4375 14.8438C44.8906 15.2812 44.8281 16.0625 44.3125 16.5156C43.7812 16.9688 43.4062 16.9688 42.875 16.5156C42.1719 15.9062 42.3438 14.8594 43.2031 14.5312C43.5938 14.3594 44.0625 14.4844 44.4375 14.8438Z" fill="#2C4569"/>
<path d="M41.6249 42.1094C41.3749 42.5 41.3749 42.5469 41.7343 43.2969C42.2343 44.3906 42.203 44.9687 41.5936 45.7187C41.3124 46.0469 41.0936 46.4219 41.0936 46.5312C41.0936 46.6719 40.9218 46.5937 40.6093 46.3437C39.8124 45.6719 39.2186 46.0312 38.4843 47.6094C36.0936 52.7812 41.1093 57.9844 46.1718 55.6094C47.7968 54.8437 48.9374 53.2031 49.2343 51.2031C49.4374 49.7969 49.2655 48.7187 48.5624 47.3437C47.9999 46.2031 47.4999 45.8125 46.953 46.0625C46.6249 46.2187 46.5624 46.2031 46.5624 45.9687C46.5624 45.4687 45.8124 44.0781 45.1561 43.375C44.4686 42.625 42.8593 41.7187 42.2499 41.7187C42.0311 41.7187 41.7811 41.875 41.6249 42.1094ZM44.7811 45.9844C44.9686 46.5312 45.0155 47.0625 44.953 47.7969C44.8593 49.0781 44.9999 49.375 45.703 49.375C46.1093 49.375 46.328 49.25 46.6874 48.8281L47.1405 48.2812L47.328 48.7031C47.6718 49.4531 47.7186 50.6562 47.4374 51.625C47.2343 52.3125 46.9843 52.7187 46.4374 53.2656C44.4843 55.2187 41.5155 54.8281 40.1561 52.4531C39.5468 51.3906 39.4218 50.2969 39.7655 49.125L40.0311 48.2187L40.5155 48.7812C41.1249 49.4687 41.4999 49.6094 41.953 49.3125C42.203 49.1406 42.328 48.875 42.3905 48.2656C42.4843 47.4844 42.5936 47.2656 43.2968 46.3906C43.4843 46.1562 43.6718 45.6406 43.703 45.25L43.7968 44.5156L44.1561 44.8594C44.3593 45.0469 44.6405 45.5469 44.7811 45.9844Z" fill="#2C4569"/>
</svg>
