<svg width="80" height="80" viewBox="0 0 80 80" fill="none" xmlns="http://www.w3.org/2000/svg">
<g clip-path="url(#clip0_311_3248)">
<path d="M2.5 0.328125C1.5625 0.75 0.828125 1.48438 0.375 2.42188L0 3.20312V40V76.7969L0.375 77.5781C0.828125 78.5156 1.5625 79.25 2.5 79.6719C3.20312 79.9844 3.32812 80 40 80H76.7969L77.5781 79.625C78.5156 79.1719 79.25 78.4375 79.6719 77.5C79.9844 76.7969 80 76.6719 80 40C80 3.32812 79.9844 3.20312 79.6719 2.5C79.25 1.5625 78.5156 0.828125 77.5781 0.375L76.7969 0H70.4375C64.2656 0 64.0469 0.015625 63.75 0.3125C63.375 0.6875 63.3281 1.51562 63.6562 1.96875C63.875 2.25 64.1719 2.26562 70.0312 2.34375C76.7812 2.42188 76.6562 2.40625 77.2969 3.39062C77.5625 3.79688 77.5781 5.6875 77.5781 40C77.5781 74.3125 77.5625 76.2031 77.2969 76.6094C77.1562 76.8438 76.8438 77.1562 76.6094 77.2969C76.2031 77.5625 74.3125 77.5781 40 77.5781C5.6875 77.5781 3.79688 77.5625 3.39062 77.2969C3.15625 77.1562 2.84375 76.8438 2.70312 76.6094C2.4375 76.2031 2.42188 74.3125 2.42188 40C2.42188 5.6875 2.4375 3.79688 2.70312 3.39062C2.84375 3.15625 3.15625 2.84375 3.39062 2.70312C3.79688 2.4375 5.42188 2.42188 32.3125 2.34375C60.2969 2.26562 60.8125 2.26562 61.0312 1.96875C61.3594 1.51562 61.3125 0.6875 60.9375 0.3125C60.625 0 60.4219 0 31.9062 0C3.375 0 3.20312 0.015625 2.5 0.328125Z" fill="#2C4569"/>
<path d="M8.34378 8.34375L7.81253 8.875V14.9688V21.0625L7.10941 21.4062C6.23441 21.8281 5.40628 22.7812 5.09378 23.7188C4.73441 24.7344 4.73441 30.2812 5.07816 31.2656C5.42191 32.2344 6.00003 32.9219 6.96878 33.4531L7.81253 33.9375V40V46.0625L6.96878 46.5469C6.00003 47.0781 5.42191 47.7656 5.07816 48.7344C4.73441 49.7188 4.73441 55.2656 5.09378 56.2812C5.40628 57.2188 6.23441 58.1719 7.10941 58.5938L7.81253 58.9375V65.0312V71.125L8.34378 71.6562L8.87503 72.1875H40H71.125L71.6563 71.6562L72.1875 71.125V40V8.875L71.6563 8.34375L71.125 7.8125H40H8.87503L8.34378 8.34375ZM69.8438 18.3438V26.5156L68.7344 26.6094C66.2188 26.8281 64.0625 28.5 63.1407 30.9844C62.8282 31.8594 62.8125 32.0938 62.8125 40C62.8125 47.9062 62.8282 48.1406 63.1407 49.0156C64.125 51.6406 66.5625 53.4219 69.1875 53.4375H69.8438V61.6406V69.8438H40H10.1563V64.3906V58.9375L10.6875 58.75C11.4532 58.5 12.375 57.6562 12.8125 56.7812C13.1875 56.0469 13.2032 55.8594 13.25 52.875C13.2813 50.9375 13.2344 49.4844 13.1407 49.0938C12.8438 48.0156 12.0469 47.0156 11.0625 46.5L10.1563 46.0156V40V33.9844L11.0625 33.5C12.0313 32.9844 12.8282 32 13.125 30.9688C13.3907 30 13.3282 24.7344 13.0313 23.7656C12.7344 22.7656 11.625 21.5469 10.7344 21.2656L10.1563 21.0625V15.6094V10.1562H40H69.8438V18.3438ZM9.84378 23.6719C10.6719 24.0938 10.7813 24.5469 10.7813 27.5C10.7813 30.5156 10.6875 30.8906 9.71878 31.3438C8.96878 31.7031 8.07816 31.4375 7.65628 30.7344C7.37503 30.2969 7.34378 29.9375 7.34378 27.5312C7.34378 24.5625 7.45316 24.1094 8.25003 23.6875C8.79691 23.375 9.28128 23.375 9.84378 23.6719ZM69.8438 40V50.9375H69.3282C67.875 50.9375 66.25 49.8281 65.6094 48.4062L65.2344 47.5781V40V32.4219L65.6094 31.5938C66.25 30.1719 67.7969 29.1094 69.2657 29.0781L69.8438 29.0625V40ZM9.75003 48.6719C10.6719 49.1094 10.7813 49.5 10.7813 52.5C10.7813 55.4531 10.6719 55.9062 9.84378 56.3281C9.26566 56.625 8.85941 56.625 8.28128 56.3281C7.45316 55.9062 7.34378 55.4531 7.34378 52.5C7.34378 49.5 7.46878 49.0469 8.32816 48.6719C8.96878 48.3906 9.14066 48.3906 9.75003 48.6719Z" fill="#2C4569"/>
<path d="M25.2969 21.2969C25.0156 21.4844 24.6094 21.8906 24.4219 22.1719L24.0625 22.7031V40V57.2969L24.4219 57.8281C24.6094 58.1094 25.0156 58.5156 25.2969 58.7031C25.7969 59.0469 25.9688 59.0625 28.8281 59.0625C32.2344 59.0625 32.3438 59.0312 32.3438 57.8594C32.3438 56.7969 32.1406 56.7188 29.4219 56.7188C28.125 56.7188 26.9531 56.6719 26.8125 56.625C26.5938 56.5312 26.5625 54.9219 26.5625 40C26.5625 25.0781 26.5938 23.4688 26.8125 23.375C27.125 23.25 52.875 23.25 53.1875 23.375C53.4062 23.4688 53.4375 25.0781 53.4375 40C53.4375 54.9219 53.4062 56.5312 53.1875 56.625C53.0469 56.6719 48.9531 56.7188 44.0625 56.7188H35.1719L34.8594 57.125C34.4375 57.6562 34.4375 58.125 34.8594 58.6562L35.1719 59.0625H44.6719H54.1719L54.7031 58.7031C54.9844 58.5156 55.3906 58.1094 55.5781 57.8281L55.9375 57.2969V40V22.7031L55.5781 22.1719C55.3906 21.8906 54.9844 21.4844 54.7031 21.2969L54.1719 20.9375H40H25.8281L25.2969 21.2969Z" fill="#2C4569"/>
<path d="M32.5626 26.2344C29.6876 26.9531 28.0938 29.9219 29.0157 32.8281C29.2188 33.4688 29.5157 33.9063 30.2344 34.625C31.7501 36.1563 31.4688 36.1094 40.1719 36.0625C47.5469 36.0156 47.5782 36.0156 48.2501 35.6563C49.2813 35.1094 50.1094 34.2813 50.5782 33.3125C51.1876 32.0625 51.2032 30.3125 50.6094 29.0469C50.0938 27.9375 49.2501 27.0938 48.1407 26.5781L47.2657 26.1719L40.1563 26.1406C36.2501 26.125 32.8282 26.1719 32.5626 26.2344ZM46.9219 28.8125C47.6094 29.0938 48.4063 30.0313 48.5313 30.7031C48.7188 31.75 48.0001 33.0469 46.9844 33.4219C46.6876 33.5313 44.1876 33.5938 39.7813 33.5938H33.0157L32.4844 33.2344C31.5938 32.6406 31.2188 31.9219 31.2813 31C31.3594 30 31.8594 29.2813 32.7188 28.8906C33.3126 28.625 33.8594 28.5938 39.8907 28.5938C45.0313 28.5938 46.5313 28.6406 46.9219 28.8125Z" fill="#2C4569"/>
<path d="M32.9063 40.3281C32.047 41 32.5313 42.5 33.6095 42.5C34.2813 42.5 34.6251 42.2656 34.8282 41.7188C35.0157 41.1406 34.8438 40.5938 34.3438 40.25C33.8751 39.9062 33.4063 39.9375 32.9063 40.3281Z" fill="#2C4569"/>
<path d="M39.2656 40.1875C38.5313 40.5469 38.4375 41.7969 39.1094 42.2656C39.9375 42.8438 41.0938 42.2813 41.0938 41.2969C41.0938 40.375 40.0938 39.7656 39.2656 40.1875Z" fill="#2C4569"/>
<path d="M45.5156 40.1562C44.3281 40.6562 44.8281 42.5 46.1562 42.5C47.1406 42.5 47.7031 41.25 47.0781 40.4844C46.7499 40.1094 46.0156 39.9375 45.5156 40.1562Z" fill="#2C4569"/>
<path d="M33.2812 45.1094C32.75 45.2969 32.5 45.6875 32.5 46.2812C32.5 47.0156 32.9375 47.5 33.6094 47.5C34.2812 47.5 34.625 47.2656 34.8281 46.7188C35.1719 45.7031 34.2656 44.75 33.2812 45.1094Z" fill="#2C4569"/>
<path d="M39.1406 45.3594C38.2031 46.1562 38.7187 47.5 39.9374 47.5C40.6249 47.5 41.0937 47.0312 41.0937 46.3438C41.0937 45.2344 39.9531 44.6562 39.1406 45.3594Z" fill="#2C4569"/>
<path d="M45.5469 45.1875C44.7813 45.5938 44.625 46.3906 45.1719 47.0938C45.4219 47.4062 45.625 47.5 46.0938 47.5C47.3907 47.5 47.8438 45.8125 46.7032 45.2344C46.1875 44.9531 45.9688 44.9531 45.5469 45.1875Z" fill="#2C4569"/>
<path d="M33.2812 50.1094C32.4687 50.4219 32.2031 51.5781 32.8125 52.1875C33.5468 52.9219 34.9062 52.375 34.9062 51.3438C34.9062 50.4844 34.0312 49.8281 33.2812 50.1094Z" fill="#2C4569"/>
<path d="M39.422 50.1563C38.8907 50.375 38.547 51 38.672 51.5625C38.9688 52.9531 41.0938 52.7656 41.0938 51.3438C41.0938 50.4219 40.2501 49.8125 39.422 50.1563Z" fill="#2C4569"/>
<path d="M45.5469 50.1875C44.7813 50.5938 44.625 51.3906 45.1719 52.0938C45.4219 52.4062 45.625 52.5 46.0938 52.5C47.3907 52.5 47.8438 50.8125 46.7032 50.2344C46.1875 49.9531 45.9688 49.9531 45.5469 50.1875Z" fill="#2C4569"/>
</g>
<defs>
<clipPath id="clip0_311_3248">
<rect width="80" height="80" fill="white"/>
</clipPath>
</defs>
</svg>
