<svg width="137" height="137" viewBox="0 0 137 137" fill="none" xmlns="http://www.w3.org/2000/svg">
<g clip-path="url(#clip0_258_644)">
<path d="M38.8816 -0.137736C39.146 -0.139595 39.4105 -0.141453 39.6829 -0.143368C40.562 -0.148233 41.441 -0.145517 42.3201 -0.142762C42.9533 -0.144652 43.5864 -0.146993 44.2195 -0.149748C45.9345 -0.155759 47.6494 -0.154983 49.3643 -0.152606C50.4368 -0.151308 51.5092 -0.152194 52.5817 -0.153667C52.7601 -0.153909 52.9385 -0.15415 53.1224 -0.154399C53.4849 -0.154894 53.8475 -0.155392 54.21 -0.155894C57.6047 -0.160323 60.9994 -0.158002 64.3941 -0.153489C67.4942 -0.149558 70.5943 -0.15347 73.6944 -0.161188C76.8839 -0.169068 80.0733 -0.171984 83.2628 -0.169434C83.6241 -0.16916 83.9854 -0.168894 84.3468 -0.168635C84.5245 -0.168508 84.7023 -0.16838 84.8854 -0.168249C86.1327 -0.167672 87.3799 -0.170359 88.6271 -0.174193C90.3091 -0.179116 91.9909 -0.177497 93.6729 -0.170929C94.2885 -0.169593 94.9042 -0.170513 95.5199 -0.173912C99.4288 -0.193776 102.777 -0.186409 105.761 2.69248C108.925 6.20298 108.749 10.0543 108.715 14.5276C108.714 15.1053 108.713 15.683 108.712 16.2607C108.709 17.7726 108.701 19.2845 108.692 20.7964C108.684 22.3426 108.68 23.8888 108.676 25.4351C108.667 28.4626 108.654 31.4901 108.637 34.5176C110.781 34.526 112.926 34.5244 115.07 34.5099C116.066 34.5036 117.062 34.5006 118.058 34.5056C119.019 34.5103 119.98 34.5059 120.941 34.4952C121.308 34.4927 121.675 34.4935 122.041 34.4976C123.997 34.6153 123.997 34.6153 125.674 33.8354C126.009 33.275 126.009 33.275 126.297 32.3769C126.891 31.8522 126.891 31.8522 127.501 31.4739C127.702 31.3449 127.904 31.2158 128.111 31.0829C129.545 30.3311 131.207 30.2667 132.769 30.646C134.627 31.2935 135.832 32.2922 136.744 34.0472C137.328 35.7304 137.298 37.5513 136.782 39.2503C136.016 40.8295 134.806 41.7676 133.254 42.5449C131.328 43.1581 129.417 42.9164 127.635 42.0097C126.66 41.3891 126.348 41.0851 125.957 39.9804C125.694 39.4552 125.694 39.4552 125.227 39.0664C123.993 38.7728 122.754 38.8108 121.493 38.8249C121.123 38.8224 120.752 38.8191 120.382 38.815C119.409 38.8063 118.436 38.8089 117.463 38.8137C116.469 38.8167 115.475 38.8091 114.482 38.8025C112.533 38.7909 110.585 38.7912 108.637 38.7988C108.637 38.9534 108.638 39.1081 108.638 39.2674C108.668 48.4285 108.691 57.5896 108.705 66.7507C108.707 67.8503 108.708 68.9499 108.71 70.0495C108.711 70.2684 108.711 70.4873 108.711 70.7128C108.717 74.2591 108.728 77.8053 108.74 81.3515C108.752 84.9892 108.76 88.627 108.763 92.2648C108.764 94.5102 108.77 96.7555 108.781 99.0008C108.788 100.54 108.79 102.079 108.789 103.618C108.788 104.506 108.79 105.394 108.796 106.283C108.803 107.246 108.801 108.208 108.798 109.171C108.802 109.452 108.805 109.734 108.809 110.024C108.796 111.298 108.788 111.912 108.008 112.958C107.299 113.453 107.299 113.453 106.496 113.62C105.372 113.386 105.044 113.038 104.356 112.115C104.158 111.135 104.181 110.168 104.195 109.171C104.193 108.87 104.192 108.57 104.191 108.26C104.189 107.251 104.196 106.242 104.204 105.233C104.204 104.511 104.204 103.788 104.203 103.066C104.202 101.509 104.207 99.9524 104.214 98.3959C104.225 96.1453 104.228 93.8948 104.23 91.6443C104.233 87.9929 104.242 84.3415 104.255 80.6901C104.267 77.1432 104.276 73.5964 104.282 70.0495C104.282 69.8308 104.283 69.6122 104.283 69.3869C104.285 68.29 104.287 67.1931 104.288 66.0963C104.302 56.9971 104.326 47.8979 104.356 38.7988C100.47 38.7988 96.585 38.7988 92.5821 38.7988C92.0813 43.886 92.0813 43.886 93.2962 48.9188C94.3821 50.0375 95.6766 50.7271 97.086 51.3669C97.8528 51.7313 98.4827 52.2098 99.1377 52.7463C99.3116 52.8795 99.4854 53.0126 99.6645 53.1498C100.364 53.7747 100.6 54.2175 100.683 55.1497C100.696 57.0826 100.696 57.0826 100.694 57.8494C100.693 58.4285 100.699 59.0072 100.706 59.5863C100.707 59.9563 100.707 60.3263 100.707 60.6963C100.708 61.1994 100.708 61.1994 100.709 61.7127C100.573 62.9426 100.134 63.6236 99.2715 64.4863C98.4464 64.77 97.6765 64.7851 96.809 64.78C96.5468 64.7792 96.2847 64.7783 96.0146 64.7774C95.7428 64.7752 95.471 64.7729 95.191 64.7706C94.777 64.7688 94.777 64.7688 94.3548 64.7669C93.6747 64.7638 92.9946 64.7594 92.3145 64.7539C92.3172 65.2824 92.3172 65.2824 92.3199 65.8217C92.3362 69.1407 92.3482 72.4598 92.3561 75.7789C92.3603 77.4853 92.366 79.1917 92.375 80.8981C92.3838 82.5446 92.3886 84.191 92.3906 85.8375C92.3921 86.466 92.395 87.0945 92.3994 87.7229C92.4052 88.6025 92.406 89.482 92.4056 90.3616C92.41 90.7522 92.41 90.7522 92.4144 91.1507C92.4083 92.4637 92.3924 93.4013 91.5118 94.4551C90.7198 94.851 89.917 94.7574 89.0491 94.753C88.7514 94.7531 88.7514 94.7531 88.4478 94.7531C87.7905 94.7529 87.1332 94.7509 86.4759 94.7488C86.0207 94.7483 85.5655 94.7479 85.1103 94.7476C83.9112 94.7466 82.712 94.744 81.5129 94.741C80.2897 94.7383 79.0665 94.737 77.8433 94.7357C75.4424 94.7328 73.0415 94.7283 70.6407 94.7226C70.6436 94.9342 70.6466 95.1458 70.6497 95.3638C70.6765 97.3598 70.6969 99.3557 70.71 101.352C70.717 102.378 70.7264 103.404 70.7416 104.43C70.7561 105.421 70.7641 106.411 70.7676 107.402C70.7701 107.78 70.7749 108.157 70.7821 108.535C70.7919 109.064 70.7924 109.594 70.7925 110.124C70.7955 110.425 70.7985 110.726 70.8016 111.037C70.6407 111.848 70.6407 111.848 70.182 112.615C68.7869 113.52 67.4136 113.361 65.7858 113.337C65.4244 113.337 65.0631 113.337 64.7017 113.338C63.7226 113.338 62.7438 113.331 61.7648 113.321C60.7409 113.313 59.7171 113.312 58.6932 113.31C56.7553 113.306 54.8174 113.295 52.8795 113.282C50.6729 113.267 48.4663 113.26 46.2596 113.253C41.7212 113.239 37.1829 113.214 32.6446 113.186C32.6446 115.658 32.6446 118.13 32.6446 120.678C56.3092 120.678 79.9738 120.678 104.356 120.678C104.356 120.148 104.356 119.618 104.356 119.072C104.757 118.303 104.757 118.303 105.426 117.734C106.179 117.543 106.826 117.488 107.566 117.734C108.481 118.633 108.76 119.292 108.779 120.576C108.774 120.859 108.774 120.859 108.77 121.148C108.77 121.347 108.77 121.546 108.771 121.751C108.77 122.172 108.767 122.592 108.762 123.013C108.754 123.647 108.756 124.281 108.76 124.915C108.755 128.648 108.249 131.442 105.693 134.324C103.566 136.379 101.024 137.164 98.1185 137.138C97.8541 137.14 97.5896 137.141 97.3172 137.143C96.438 137.148 95.5591 137.145 94.68 137.143C94.0468 137.145 93.4137 137.147 92.7805 137.15C91.0656 137.156 89.3507 137.155 87.6357 137.153C86.5633 137.151 85.4908 137.152 84.4184 137.154C84.1507 137.154 84.1507 137.154 83.8777 137.154C83.5151 137.155 83.1526 137.155 82.79 137.156C79.3953 137.16 76.0007 137.158 72.606 137.153C69.5059 137.15 66.4058 137.153 63.3057 137.161C60.1162 137.169 56.9268 137.172 53.7373 137.169C53.376 137.169 53.0146 137.169 52.6533 137.169C52.3867 137.168 52.3867 137.168 52.1147 137.168C50.8674 137.168 49.6202 137.17 48.373 137.174C46.691 137.179 45.0092 137.177 43.3272 137.171C42.7115 137.17 42.0959 137.17 41.4802 137.174C37.5713 137.194 34.2231 137.186 31.2387 134.307C28.6888 131.478 28.2365 128.533 28.2849 124.814C28.2861 124.479 28.2872 124.145 28.2884 123.8C28.2921 122.922 28.2993 122.044 28.3082 121.165C28.3165 120.265 28.3201 119.364 28.3241 118.463C28.3329 116.704 28.3463 114.945 28.3633 113.186C26.2186 113.177 24.0743 113.179 21.9296 113.193C20.9337 113.2 19.9381 113.202 18.9422 113.197C17.9808 113.193 17.02 113.197 16.0587 113.208C15.6921 113.21 15.3255 113.21 14.959 113.206C13.0034 113.088 13.0034 113.088 11.3262 113.868C10.9915 114.428 10.9915 114.428 10.7032 115.326C10.1095 115.851 10.1095 115.851 9.49906 116.229C9.19691 116.423 9.19691 116.423 8.88865 116.62C7.45554 117.372 5.79321 117.436 4.23112 117.057C2.37309 116.41 1.16835 115.411 0.256118 113.656C-0.327987 111.973 -0.297651 110.152 0.21849 108.453C0.984063 106.874 2.1944 105.935 3.74613 105.158C5.67188 104.545 7.58316 104.787 9.36527 105.693C10.3405 106.314 10.6516 106.618 11.0426 107.723C11.3056 108.248 11.3056 108.248 11.7735 108.637C13.0071 108.93 14.2461 108.892 15.507 108.878C15.8775 108.881 16.2479 108.884 16.6183 108.888C17.5914 108.897 18.5642 108.894 19.5374 108.889C20.5311 108.886 21.5247 108.894 22.5184 108.901C24.4668 108.912 26.4149 108.912 28.3633 108.904C28.3629 108.727 28.3625 108.55 28.3621 108.367C28.3381 97.8653 28.3198 87.3636 28.3087 76.8618C28.3073 75.6015 28.3059 74.3411 28.3045 73.0807C28.3042 72.8298 28.304 72.5789 28.3037 72.3204C28.299 68.2551 28.2906 64.1898 28.2807 60.1245C28.2707 55.9545 28.2648 51.7846 28.2626 47.6146C28.2611 45.0406 28.2565 42.4666 28.2478 39.8926C28.2422 38.1286 28.2404 36.3646 28.2418 34.6006C28.2425 33.5821 28.2415 32.5637 28.2357 31.5453C28.2296 30.4419 28.2317 29.3387 28.2346 28.2353C28.2315 27.9123 28.2284 27.5893 28.2252 27.2565C28.2408 25.0932 28.2408 25.0932 28.8731 24.0175C29.4749 23.5122 29.727 23.3644 30.5039 23.3796C30.6805 23.3762 30.8571 23.3727 31.0391 23.3692C31.9382 23.6677 32.1616 24.0631 32.6446 24.8847C32.8063 26.0004 32.7841 27.1098 32.7733 28.2353C32.7742 28.5796 32.7751 28.9238 32.7761 29.2785C32.7784 30.2335 32.7742 31.1883 32.7688 32.1433C32.7642 33.1733 32.7657 34.2033 32.7666 35.2333C32.7671 37.0176 32.7638 38.8019 32.7577 40.5863C32.749 43.1661 32.7462 45.746 32.7449 48.3258C32.7426 52.5115 32.7354 56.6971 32.7253 60.8827C32.7155 64.9487 32.7079 69.0147 32.7034 73.0807C32.7029 73.4567 32.7029 73.4567 32.7025 73.8402C32.7011 75.0974 32.6998 76.3547 32.6984 77.612C32.6873 88.0427 32.6676 98.4735 32.6446 108.904C43.7705 108.904 54.8964 108.904 66.3594 108.904C66.3594 104.224 66.3594 99.5444 66.3594 94.7226C64.9038 94.7351 63.4482 94.7475 61.9486 94.7603C61.0267 94.7657 60.1048 94.7709 59.1829 94.7749C57.7194 94.7813 56.2561 94.7889 54.7927 94.8034C53.6129 94.815 52.4332 94.8214 51.2534 94.8242C50.8032 94.8262 50.353 94.83 49.9028 94.8358C49.2723 94.8436 48.6422 94.8446 48.0118 94.8441C47.8254 94.848 47.6391 94.8518 47.4472 94.8558C46.5435 94.8481 46.0986 94.7821 45.3808 94.2133C44.7659 93.4067 44.6522 92.973 44.6534 91.976C44.6529 91.6169 44.6529 91.6169 44.6523 91.2506C44.6533 90.9873 44.6542 90.724 44.6552 90.4528C44.6552 90.176 44.6551 89.8993 44.6551 89.6142C44.6553 88.6963 44.6574 87.7784 44.6595 86.8604C44.66 86.2253 44.6603 85.5901 44.6606 84.955C44.6616 83.2807 44.6643 81.6065 44.6672 79.9323C44.6699 78.2249 44.6712 76.5174 44.6725 74.81C44.6754 71.458 44.6799 68.1059 44.6856 64.7539C44.5143 64.7567 44.3429 64.7595 44.1664 64.7624C43.3862 64.7735 42.6061 64.7805 41.8258 64.7873C41.5563 64.7918 41.2867 64.7963 41.009 64.8009C40.7477 64.8026 40.4864 64.8044 40.2172 64.8061C39.8578 64.8103 39.8578 64.8103 39.4911 64.8146C38.5155 64.729 37.751 64.457 36.9927 63.8341C35.9831 62.5721 36.3099 60.6365 36.297 59.0969C36.2926 58.711 36.2853 58.3251 36.275 57.9393C36.2603 57.3799 36.2545 56.821 36.2506 56.2614C36.2453 55.9274 36.24 55.5934 36.2345 55.2493C36.4648 53.8764 37.2071 53.1578 38.2428 52.2741C38.4042 52.1633 38.5657 52.0525 38.732 51.9384C38.9172 51.8095 39.1024 51.6807 39.2933 51.548C39.4833 51.4191 39.6734 51.2903 39.8692 51.1576C40.051 51.0318 40.2327 50.9061 40.42 50.7766C40.608 50.6467 40.796 50.5169 40.9897 50.3831C41.2852 50.1719 41.2852 50.1719 41.5868 49.9564C42.2774 49.5019 42.2774 49.5019 43.1911 49.0365C44.8974 48.136 44.8974 48.136 45.9459 46.5746C46.2342 45.1007 46.164 43.6197 46.1071 42.1268C46.1025 41.6737 46.0996 41.2206 46.0982 40.7675C46.0915 39.6642 46.0634 38.5634 46.0235 37.4609C45.8567 37.4228 45.6899 37.3847 45.5181 37.3454C44.2977 37.0169 43.4 36.0765 42.7216 35.0402C41.9827 33.557 41.7216 32.143 42.0098 30.5039C42.7608 28.3116 43.8154 27.1248 45.8228 26.0052C47.6628 25.4226 49.1575 25.4414 50.9235 26.2561C52.7122 27.2541 53.6921 28.526 54.3184 30.5039C54.5738 32.3786 54.3043 34.0021 53.2481 35.5879C52.595 36.3001 51.9235 36.9398 51.1075 37.4609C50.8426 37.4609 50.5777 37.4609 50.3047 37.4609C50.393 39.4918 50.4813 41.5228 50.5723 43.6152C51.4746 42.9281 51.4746 42.9281 52.3952 42.2271C54.2384 40.8348 56.1266 39.5218 58.0408 38.2294C59.4623 37.2645 60.8453 36.2608 62.2119 35.2199C66.9143 31.6535 66.9143 31.6535 68.7676 31.5742C70.383 31.9337 71.593 32.8 72.8649 33.8152C74.4513 35.0442 76.067 36.2062 77.7315 37.3271C79.5124 38.5308 81.2551 39.7705 82.9618 41.0774C84.71 42.4129 86.5075 43.6794 88.3008 44.9531C88.3019 44.675 88.303 44.3969 88.3041 44.1104C88.31 43.077 88.3245 42.0439 88.3416 41.0106C88.3478 40.5637 88.3517 40.1168 88.3531 39.6699C88.3556 39.0267 88.3666 38.3841 88.3792 37.741C88.3782 37.5417 88.3771 37.3424 88.376 37.137C88.4016 36.2262 88.5096 35.67 89.0434 34.9247C90.4016 34.2839 91.7156 34.3864 93.1977 34.413C93.4804 34.4141 93.7631 34.4152 94.0544 34.4163C95.1078 34.4219 96.1612 34.4368 97.2145 34.4507C99.571 34.4727 101.928 34.4948 104.356 34.5176C104.356 27.4535 104.356 20.3894 104.356 13.1113C80.6909 13.1113 57.0263 13.1113 32.6446 13.1113C32.6446 14.6124 32.6446 16.1135 32.6446 17.6601C32.1094 18.7304 32.1094 18.7304 31.2231 19.0984C30.185 19.2743 29.7802 19.2847 28.8985 18.7304C28.2411 17.7774 28.2814 16.7852 28.2828 15.669C28.2817 15.4755 28.2805 15.2821 28.2794 15.0828C28.2778 14.6732 28.2777 14.2637 28.2789 13.8541C28.2797 13.2369 28.2734 12.62 28.2666 12.0028C28.25 8.29417 28.7675 5.53974 31.3067 2.67576C33.4338 0.621088 35.9765 -0.16421 38.8816 -0.137736ZM33.9825 6.15427C33.0611 7.53584 33.0611 7.53584 32.6446 9.09763C56.3092 9.09763 79.9738 9.09763 104.356 9.09763C103.397 6.70199 102.892 5.57417 100.726 4.46519C99.1525 4.02123 97.6381 3.97491 96.0165 3.97787C95.6498 3.97696 95.6498 3.97696 95.2758 3.97603C94.4581 3.97434 93.6404 3.97456 92.8227 3.97478C92.2358 3.97398 91.649 3.97307 91.0621 3.97206C89.4688 3.96969 87.8755 3.96906 86.2822 3.96889C85.2865 3.9687 84.2908 3.96813 83.2951 3.96742C80 3.96508 76.7049 3.96383 73.4098 3.96403C73.2323 3.96404 73.0548 3.96405 72.8719 3.96407C72.6053 3.96408 72.6053 3.96408 72.3334 3.9641C69.4542 3.96421 66.5749 3.96165 63.6957 3.95787C60.7364 3.95403 57.7771 3.95223 54.8177 3.95241C53.1575 3.95248 51.4973 3.95172 49.837 3.94889C48.2753 3.9463 46.7135 3.94628 45.1517 3.94822C44.5793 3.9485 44.0069 3.94787 43.4344 3.94625C42.6515 3.94418 41.8685 3.94543 41.0855 3.94749C40.8604 3.94612 40.6353 3.94474 40.4034 3.94332C37.9448 3.95755 35.722 4.28991 33.9825 6.15427ZM46.8764 30.5373C46.2099 31.2565 46.2099 31.2565 46.2743 32.1428C46.5086 32.9165 46.5086 32.9165 47.0102 33.4305C47.8696 33.8254 48.342 33.7321 49.2344 33.4472C49.7906 33.0253 49.7906 33.0253 50.0371 32.3769C50.0178 31.4299 49.9494 30.9575 49.2846 30.2698C48.2704 29.7482 47.7657 29.8654 46.8764 30.5373ZM129.24 35.8554C129.075 36.8475 129.106 37.2719 129.692 38.0964C130.28 38.5719 130.28 38.5719 130.98 38.665C131.881 38.4847 132.188 38.2078 132.719 37.4609C132.884 36.4688 132.853 36.0445 132.267 35.2199C131.679 34.7445 131.679 34.7445 130.98 34.6513C130.078 34.8317 129.771 35.1086 129.24 35.8554ZM66.0751 37.7787C64.4662 39.0241 62.8295 40.2046 61.1416 41.3408C59.3561 42.5474 57.6164 43.7973 55.9007 45.1011C54.4593 46.1937 52.9895 47.2408 51.5082 48.2785C50.5214 48.9703 49.5382 49.6665 48.5623 50.3736C48.3612 50.5193 48.16 50.665 47.9527 50.8151C47.5491 51.109 47.1469 51.4047 46.746 51.7023C45.7569 52.4305 44.7726 53.0984 43.6978 53.6943C41.7028 54.7243 41.7028 54.7243 40.4903 56.4944C40.3084 57.8476 40.4457 59.1329 40.6719 60.4726C40.9654 60.4743 40.9654 60.4743 41.2648 60.476C42.1544 60.4848 43.0435 60.5037 43.933 60.5228C44.3948 60.5251 44.3948 60.5251 44.8659 60.5275C45.3121 60.5391 45.3121 60.5391 45.7674 60.551C46.1773 60.5573 46.1773 60.5573 46.5954 60.5638C47.6537 60.8076 48.0214 61.2373 48.6993 62.0781C48.8328 62.8066 48.8848 63.37 48.8757 64.0968C48.8785 64.2953 48.8813 64.4939 48.8842 64.6984C48.8919 65.3515 48.8902 66.0041 48.8884 66.6572C48.892 67.1113 48.896 67.5653 48.9007 68.0193C48.9114 69.2119 48.9141 70.4043 48.9152 71.5969C48.9177 72.8148 48.9277 74.0327 48.937 75.2506C48.9543 77.6384 48.9632 80.0262 48.9668 82.414C49.1134 82.4149 49.26 82.4158 49.411 82.4167C52.9775 82.4385 56.5439 82.4631 60.1104 82.491C61.8351 82.5043 63.5598 82.5168 65.2845 82.5269C66.9484 82.5368 68.6122 82.5492 70.276 82.5634C70.9114 82.5683 71.5468 82.5724 72.1822 82.5755C73.0708 82.58 73.9594 82.5877 74.848 82.5963C75.1118 82.5969 75.3757 82.5975 75.6476 82.5981C75.89 82.601 76.1323 82.604 76.382 82.6071C76.5922 82.6086 76.8023 82.6101 77.0189 82.6116C77.6766 82.6912 78.1071 82.8675 78.668 83.2168C79.076 84.0328 78.9986 84.7265 78.9356 85.625C78.5188 86.1981 78.2799 86.4004 77.5786 86.5307C77.3642 86.5319 77.1499 86.5331 76.9291 86.5344C76.6826 86.5378 76.436 86.5411 76.1821 86.5446C75.7773 86.544 75.7773 86.544 75.3644 86.5434C75.0798 86.5461 74.7952 86.5489 74.502 86.5517C73.5594 86.5598 72.617 86.5622 71.6744 86.5646C71.0216 86.5691 70.3689 86.574 69.7161 86.5792C67.9966 86.5919 66.277 86.5999 64.5575 86.6069C62.8034 86.6148 61.0493 86.6273 59.2952 86.6394C55.8525 86.6624 52.4097 86.6804 48.9668 86.6953C48.9668 87.9315 48.9668 89.1677 48.9668 90.4414C61.8587 90.4414 74.7507 90.4414 88.0332 90.4414C88.0332 89.2052 88.0332 87.969 88.0332 86.6953C87.2634 86.6456 87.2634 86.6456 86.4779 86.5949C84.9226 86.4946 84.9226 86.4946 84.0196 85.8926C83.7344 84.9759 83.6721 84.4816 84.0394 83.5868C84.7423 82.7171 85.2499 82.7172 86.3442 82.598C86.6598 82.5604 86.9754 82.5228 87.3005 82.4841C87.5423 82.461 87.7841 82.4379 88.0332 82.414C88.0336 82.1622 88.034 81.9104 88.0344 81.651C88.0389 79.2769 88.0503 76.9029 88.0686 74.5289C88.0778 73.3084 88.0845 72.088 88.0856 70.8675C88.0867 69.6894 88.0943 68.5114 88.1064 67.3334C88.1099 66.8842 88.111 66.4349 88.1098 65.9857C88.1085 65.3558 88.1155 64.7266 88.1244 64.0968C88.1221 63.9114 88.1198 63.7261 88.1174 63.5351C88.1415 62.5163 88.285 62.0977 88.9329 61.294C89.7671 60.6395 90.1836 60.5672 91.2327 60.551C91.5302 60.5433 91.8277 60.5355 92.1342 60.5275C92.596 60.5252 92.596 60.5252 93.0671 60.5228C93.5366 60.5127 93.5366 60.5127 94.0156 60.5024C94.7865 60.4867 95.5571 60.477 96.3282 60.4726C96.6412 58.9442 96.8848 57.421 96.3282 55.9238C95.163 54.555 93.467 53.7312 91.9259 52.8514C90.9148 52.2491 89.9974 51.5453 89.0701 50.8231C87.4561 49.5932 85.8138 48.4109 84.1522 47.2463C82.7613 46.2708 81.3813 45.2814 80.0059 44.2842C78.2511 43.0123 76.4868 41.7553 74.7111 40.5127C73.7659 39.849 72.8312 39.1752 71.9096 38.479C71.727 38.3417 71.5444 38.2045 71.3563 38.0631C71.0108 37.8022 70.6668 37.5392 70.3248 37.2737C68.521 35.9137 67.6778 36.5035 66.0751 37.7787ZM4.28129 110.242C4.11594 111.234 4.14697 111.659 4.73283 112.483C5.32103 112.959 5.32103 112.959 6.02055 113.052C6.92232 112.871 7.22913 112.595 7.7598 111.848C7.92515 110.856 7.89412 110.431 7.30826 109.607C6.72006 109.131 6.72006 109.131 6.02055 109.038C5.11877 109.218 4.81196 109.495 4.28129 110.242ZM32.6446 124.691C32.5867 128.438 32.5867 128.438 34.4633 131.348C36.3837 132.942 38.6659 133.067 41.0801 133.054C41.3253 133.055 41.5704 133.056 41.8229 133.057C42.6381 133.059 43.4533 133.057 44.2685 133.056C44.8555 133.056 45.4425 133.057 46.0294 133.058C47.6194 133.061 49.2093 133.06 50.7993 133.058C52.4652 133.057 54.1311 133.058 55.7969 133.059C58.7733 133.06 61.7496 133.058 64.7259 133.056C67.421 133.053 70.1162 133.054 72.8113 133.056C75.9459 133.059 79.0804 133.06 82.215 133.058C83.8725 133.058 85.5301 133.057 87.1876 133.059C88.7461 133.061 90.3045 133.06 91.863 133.057C92.4342 133.056 93.0053 133.056 93.5764 133.057C94.3576 133.059 95.1387 133.057 95.9199 133.054C96.1445 133.055 96.369 133.057 96.6004 133.058C98.7973 133.043 100.809 132.782 102.537 131.348C104.471 129.326 104.356 127.551 104.356 124.691C80.6909 124.691 57.0263 124.691 32.6446 124.691Z" fill="#2C4569"/>
<path d="M81.3438 56.7265C82.4173 57.8834 82.4173 57.8834 82.3974 59.0344C82.1466 59.9375 82.1466 59.9375 81.8623 60.4559C81.0184 60.9187 80.1339 60.8579 79.2032 60.7402C78.2876 60.3096 78.2876 60.3096 77.3971 59.7368C73.5321 57.3549 69.138 56.6111 64.6873 57.55C62.4419 58.0942 60.5923 59.035 58.5997 60.205C57.1097 61.0282 57.1097 61.0282 56.1413 60.8573C55.3229 60.439 54.9696 60.2371 54.586 59.4023C54.5524 58.4954 54.6051 57.8634 55.1599 57.1174C61.8223 50.8092 74.429 51.2778 81.3438 56.7265Z" fill="#2C4569"/>
<path d="M78.3186 61.6106C79.4247 62.4983 79.4247 62.4983 79.7383 63.2822C79.7383 64.0871 79.5854 64.5819 79.2031 65.289C78.4257 65.8073 78.0246 65.9679 77.1033 65.9465C76.071 65.7273 75.2143 65.154 74.3094 64.6285C71.4503 63.0135 68.4388 62.8425 65.2671 63.4599C63.5444 63.9534 61.9583 64.8338 60.4727 65.8242C59.5371 65.9694 58.6432 66.0049 57.8136 65.5232C57.4039 64.8002 57.295 64.247 57.2617 63.416C58.2363 61.3732 60.4319 60.3762 62.4628 59.5863C67.7242 57.84 73.7679 58.2454 78.3186 61.6106Z" fill="#2C4569"/>
<path d="M75.7247 66.8945C76.4438 67.53 76.4438 67.53 76.795 68.2324C76.7789 69.1681 76.7142 69.8106 76.2097 70.6072C75.5071 71.0432 74.9434 71.1127 74.1192 71.1758C73.3071 70.8601 73.3071 70.8601 72.4971 70.4065C70.3691 69.2289 68.4238 68.9804 66.0752 69.6372C65.2216 69.9091 64.5054 70.2276 63.7506 70.7075C62.881 71.1758 62.881 71.1758 62.0281 71.1925C61.0497 70.8229 60.7047 70.4894 60.2052 69.5703C60.1862 68.4906 60.2565 67.9345 60.9912 67.1286C65.7261 64.2297 70.8792 63.8285 75.7247 66.8945Z" fill="#2C4569"/>
<path d="M63.3312 126.72C63.5849 126.715 63.8385 126.711 64.0998 126.707C64.3733 126.707 64.6467 126.707 64.9284 126.707C65.2098 126.705 65.4912 126.703 65.7812 126.7C66.3765 126.698 66.9719 126.697 67.5673 126.698C68.4789 126.698 69.3899 126.687 70.3014 126.675C70.8796 126.674 71.4578 126.673 72.036 126.673C72.4453 126.667 72.4453 126.667 72.8629 126.66C74.7436 126.678 74.7436 126.678 75.6384 127.45C76.1212 128.432 76.014 129.001 75.7246 130.043C75.2912 130.62 75.0606 130.82 74.3449 130.951C74.1217 130.953 73.8986 130.956 73.6687 130.958C73.2882 130.964 73.2882 130.964 72.9001 130.971C72.4899 130.971 72.4899 130.971 72.0715 130.971C71.7901 130.973 71.5087 130.975 71.2188 130.977C70.6234 130.98 70.028 130.981 69.4326 130.98C68.521 130.979 67.61 130.991 66.6985 131.002C66.1203 131.004 65.5421 131.005 64.964 131.005C64.5546 131.011 64.5546 131.011 64.137 131.018C62.2563 130.999 62.2563 130.999 61.3615 130.227C60.8787 129.245 60.986 128.677 61.2754 127.635C61.8863 126.822 62.3347 126.73 63.3312 126.72Z" fill="#2C4569"/>
<path d="M70.1055 72.7812C70.7229 73.4759 70.6397 73.8684 70.5905 74.8048C70.373 75.7246 70.373 75.7246 70.0887 76.243C69.2281 76.715 68.3679 76.7251 67.4297 76.5273C66.744 75.9755 66.744 75.9755 66.3594 75.1894C66.3759 74.2307 66.4213 73.5968 66.9949 72.8147C68.1178 72.0372 68.896 72.3194 70.1055 72.7812Z" fill="#2C4569"/>
</g>
<defs>
<clipPath id="clip0_258_644">
<rect width="137" height="137" fill="white"/>
</clipPath>
</defs>
</svg>
