<svg width="80" height="80" viewBox="0 0 80 80" fill="none" xmlns="http://www.w3.org/2000/svg">
<path d="M32.4843 3.98438C28.4999 4.65625 24.5468 6.51562 21.4531 9.1875C19.0781 11.25 17.2812 13.625 15.8437 16.6406C14.3906 19.6719 13.7499 22.5469 13.7499 26.0469C13.7499 29.0938 13.8593 29.1562 17.6874 28.2031L19.8749 27.6406L21.5468 28.2031C22.4531 28.5 23.4531 28.75 23.7656 28.75C24.0624 28.75 25.0312 28.5156 25.9062 28.2188L27.4999 27.6719L29.0937 28.2188C30.9843 28.8438 31.3437 28.8594 33.2812 28.3594C34.0937 28.1406 34.8124 27.9688 34.8906 27.9688C34.9531 27.9688 34.9999 38.2656 34.9999 50.8594V73.75H32.8437H30.7031L29.3124 69.5625C28.5468 67.2656 27.8906 65.2969 27.8437 65.1875C27.7968 65.0469 28.0156 65 28.6093 65C30.0468 64.9844 31.2031 64.25 31.9218 62.8906C32.2031 62.375 32.2656 62 32.2656 60.625C32.2656 59.2031 32.2031 58.8906 31.8906 58.2969C31.4999 57.5469 30.9531 56.9844 30.2343 56.5781C29.8281 56.3594 28.9687 56.3125 24.0781 56.25L18.3749 56.1719L17.3281 48.8281C16.7499 44.7812 16.2031 41.2812 16.1093 41.0469C15.7968 40.25 15.1406 39.5469 14.3281 39.1406C13.6249 38.7969 13.3281 38.75 11.9218 38.75C10.0937 38.75 9.45307 38.9375 8.60932 39.7344C7.8437 40.4688 7.49995 41.2969 7.49995 42.5C7.49995 43.7188 9.31245 61.1875 9.54682 62.1875C9.7812 63.2188 10.3593 64 11.2968 64.5312C11.9843 64.9219 12.2656 65 13.2187 65H14.3281L13.3593 69.3281L12.3906 73.6719L8.29682 73.75C4.4687 73.8281 4.17182 73.8438 3.9687 74.125C3.64057 74.5781 3.68745 75.5625 4.06245 75.9375C4.37495 76.25 4.57807 76.25 39.9999 76.25C75.4218 76.25 75.6249 76.25 75.9374 75.9375C76.3593 75.5156 76.3593 74.4844 75.9374 74.0625C75.6406 73.7656 75.4218 73.75 72.1249 73.75C68.6249 73.75 68.6249 73.75 68.5468 73.3906C68.4062 72.8594 65.1562 57.6719 65.1562 57.5781C65.1562 57.5312 66.1874 57.5 67.4687 57.5C70.0468 57.5 70.6093 57.3438 71.5156 56.3906C72.2968 55.5625 72.4999 54.9062 72.4999 53.125C72.4999 51.3438 72.2968 50.6875 71.5156 49.8594C70.4531 48.75 70.5468 48.75 63.0156 48.75H56.2499V44.6875C56.2499 39.7031 56.3906 40 54.0624 40H52.4999V38.5312C52.4999 37.7188 52.4531 36.9375 52.4062 36.7969C52.2499 36.4062 49.3281 35 48.6718 35C47.9531 35 47.4999 35.4531 47.4999 36.1875C47.4999 37.0156 47.6718 37.2188 48.8906 37.8125L49.9999 38.3438V39.1719V40H49.0624C47.4687 40 47.4999 39.8906 47.4999 44.6875V48.75H45.1249C42.4374 48.75 41.8906 48.9062 40.9843 49.8594C40.2031 50.6875 39.9999 51.3438 39.9999 53.125C39.9999 54.9062 40.2031 55.5625 40.9843 56.3906C41.8906 57.3438 42.4531 57.5 45.0468 57.5C46.3124 57.5 47.3437 57.5312 47.3437 57.5781C47.3437 57.6719 44.0937 72.8594 43.9531 73.3906C43.8749 73.75 43.8593 73.75 40.6874 73.75H37.4999V50.8594C37.4999 38.2656 37.5468 27.9688 37.6249 27.9688C37.6874 27.9688 38.4062 28.1406 39.2187 28.3594C41.1562 28.8594 41.5156 28.8438 43.4062 28.2188L44.9999 27.6719L46.5937 28.2188C47.4687 28.5156 48.4374 28.75 48.7343 28.75C49.0468 28.75 50.0468 28.5 50.9531 28.2031L52.6249 27.6406L54.8124 28.2031C57.3593 28.8438 57.9999 28.875 58.4374 28.4375C58.7187 28.1562 58.7499 27.9219 58.7499 26.0469C58.7499 20.5938 56.8906 15.5938 53.3124 11.4531C49.8906 7.51562 45.0624 4.8125 39.9218 3.98438C38.2031 3.70312 34.1562 3.70312 32.4843 3.98438ZM30.6874 7.85938C28.2499 10.4688 26.6718 12.7188 25.3281 15.5156C23.9531 18.3906 23.1874 20.8594 22.7187 23.9531C22.5937 24.8281 22.4687 25.5625 22.4374 25.5781C22.4218 25.6094 21.9843 25.4844 21.4843 25.3125C20.9843 25.1406 20.3281 25 20.0468 25C19.5937 25 17.8437 25.375 16.6874 25.7188C16.4374 25.7969 16.4062 25.6875 16.4062 25.0312C16.4062 23 17.3281 19.5938 18.5156 17.2812C20.4062 13.5781 23.7343 10.2656 27.4062 8.45312C28.4374 7.9375 31.0937 6.92188 31.5468 6.875C31.5781 6.875 31.1874 7.3125 30.6874 7.85938ZM43.7343 7.82812C47.9843 9.51562 51.8437 13.0781 53.9843 17.2812C55.1718 19.5938 56.0937 23 56.0937 25.0312C56.0937 25.6875 56.0624 25.7969 55.8281 25.7188C54.6562 25.375 52.9062 25 52.4531 25C52.1718 25 51.5156 25.1406 51.0156 25.3125C50.5156 25.4844 50.0781 25.6094 50.0624 25.5781C50.0312 25.5625 49.9062 24.8281 49.7812 23.9531C48.8593 17.8125 46.3281 12.6875 41.8281 7.85938L40.9062 6.89062L41.7499 7.125C42.2031 7.26562 43.0937 7.57812 43.7343 7.82812ZM34.8906 25.1719C34.8124 25.2188 33.9999 25.4531 33.0468 25.6875L31.3281 26.1094L29.7031 25.5469C27.8281 24.9219 27.2656 24.875 26.0624 25.2969L25.2031 25.5938L25.4218 24.2344C25.8749 21.3438 26.7499 18.7812 28.2187 15.9375C29.4687 13.5312 30.9218 11.5781 33.0468 9.45312L34.9218 7.57812L34.9687 16.3125C34.9843 21.125 34.9531 25.1094 34.8906 25.1719ZM40.2499 10.2188C43.3124 13.5469 45.6093 17.8125 46.6562 22.1094C46.8593 22.9688 47.0781 24.1094 47.1562 24.625L47.2812 25.5938L46.4374 25.2969C45.2343 24.875 44.6874 24.9219 42.7968 25.5469L41.1406 26.1094L39.3593 25.6562L37.5781 25.2188L37.5312 16.4219L37.4999 7.625L38.2968 8.29688C38.7343 8.65625 39.6093 9.53125 40.2499 10.2188ZM12.7968 41.3906C13.3281 41.5312 13.7031 42.1406 13.8281 43L13.9218 43.75H12.0468H10.1562V42.9844C10.1562 42.5625 10.2031 42.0938 10.2499 41.9531C10.4687 41.4062 11.7968 41.1094 12.7968 41.3906ZM53.7499 45.625V48.75H51.8749H49.9999V45.625V42.5H51.8749H53.7499V45.625ZM15.1249 52.1875C15.8437 57.25 15.9999 58.0938 16.2812 58.3906C16.6093 58.75 16.6562 58.75 20.8124 58.75H24.9999V60.625V62.5L19.1874 62.4844C15.9843 62.4688 13.1874 62.4219 12.9843 62.3594C12.1406 62.125 12.1093 61.9375 11.3437 54.5312C10.9374 50.7031 10.5781 47.2812 10.5312 46.9062L10.4374 46.2344L12.3593 46.2812L14.2812 46.3281L15.1249 52.1875ZM44.9999 53.125V55H44.4687C43.2031 55 42.4999 54.3438 42.4999 53.1562C42.4999 51.9062 43.1562 51.2656 44.4218 51.25H44.9999V53.125ZM54.9999 53.125V55H51.2499H47.4999V53.125V51.25H51.2499H54.9999V53.125ZM64.9999 53.125V55H61.2499H57.4999V53.125V51.25H61.2499H64.9999V53.125ZM69.1249 51.4688C69.9374 51.8125 70.2343 53.0312 69.7812 54.125C69.5468 54.6875 68.9374 55 68.0312 55H67.4999V53.125V51.25H68.0468C68.3593 51.25 68.8437 51.3438 69.1249 51.4688ZM62.4999 57.7969C62.4999 57.9531 63.2343 61.5156 64.1406 65.7188C65.0468 69.9219 65.7812 73.4531 65.7812 73.5469C65.7812 73.7031 63.7656 73.75 56.2499 73.75C48.7343 73.75 46.7187 73.7031 46.7187 73.5469C46.7187 73.4531 47.4531 69.9219 48.3593 65.7188C49.2656 61.5156 49.9999 57.9531 49.9999 57.7969C49.9999 57.5156 50.2499 57.5 56.2499 57.5C62.2499 57.5 62.4999 57.5156 62.4999 57.7969ZM29.2968 59.2188C29.5468 59.4844 29.6093 59.75 29.6093 60.625C29.6093 61.9375 29.3437 62.2812 28.2343 62.4375L27.4999 62.5469V60.625V58.7031L28.2343 58.8125C28.6562 58.8594 29.1093 59.0469 29.2968 59.2188ZM26.3906 69.2656C27.1718 71.5938 27.8124 73.5625 27.8124 73.6406C27.8124 73.7031 24.9687 73.75 21.4843 73.75C17.9999 73.75 15.1562 73.7188 15.1562 73.6719C15.1562 73.625 15.5781 71.6875 16.0937 69.375C16.6093 67.0625 17.0312 65.125 17.0312 65.0781C17.0312 65.0312 18.8124 65 20.9999 65H24.9687L26.3906 69.2656Z" fill="#212C60"/>
</svg>
