<svg width="95" height="95" viewBox="0 0 95 95" fill="none" xmlns="http://www.w3.org/2000/svg">
<g clip-path="url(#clip0_256_2152)">
<path fill-rule="evenodd" clip-rule="evenodd" d="M13.5714 1.93637e-07C12.9263 -0.000217732 12.2944 0.183515 11.75 0.529654C11.2055 0.875792 10.771 1.36999 10.4975 1.95429L0.318929 23.7296C0.0693152 24.2655 -0.0359469 24.8573 0.0135714 25.4464H0V31.8589C0 35.4146 1.53357 38.8211 4.275 41.3318C7.00286 43.8425 10.7146 45.2539 14.5825 45.2539H16.6182C20.4251 45.2782 24.1036 43.8793 26.9325 41.3318C28.0454 40.3139 28.9546 39.1468 29.6468 37.8846C30.5086 36.7311 31.9064 36.7311 32.7139 37.7896C33.4129 39.0925 34.3425 40.2868 35.4757 41.3318C38.2104 43.8425 41.9221 45.2539 45.79 45.2539H49.4339C53.2408 45.2782 56.9193 43.8793 59.7482 41.3318C60.8068 40.3546 61.6889 39.2486 62.3675 38.0475C63.2564 36.6564 64.8104 36.6904 65.6246 37.9796C66.31 39.2079 67.2057 40.3411 68.2846 41.3318C71.0193 43.8425 74.7311 45.2539 78.5989 45.2539H80.4175C84.2243 45.2782 87.9029 43.8793 90.7318 41.3318C93.4664 38.8211 95 35.4146 95 31.8589V25.4464H94.9864C95.0359 24.8573 94.9307 24.2655 94.6811 23.7296L84.5025 1.95429C84.229 1.36999 83.7945 0.875792 83.25 0.529654C82.7056 0.183515 82.0737 -0.000217732 81.4286 1.93637e-07H13.5714ZM6.78571 88.2143V52.4468C14.8471 55.1068 24.4625 53.9193 31.065 48.8096C39.8729 55.6225 55.1475 55.6225 63.9486 48.8096C70.585 53.9396 80.18 55.1068 88.2143 52.3789V88.2143C88.2143 90.014 87.4994 91.7399 86.2268 93.0125C84.9542 94.2851 83.2283 95 81.4286 95H72.9125V69.2821C72.911 69.0834 72.868 68.8871 72.7862 68.706C72.7044 68.5249 72.5856 68.3629 72.4375 68.2304C72.121 67.9461 71.7093 67.7911 71.2839 67.7961H57.7668C57.3414 67.7911 56.9297 67.9461 56.6132 68.2304C56.4651 68.3629 56.3463 68.5249 56.2645 68.706C56.1827 68.8871 56.1397 69.0834 56.1382 69.2821V95H13.5714C11.7717 95 10.0458 94.2851 8.7732 93.0125C7.50064 91.7399 6.78571 90.014 6.78571 88.2143ZM16.9779 73.0143V64.4643C16.9779 63.5644 17.3353 62.7015 17.9716 62.0652C18.6079 61.4289 19.4709 61.0714 20.3707 61.0714H40.8229C41.7227 61.0714 42.5857 61.4289 43.222 62.0652C43.8583 62.7015 44.2157 63.5644 44.2157 64.4643V73.0143C44.2157 73.9141 43.8583 74.7771 43.222 75.4134C42.5857 76.0497 41.7227 76.4071 40.8229 76.4071H20.3707C19.4709 76.4071 18.6079 76.0497 17.9716 75.4134C17.3353 74.7771 16.9779 73.9141 16.9779 73.0143Z" fill="#2C4569"/>
</g>
<defs>
<clipPath id="clip0_256_2152">
<rect width="95" height="95" fill="white"/>
</clipPath>
</defs>
</svg>
