<svg width="80" height="80" viewBox="0 0 80 80" fill="none" xmlns="http://www.w3.org/2000/svg">
<path d="M51.9842 4.34375C51.7811 4.5625 51.7186 4.9375 51.7186 5.9375V7.23437L50.703 6.26562C49.8124 5.40625 49.6249 5.29687 49.2499 5.375C48.6561 5.53125 45.3124 8.89062 45.3124 9.35937C45.3124 9.57812 45.6717 10.0937 46.2811 10.7187L47.2342 11.7187H45.9061C44.0155 11.7187 44.0624 11.6406 44.0624 14.9375C44.0624 16.7969 44.1249 17.6562 44.2499 17.7812C44.3749 17.9062 44.953 17.9687 45.8436 17.9687H47.2342L46.2811 18.9687C45.6717 19.5937 45.3124 20.1094 45.3124 20.3281C45.3124 20.8438 48.828 24.375 49.3592 24.375C49.6405 24.375 50.0624 24.0781 50.7342 23.4063L51.7186 22.4375V23.7969C51.7186 25.7969 51.703 25.7813 54.8124 25.7813C58.0155 25.7813 57.9686 25.8125 57.9686 23.8594V22.4375L58.953 23.4063C59.6249 24.0625 60.0467 24.375 60.3124 24.375C60.8436 24.375 64.3749 20.875 64.3749 20.3438C64.3749 20.1094 64.0311 19.625 63.4061 18.9687L62.453 17.9687H63.8749C65.8124 17.9687 65.7811 18.0156 65.7811 14.8125C65.7811 11.7031 65.7967 11.7187 63.7967 11.7187H62.4374L63.4061 10.7344C64.0624 10.0781 64.3749 9.64062 64.3749 9.375C64.3749 9.10937 63.8749 8.48437 62.5155 7.14062C60.328 4.95312 60.3124 4.95312 58.8749 6.375L57.9686 7.25V5.96875C57.9686 3.96875 58.1249 4.0625 54.9374 4.0625C52.5155 4.0625 52.203 4.09375 51.9842 4.34375ZM56.2811 7.375L56.328 8.98437L56.8749 9.25C57.8749 9.73437 58.2499 9.64062 59.328 8.5625L60.3124 7.59375L61.2499 8.51562L62.1874 9.4375L61.1717 10.4687C60.5155 11.125 60.1561 11.625 60.1561 11.8437C60.1561 12.3281 60.703 13.375 61.0155 13.5C61.1561 13.5469 61.8749 13.5937 62.5936 13.5937H63.9061V14.9219V16.25H62.4686C61.6717 16.25 60.9374 16.3125 60.8436 16.375C60.6092 16.5156 60.1561 17.6094 60.1561 18C60.1561 18.1719 60.6092 18.7812 61.1717 19.3594L62.1874 20.4062L61.2811 21.2969L60.3749 22.1875L59.453 21.25C58.9374 20.7188 58.3592 20.2656 58.1561 20.2188C57.7811 20.1094 56.5624 20.5469 56.3749 20.8281C56.3124 20.9375 56.2499 21.6719 56.2499 22.4531V23.9063H54.9217H53.5936V22.5625C53.5936 21.8281 53.5311 21.1094 53.4374 20.9531C53.2811 20.6562 52.2342 20.1562 51.7655 20.1562C51.6092 20.1562 51.0311 20.6094 50.4686 21.1719L49.4374 22.1875L48.5155 21.25L47.5936 20.3125L48.5624 19.3281C49.6405 18.25 49.7342 17.875 49.2499 16.875L48.9842 16.3281L47.3749 16.2812L45.7811 16.2344V14.9219V13.5937H47.1249C48.6561 13.5937 48.9999 13.4531 49.3124 12.7344C49.703 11.7812 49.6092 11.4531 48.5624 10.375L47.5936 9.35937L48.4842 8.46875L49.3749 7.57812L50.3592 8.5625C51.4217 9.60937 51.7499 9.71875 52.7342 9.3125C53.453 9 53.5936 8.65625 53.5936 7.125V5.78125H54.9217H56.2342L56.2811 7.375Z" fill="#212C60"/>
<path d="M53.4687 10.9062C51.3281 11.6719 50.1874 13.9844 50.8593 16.1406C51.4062 17.8594 52.7187 18.8906 54.5468 19.0312C56.9687 19.2031 58.8281 17.625 59.0312 15.2187C59.1718 13.4531 58.4062 12.0156 56.9062 11.2031C55.8437 10.625 54.5781 10.5156 53.4687 10.9062ZM55.9374 12.7344C56.8906 13.2188 57.4687 14.4844 57.1874 15.4687C56.8593 16.5937 55.4687 17.5 54.4218 17.25C53.8124 17.1094 53.0156 16.4844 52.7187 15.9062C52.3906 15.2656 52.4999 14.0938 52.9374 13.4844C53.5781 12.5781 54.9687 12.2344 55.9374 12.7344Z" fill="#212C60"/>
<path d="M23.3124 6.28126C23.0624 6.53126 23.078 7.46876 23.3593 9.84376C23.7187 12.875 23.7968 12.5938 22.2343 13.8438C21.4999 14.4375 20.7968 14.9844 20.6718 15.0469C20.4374 15.1875 17.3437 12.7813 17.3437 12.4531C17.3437 12.3438 17.4218 11.2813 17.4999 10.0938C17.6405 8.18751 17.6249 7.87501 17.4062 7.53126C17.1718 7.18751 17.078 7.15626 16.3593 7.25001C14.3593 7.48439 12.4843 9.01564 11.4062 11.2813C10.3905 13.4219 9.95304 15.125 9.93741 17.0469L9.92179 18.7188L11.0155 20.8438C12.0937 22.9688 12.0937 23 12.1562 24.4531C12.1874 25.25 12.1405 26.3906 12.0468 26.9844C11.9374 27.5625 10.203 34.2344 8.18741 41.7969C4.10929 57 4.21866 56.4375 5.04679 58.0781C6.59366 61.125 11.1874 61.3125 12.8749 58.3906C13.1093 57.9688 14.3749 53.5313 16.3124 46.3281C17.9843 40.0469 19.6093 34.2188 19.8905 33.3594C21.4218 28.875 22.6718 26.6094 25.2812 23.6094C27.0624 21.5781 27.578 20.8281 28.3437 19.2031C29.9687 15.7813 30.1405 12 28.7968 9.68751C28.0937 8.48439 26.9374 7.40626 25.6249 6.73439C24.3905 6.07814 23.6562 5.93751 23.3124 6.28126ZM26.4374 9.64064C28.1718 11.4219 28.3905 14.3438 27.0468 17.6563C26.3905 19.2656 25.7968 20.1719 24.1249 22.1094C21.6405 24.9844 20.3437 27.1094 19.078 30.2656C17.9062 33.2344 17.6405 34.1719 13.0312 51.4844C11.5624 57.0313 11.4843 57.2813 10.9374 57.8438C9.92179 58.875 8.45304 58.9531 7.34366 58.0313C6.70304 57.4844 6.40616 56.875 6.40616 56.1094C6.40616 55.7656 7.95304 49.7031 9.85929 42.625C14.1249 26.6875 13.953 27.4531 13.9687 24.9219C13.9687 22.6875 13.7655 21.8281 12.828 20.3125C12.4062 19.6406 12.3905 19.5313 12.6249 19.4688C12.7655 19.4219 14.6093 18.9219 16.7187 18.3594C18.828 17.7969 20.6874 17.2813 20.8593 17.2031C21.3593 16.9844 25.328 13.75 25.4218 13.4688C25.5155 13.2344 25.2187 9.50001 25.0468 8.76564L24.953 8.37501L25.4062 8.70314C25.6562 8.89064 26.1249 9.31251 26.4374 9.64064ZM15.6249 11.2031C15.5468 12.25 15.5312 13.2344 15.5624 13.3906C15.6093 13.5625 16.2655 14.1719 17.0312 14.7656C17.7968 15.375 18.4218 15.8906 18.4374 15.9375C18.4374 15.9844 17.0155 16.3906 15.2655 16.8594C13.5312 17.3281 12.0155 17.7344 11.9218 17.7656C11.5624 17.9063 11.6874 16.0938 12.1093 14.5938C12.8749 11.9844 13.6405 10.6719 14.9374 9.75001C15.3437 9.45314 15.703 9.23439 15.7187 9.26564C15.7499 9.28126 15.703 10.1563 15.6249 11.2031Z" fill="#212C60"/>
<path d="M17.4844 19.2031C16.0469 19.5937 14.7656 20.0156 14.625 20.1406C14.4844 20.25 14.375 20.5 14.375 20.6875C14.3906 21.2969 15.2813 24.25 15.4844 24.3906C15.875 24.625 16.4063 24.5469 19.1875 23.7969C22.5313 22.9062 22.4219 23.0312 21.8125 20.6562C21.3438 18.8281 21.0938 18.4219 20.4844 18.4531C20.2656 18.4687 18.9063 18.7969 17.4844 19.2031ZM19.8906 20.5781C19.9375 20.6562 20.0156 20.9219 20.0625 21.1875L20.1719 21.6719L18.5 22.0937C17.5938 22.3437 16.7813 22.4687 16.7188 22.4062C16.6406 22.3281 16.5625 22.0625 16.5313 21.8125C16.4844 21.3594 16.5 21.3594 18.0469 20.9219C19.8594 20.4219 19.8125 20.4375 19.8906 20.5781Z" fill="#212C60"/>
<path d="M16.0313 27.2344C15.7031 27.4844 9.79688 49.2656 9.92188 49.7969C10.0938 50.5469 11.2656 50.6562 11.5625 49.9531C11.7344 49.5625 17.5 28.0625 17.5 27.8281C17.5 27.5469 16.9063 27.0312 16.5938 27.0312C16.4375 27.0312 16.1875 27.125 16.0313 27.2344Z" fill="#212C60"/>
<path d="M35.3906 23.2344C33.3593 23.5 31.4062 24.5156 29.7656 26.1719C28.4062 27.5156 27.75 28.5938 27.1875 30.3906C26.875 31.3438 26.8125 31.9219 26.7656 34.7656L26.6875 38.0469L26.25 38.5156C25.6875 39.125 25.5625 39.5625 25.7812 40.25C26 40.875 26.4062 41.0938 27.4062 41.0938H28.0937L28.2031 42.9219C28.3281 44.9219 28.6562 46.4375 29.2968 47.8906C29.7656 48.9531 31.0312 50.8281 31.7187 51.4844C32.1718 51.9063 32.1875 52 32.1875 53.1875V54.4531L26.125 56.5469C22.7968 57.7031 19.5937 58.875 18.9843 59.1406C16.2812 60.375 14.2968 62.625 13.3281 65.5469C12.9375 66.7344 12.9062 67 12.8593 70.4688C12.7968 74.5938 12.8437 74.8906 13.8906 75.5781L14.4218 75.9375H38.9843H63.5468L64.0781 75.5781C65.0625 74.9219 65.1562 74.5156 65.1562 71.0938C65.1406 67.75 64.9531 66.2656 64.3281 64.7344C63.5 62.7031 61.7968 60.7344 59.875 59.6094C59.1562 59.1875 56.7187 58.2656 52.2968 56.7188L45.7812 54.4531V53.25V52.0313L46.7343 50.8906C48.6562 48.6094 49.6875 45.7656 49.6875 42.7813V41.0938H50.4687C51.5 41.0938 52 40.8438 52.1718 40.25C52.3281 39.625 52.1406 38.9531 51.6406 38.4375C51.25 38.0313 51.25 37.9844 51.25 35.5938C51.25 34.25 51.1718 32.5938 51.0781 31.9219C50.625 28.5938 48.5 25.6406 45.5468 24.2188C43.6875 23.3281 42.4375 23.125 38.875 23.1406C37.2187 23.1563 35.6562 23.2031 35.3906 23.2344ZM43.1093 25.2344C44.5781 25.625 45.6562 26.25 46.8125 27.4063C48.75 29.3438 49.375 31.0469 49.375 34.4844C49.375 35.625 49.3437 36.5625 49.3125 36.5625C49.2656 36.5625 48.7343 36.2813 48.0937 35.9531C45.2968 34.4531 42.8437 33.9063 38.9843 33.9063C35.125 33.9063 32.6718 34.4531 29.875 35.9531C29.2343 36.2813 28.7031 36.5625 28.6562 36.5625C28.625 36.5625 28.5937 35.5938 28.5937 34.4063C28.5937 30.9531 29.1406 29.4219 31.0781 27.4844C32.2968 26.2656 33.3593 25.625 34.7968 25.2344C35.8906 24.9375 41.9843 24.9219 43.1093 25.2344ZM41.8125 35.7969C44.125 36.1094 47.0937 37.2969 48.9843 38.6563L49.7656 39.2188H39.0156C33.1093 39.2188 28.2812 39.1875 28.2812 39.1563C28.2812 39.125 28.8437 38.7344 29.5312 38.2813C31.4687 37.0469 33.9375 36.0938 36.0156 35.7969C37.375 35.5938 40.4218 35.5938 41.8125 35.7969ZM47.9687 42.25C47.9687 46.1406 46.1718 49.6094 43.1093 51.6406C40.1875 53.5938 37.7656 53.6094 34.9062 51.6875C31.8125 49.625 30 46.1719 30 42.3438V41.0938H38.9843H47.9687V42.25ZM36.5625 54.5625C38.5156 55.2344 40.8125 55 42.8906 53.9219C43.3281 53.7031 43.7187 53.5 43.7968 53.4688C43.8593 53.4375 43.9062 53.6875 43.9062 54.0313V54.6406L41.4218 56.2969L38.9531 57.9375L36.4375 56.2813L33.9062 54.6094V53.9531V53.3125L34.7343 53.7656C35.1718 54.0156 36 54.375 36.5625 54.5625ZM35.4375 57.7813C36.3906 58.4219 37.1875 59 37.1875 59.0625C37.1875 59.2969 34.9531 60.6563 34.6718 60.5781C34.2656 60.4688 29.5312 57.4531 29.625 57.3438C29.6718 57.3125 30.4218 57.0156 31.2968 56.7031C32.7968 56.1563 32.9062 56.1406 33.2812 56.375C33.5 56.5 34.4687 57.1406 35.4375 57.7813ZM48.3125 57.3281C48.4375 57.4375 43.4531 60.625 43.1562 60.625C42.875 60.625 40.7656 59.1875 40.8125 59.0313C40.8437 58.9688 41.7968 58.2813 42.9531 57.5156L45.0468 56.125L46.625 56.6719C47.5 56.9844 48.25 57.2813 48.3125 57.3281ZM30.5781 60.2656C33.7968 62.3125 34.0312 62.4219 34.7812 62.4219C35.4218 62.4219 35.7343 62.3125 36.4218 61.8594C36.8906 61.5625 37.4531 61.1719 37.7031 61.0313L38.125 60.75V63.8906V67.0313H33.9218H29.7343L27.4375 63.0625C26.1875 60.875 25.1562 59.0313 25.1562 58.9531C25.1562 58.875 25.5937 58.6563 26.1406 58.4844C26.6718 58.2969 27.125 58.1406 27.1406 58.1406C27.1562 58.125 28.7031 59.0938 30.5781 60.2656ZM51.9218 58.5313C52.4062 58.6875 52.8125 58.8594 52.8125 58.9375C52.8125 59.0156 51.7812 60.8594 50.5156 63.0469L48.2031 67.0313H44.0312H39.8437V63.8906V60.75L40.2812 61.0313C40.5156 61.1719 41.0781 61.5625 41.5468 61.8594C42.2343 62.3125 42.5468 62.4219 43.1875 62.4219C43.9375 62.4219 44.1562 62.3125 47.3437 60.2813C49.1875 59.1094 50.7812 58.1563 50.8593 58.1875C50.9531 58.2188 51.4218 58.375 51.9218 58.5313ZM25.4062 63.2188C26.5468 65.1875 27.5 66.8438 27.5 66.9063C27.5 66.9844 27.0468 67.0313 26.5 67.0313H25.5L23.5156 63.5938C22.4218 61.6875 21.5468 60.125 21.5781 60.0938C21.7187 59.9844 23.0625 59.5625 23.1875 59.5938C23.2656 59.6094 24.2656 61.2344 25.4062 63.2188ZM55.5625 59.7813C55.9843 59.9219 56.3437 60.0625 56.375 60.0938C56.4062 60.1094 55.5312 61.6875 54.4375 63.5781L52.4531 67.0313H51.3906H50.3437L52.2968 63.625C54.375 60.0156 54.6718 59.5313 54.7343 59.5313C54.7656 59.5313 55.1406 59.6406 55.5625 59.7813ZM21.5312 63.8281C22.4843 65.5 23.2812 66.8906 23.2812 66.9219C23.2812 66.9688 22.9218 67.0313 22.4843 67.0625C21.6562 67.1406 21.0937 67.4688 20.5625 68.1875C20.2656 68.5781 20.2343 68.875 20.1875 71.4219L20.1406 74.2188H17.5937C15.5625 74.2188 15 74.1719 14.8593 74C14.7187 73.8281 14.6875 72.8281 14.7187 70.2813C14.7656 66.9063 14.7812 66.7656 15.2031 65.6875C15.8125 64.1406 17.0312 62.5938 18.4218 61.6094C19.0468 61.1563 19.6093 60.7813 19.6718 60.7813C19.7187 60.7813 20.5625 62.1563 21.5312 63.8281ZM59.4843 61.5469C61.2343 62.7813 62.5 64.6094 63.0312 66.6719C63.3437 67.875 63.3906 73.7344 63.0937 74.0313C62.9687 74.1563 62.125 74.2188 60.3593 74.2188H57.8125V71.625C57.8125 69.5469 57.7656 68.9219 57.5625 68.4844C57.1718 67.7031 56.375 67.1563 55.4687 67.0625C55.0312 67.0313 54.6875 66.9531 54.6875 66.9219C54.6875 66.75 58.1875 60.7813 58.2812 60.7813C58.3437 60.7813 58.875 61.125 59.4843 61.5469ZM55.7031 69.1406C56.0781 69.5 56.0937 69.5781 56.0937 71.875V74.2188H38.9843H21.875V71.875C21.875 69.5781 21.8906 69.5 22.2656 69.1406L22.6406 68.75H38.9843H55.3281L55.7031 69.1406Z" fill="#212C60"/>
<path d="M61.7032 33.0781C61.5625 33.2344 61.4688 33.8281 61.4219 34.6406L61.375 35.9531L60.3907 35.0156C59.8438 34.4844 59.2813 34.0625 59.125 34.0625C58.9844 34.0625 58.0313 34.8906 57 35.8906C54.7344 38.125 54.7188 38.2187 56.0469 39.5625L56.9375 40.4687H55.6875C53.7188 40.4687 53.75 40.4062 53.75 43.5937C53.75 45.7812 53.7969 46.2656 54 46.4687C54.1875 46.6562 54.5782 46.7187 55.6719 46.7187H57.0938L56.125 47.7031C54.7188 49.125 54.7344 49.2031 56.9219 51.375C59.0782 53.5 59.1563 53.5156 60.4688 52.25L61.375 51.3906L61.4219 52.7344C61.5 54.5625 61.4532 54.5312 64.5313 54.5312C67.7032 54.5312 67.6563 54.5625 67.6563 52.625V51.2031L68.6563 52.1562C70.0938 53.5312 70.1407 53.5312 72.2969 51.3594C74.4844 49.1719 74.4844 49.1094 73.0938 47.7031L72.125 46.7187H73.5313C75.5157 46.7187 75.4688 46.7969 75.4688 43.625C75.4688 40.4687 75.4688 40.4687 73.5625 40.4687H72.2969L73.1719 39.5469C74.4844 38.1875 74.4532 38.1094 72.2188 35.8906C71.1875 34.8906 70.2344 34.0625 70.0938 34.0625C69.9375 34.0625 69.3282 34.5312 68.7344 35.1094L67.6563 36.1406V34.6719C67.6563 33.7187 67.5938 33.125 67.4688 33C67.3438 32.875 66.4688 32.8125 64.5938 32.8125C62.2969 32.8125 61.8907 32.8437 61.7032 33.0781ZM65.9375 35.9219C65.9375 36.6875 65.9844 37.4375 66.0313 37.5781C66.1563 37.875 67.0625 38.2812 67.625 38.2812C67.9219 38.2812 68.3282 38 69.0157 37.3125L70 36.3437L70.9375 37.2656L71.875 38.1875L70.8594 39.2344C70.2969 39.8125 69.8438 40.3906 69.8438 40.5156C69.8438 40.9531 70.4375 42.1406 70.7032 42.25C70.8438 42.2969 71.5625 42.3437 72.2813 42.3437H73.5938V43.6719V44.9844L72.0782 45.0312L70.5469 45.0781L70.2032 45.7812C70 46.1562 69.8438 46.5937 69.8438 46.75C69.8438 46.9062 70.2969 47.5 70.8594 48.0937L71.8594 49.1562L70.9688 50.0469L70.0625 50.9375L69.1407 50C68.0938 48.9375 67.7188 48.7812 66.9844 49.0781C66 49.4531 65.9375 49.5937 65.9375 51.2031V52.6562H64.6094H63.2969L63.25 51.1406L63.2032 49.625L62.5782 49.2656C61.5938 48.7031 61.3125 48.7812 60.1563 49.9219L59.125 50.9375L58.2032 50L57.2813 49.0781L58.3438 47.9687C59.5 46.7812 59.5469 46.6094 58.9219 45.5469C58.6563 45.0781 58.6563 45.0781 57.0625 45.0312L55.4688 44.9844V43.6719V42.3437H56.9219C57.8594 42.3437 58.4688 42.2656 58.625 42.1406C58.8594 41.9531 59.375 40.7812 59.375 40.4531C59.375 40.3594 58.9063 39.7969 58.3282 39.2031L57.2813 38.1094L58.1719 37.2344L59.0469 36.3437L60.0625 37.3125C60.8594 38.0781 61.1719 38.2812 61.5625 38.2812C62.0625 38.2812 62.9688 37.8906 63.1563 37.5937C63.2188 37.5 63.2813 36.7656 63.2813 35.9687V34.5312H64.6094H65.9375V35.9219Z" fill="#212C60"/>
<path d="M63.4218 39.5781C62.2343 39.9219 61.1718 40.8437 60.6874 42.0156C60.5468 42.3281 60.4374 43.0469 60.4374 43.625C60.4062 46.0469 62.1406 47.7656 64.6093 47.7969C66.1249 47.8125 67.4531 47.0469 68.3124 45.6562C68.8281 44.8125 68.8906 42.9687 68.4374 41.9062C68.0624 41.0312 67.1406 40.0937 66.3281 39.75C65.5468 39.4375 64.2343 39.3594 63.4218 39.5781ZM65.6093 41.4844C66.7656 42.0781 67.2499 43.2812 66.7968 44.4531C66.4999 45.25 65.9999 45.7031 65.1406 45.9531C64.3281 46.2031 63.2812 45.8125 62.6874 45.0312C62.1406 44.3125 62.0937 43.0625 62.5937 42.3906C63.3749 41.3437 64.6249 40.9687 65.6093 41.4844Z" fill="#212C60"/>
</svg>
