<svg width="90" height="90" viewBox="0 0 90 90" fill="none" xmlns="http://www.w3.org/2000/svg">
<g clip-path="url(#clip0_256_1316)">
<path d="M20.9069 0.450439C21.0825 0.447041 21.2582 0.443642 21.4391 0.44014C22.744 0.653435 23.4506 1.67134 24.2248 2.64771C24.3332 2.78195 24.4416 2.91619 24.5533 3.0545C24.7691 3.32173 24.9842 3.58941 25.1988 3.85757C25.5589 4.30696 25.9242 4.75193 26.2902 5.19653C27.2155 6.3287 28.1368 7.46402 29.0584 8.59912C29.5382 9.18989 30.0181 9.78049 30.498 10.3711C30.6884 10.6055 30.8789 10.8398 31.0693 11.0742C31.2107 11.2482 31.2107 11.2482 31.3549 11.4258C32.2119 12.4805 32.2119 12.4805 32.4977 12.8322C32.6875 13.0659 32.8774 13.2996 33.0673 13.5332C33.5522 14.13 34.037 14.7269 34.5217 15.3239C34.6198 15.4446 34.7179 15.5653 34.8189 15.6897C35.0123 15.9279 35.2056 16.1663 35.3988 16.4048C35.8284 16.9348 36.2598 17.4626 36.6998 17.9839C36.843 18.1546 36.9862 18.3252 37.1337 18.501C37.2579 18.6469 37.3821 18.7928 37.51 18.9432C38.0075 19.6339 37.9906 20.2756 37.9898 21.1113C37.9902 21.4411 37.9902 21.4411 37.9906 21.7775C37.99 22.0207 37.9893 22.2639 37.9887 22.507C37.9886 22.7635 37.9886 23.0199 37.9887 23.2763C37.9888 23.9721 37.9878 24.6679 37.9865 25.3637C37.9854 26.0909 37.9853 26.8182 37.9851 27.5455C37.9846 28.9225 37.9831 30.2996 37.9814 31.6766C37.9794 33.2444 37.9784 34.8122 37.9776 36.3799C37.9757 39.6049 37.9726 42.8298 37.9687 46.0547C38.091 46.0535 38.2132 46.0523 38.3392 46.0511C39.5025 46.0405 40.6658 46.0325 41.8291 46.0274C42.4269 46.0246 43.0247 46.021 43.6225 46.0149C44.3128 46.0084 45.0031 46.0055 45.6935 46.0032C45.9038 46.0005 46.1141 45.9977 46.3308 45.9949C49.7784 45.9943 52.6444 47.0646 55.2232 49.329C55.3497 49.44 55.4762 49.551 55.6065 49.6653C55.7028 49.75 55.7992 49.8346 55.8984 49.9219C55.8988 49.7301 55.8988 49.7301 55.8992 49.5344C55.9057 46.4118 55.9161 43.2892 55.9307 40.1666C55.9377 38.6565 55.9434 37.1464 55.946 35.6362C55.9483 34.3188 55.9531 33.0013 55.9607 31.6839C55.9647 30.9874 55.9675 30.291 55.9673 29.5945C55.9671 28.9366 55.9704 28.2787 55.9759 27.6208C55.9781 27.2691 55.9769 26.9174 55.9755 26.5657C56.0206 22.5689 57.5896 19.0191 60.3224 16.1142C63.5961 13.0257 67.5383 11.9852 71.952 12.105C73.7458 12.1964 75.3806 12.7679 76.9921 13.5352C77.1528 13.6088 77.3135 13.6824 77.479 13.7583C78.8767 14.4522 79.9425 15.4324 81.0351 16.5234C81.1659 16.6521 81.2966 16.7808 81.4313 16.9135C83.8242 19.4235 84.9636 22.8532 85.155 26.2683C85.1386 26.9034 85.0829 27.063 84.7155 27.6196C84.0675 28.0333 83.7243 28.0729 82.9687 27.9492C82.5261 27.6536 82.305 27.4075 82.1775 26.8849C82.1142 26.431 82.0674 25.9775 82.0239 25.5212C81.6403 22.3439 80.3616 19.6766 77.871 17.5781C75.703 15.9731 73.3096 15.0434 70.6091 15.0623C70.3907 15.0634 70.3907 15.0634 70.168 15.0645C68.9855 15.0861 67.9184 15.2579 66.7968 15.6445C66.6461 15.6935 66.4955 15.7424 66.3402 15.7928C65.1869 16.2064 64.2458 16.8306 63.2812 17.5781C63.1559 17.6742 63.0306 17.7703 62.9015 17.8693C60.6915 19.6747 59.3607 22.5046 59.0196 25.3136C58.9502 26.1824 58.9459 27.052 58.9408 27.9231C58.9367 28.2096 58.9323 28.4961 58.9276 28.7826C58.9163 29.553 58.9095 30.3234 58.9043 31.0939C58.9011 31.5777 58.8971 32.0615 58.8931 32.5453C58.8807 34.0662 58.8714 35.5871 58.8663 37.1081C58.8604 38.8506 58.8435 40.5926 58.817 42.3349C58.7972 43.6909 58.7877 45.0466 58.7858 46.4026C58.7844 47.2085 58.7788 48.0138 58.7622 48.8195C58.6875 52.6349 58.8087 55.2757 61.3777 58.313C61.8804 58.9353 62.2759 59.6137 62.677 60.304C63.4726 61.6241 64.2964 62.925 65.1267 64.2235C66.0631 65.6895 66.9848 67.1643 67.9025 68.642C68.0083 68.8119 68.114 68.9818 68.223 69.1569C68.3169 69.3081 68.4108 69.4593 68.5075 69.6151C68.7044 69.9473 68.7044 69.9473 68.9062 70.1367C69.3564 67.8418 69.8895 64.9122 68.6197 62.806C67.1777 60.8723 65.2836 59.2431 63.4137 57.7333C62.4465 56.929 62.4465 56.929 62.2086 56.113C62.2265 55.5469 62.2265 55.5469 62.4792 55.0305C62.9792 54.6281 63.319 54.518 63.9632 54.5613C64.4137 54.6902 64.6363 54.872 64.9813 55.1878C65.1031 55.299 65.2248 55.4102 65.3502 55.5248C66.0491 56.1911 66.733 56.8711 67.4121 57.5574C67.5566 57.7027 67.7012 57.8481 67.8501 57.9979C68.2026 58.3523 68.5546 58.7072 68.9062 59.0625C69.0988 57.2633 69.2286 55.4651 69.3017 53.6572C69.3071 53.5247 69.3124 53.3923 69.318 53.2558C69.4333 50.0198 69.3835 47.358 67.092 44.849C65.8016 43.556 64.3706 42.4056 62.8606 41.3795C62.5256 41.087 62.3826 40.845 62.2265 40.4297C62.2492 39.7827 62.2654 39.3624 62.6879 38.8586C63.2851 38.5915 63.6848 38.5986 64.3359 38.6719C64.7675 38.9957 65.0926 39.2838 65.4558 39.6716C65.5555 39.7731 65.6552 39.8745 65.7579 39.979C66.0743 40.3023 66.3861 40.6295 66.698 40.957C66.9122 41.1775 67.1268 41.3977 67.3417 41.6176C67.8665 42.156 68.3874 42.698 68.9062 43.2422C68.9068 43.1164 68.9075 42.9906 68.9081 42.8611C68.9148 41.6739 68.9248 40.4869 68.9385 39.2998C68.9455 38.6896 68.9511 38.0794 68.9538 37.4691C68.957 36.767 68.9658 36.065 68.9749 35.3629C68.9751 35.1445 68.9753 34.926 68.9755 34.7009C68.979 34.4968 68.9825 34.2928 68.986 34.0826C68.9876 33.9034 68.9892 33.7242 68.9908 33.5396C69.106 32.9169 69.3488 32.6191 69.7851 32.168C70.3217 31.9616 70.5828 31.9695 71.1364 32.124C71.5429 32.3438 71.5429 32.3438 71.8945 32.8711C71.9434 33.3349 71.9434 33.3349 71.9505 33.8991C71.9558 34.2158 71.9558 34.2158 71.9611 34.5389C71.9642 34.8808 71.9642 34.8808 71.9673 35.2297C71.9706 35.4654 71.974 35.7011 71.9776 35.9369C71.9866 36.5567 71.9936 37.1766 72.0001 37.7964C72.0071 38.4292 72.0161 39.0619 72.0249 39.6946C72.042 40.9357 72.0568 42.1768 72.0703 43.418C72.2592 43.2277 72.2592 43.2277 72.452 43.0335C72.9187 42.5636 73.3859 42.0943 73.8534 41.6252C74.0558 41.4219 74.258 41.2185 74.4601 41.0149C74.7502 40.7226 75.041 40.4309 75.3318 40.1392C75.4223 40.0479 75.5128 39.9565 75.606 39.8624C76.4146 39.0536 76.4146 39.0536 77.135 38.9575C77.6953 39.0234 77.6953 39.0234 78.2006 39.397C78.5742 39.9023 78.5742 39.9023 78.706 40.3967C78.4199 41.6126 77.4124 42.3365 76.4163 43.0043C74.4708 44.329 72.4528 45.8992 71.9233 48.3043C71.3798 51.9327 71.7568 55.7781 72.0703 59.4141C72.196 59.2809 72.3218 59.1478 72.4514 59.0107C72.9208 58.5157 73.3949 58.0255 73.8706 57.5365C74.0754 57.3246 74.279 57.1115 74.4812 56.8971C74.7728 56.5883 75.0689 56.2843 75.3662 55.9808C75.4995 55.8367 75.4995 55.8367 75.6355 55.6896C76.1383 55.1861 76.5073 54.9572 77.2084 54.9368C77.871 55.0195 77.871 55.0195 78.3215 55.3821C78.6662 56.0865 78.6393 56.381 78.3984 57.1289C77.8305 57.9805 77.0762 58.6215 76.2722 59.2392C74.1898 60.8503 72.1031 62.4868 71.7442 65.2364C71.5617 67.4546 71.683 69.6825 71.8945 71.8945C72.4004 71.7593 72.9059 71.6227 73.4113 71.4853C73.5535 71.4474 73.6956 71.4096 73.8421 71.3705C76.7146 70.5855 78.917 68.7712 80.5078 66.2695C81.5695 64.3267 82.1106 62.304 82.1129 60.09C82.1133 59.9695 82.1136 59.8491 82.114 59.725C82.1151 59.3248 82.1149 58.9246 82.1147 58.5244C82.1153 58.2361 82.1159 57.9479 82.1166 57.6596C82.118 57.0406 82.1189 56.4216 82.1194 55.8025C82.1205 54.8239 82.1234 53.8452 82.1267 52.8666C82.1278 52.5312 82.1289 52.1958 82.1301 51.8604C82.1306 51.6925 82.1312 51.5247 82.1317 51.3517C82.1391 49.0743 82.1449 46.797 82.1471 44.5197C82.1486 42.9817 82.1525 41.4438 82.1593 39.9059C82.1628 39.0924 82.1649 38.2789 82.1641 37.4654C82.1632 36.7012 82.1657 35.9369 82.1706 35.1727C82.1718 34.8921 82.1718 34.6114 82.1705 34.3308C82.169 33.9481 82.1717 33.5656 82.1755 33.1829C82.1762 32.8616 82.1762 32.8616 82.1768 32.5337C82.2825 31.8888 82.4576 31.6827 82.9687 31.2891C83.3203 31.1895 83.3203 31.1895 83.6718 31.1902C83.8459 31.1844 83.8459 31.1844 84.0234 31.1785C84.5788 31.3532 84.7623 31.6897 85.0781 32.168C85.1661 32.7262 85.1661 32.7262 85.1662 33.368C85.1672 33.4865 85.1681 33.605 85.1691 33.7271C85.1715 34.1232 85.1689 34.519 85.1663 34.9151C85.1669 35.1996 85.1679 35.4841 85.1692 35.7686C85.1716 36.5412 85.1696 37.3138 85.1667 38.0864C85.1643 38.8974 85.1654 39.7085 85.1661 40.5195C85.1665 41.8837 85.1642 43.2479 85.1601 44.6121C85.1554 46.1827 85.1551 47.7531 85.1572 49.3237C85.1591 50.8395 85.158 52.3554 85.1555 53.8712C85.1545 54.5134 85.1545 55.1556 85.1553 55.7978C85.1562 56.5579 85.1544 57.318 85.1506 58.0781C85.1496 58.3546 85.1495 58.6311 85.1504 58.9077C85.158 61.6014 84.8829 64.1747 83.6718 66.6211C83.5982 66.779 83.5245 66.937 83.4487 67.0997C81.8372 70.3273 78.9596 72.7821 75.5859 74.0039C74.3725 74.409 73.1855 74.7562 71.8945 74.707C72.4661 76.0332 73.117 76.8951 74.477 77.4509C75.2348 77.7224 75.963 77.8007 76.7614 77.8601C80.2573 78.1918 83.2206 79.6196 85.5505 82.2766C86.5608 83.56 87.3736 85.1093 87.8906 86.6602C88.2439 86.7825 88.2439 86.7825 88.6596 86.8359C89.2773 86.9325 89.621 87.0238 90 87.5391C90.1353 88.7573 90.1353 88.7573 89.7347 89.3137C89.1229 89.7814 88.568 89.7456 87.8287 89.7369C87.6785 89.7379 87.5283 89.739 87.3736 89.74C86.8669 89.7426 86.3603 89.7401 85.8536 89.7377C85.4881 89.7385 85.1226 89.7397 84.757 89.7411C83.7499 89.744 82.7427 89.7425 81.7355 89.7404C80.6504 89.7388 79.5653 89.7412 78.4801 89.7432C76.4763 89.7461 74.4725 89.7458 72.4687 89.7439C70.6177 89.7422 68.7667 89.7417 66.9157 89.7425C66.7931 89.7426 66.6704 89.7426 66.544 89.7427C66.0461 89.7429 65.5481 89.7431 65.0502 89.7434C60.377 89.7455 55.7038 89.7436 51.0306 89.7398C46.8767 89.7365 42.7228 89.7367 38.5688 89.7401C33.9043 89.7439 29.2398 89.7454 24.5753 89.7432C24.0782 89.743 23.5812 89.7428 23.0842 89.7425C22.9618 89.7425 22.8394 89.7424 22.7133 89.7424C20.8632 89.7416 19.0132 89.7425 17.1631 89.7443C15.06 89.7463 12.9569 89.7457 10.8538 89.742C9.78 89.7401 8.70622 89.7394 7.63241 89.7417C6.6505 89.7438 5.66865 89.7427 4.68674 89.7389C4.33046 89.7381 3.97417 89.7385 3.61789 89.7402C3.1356 89.7424 2.65352 89.7402 2.17123 89.7369C1.9611 89.7394 1.9611 89.7394 1.74673 89.7419C1.11888 89.7333 0.771504 89.7009 0.26598 89.3133C-0.0205256 88.917 -0.0998678 88.7261 -0.0989227 88.2422C-0.102775 88.1262 -0.106627 88.0102 -0.110596 87.8906C0.069253 87.3187 0.374307 87.1495 0.87886 86.8359C1.42764 86.7516 1.96228 86.7693 2.51582 86.792C2.66277 86.7952 2.80971 86.7983 2.96111 86.8016C3.3218 86.8099 3.68239 86.8225 4.04292 86.8359C4.04097 86.6705 4.03902 86.5051 4.03701 86.3347C4.01919 84.7751 4.00601 83.2156 3.99738 81.6559C3.9928 80.8541 3.98658 80.0524 3.97662 79.2506C3.96706 78.4767 3.96181 77.7029 3.95953 76.929C3.95791 76.6338 3.95474 76.3387 3.95 76.0436C3.94361 75.6299 3.94274 75.2165 3.94314 74.8027C3.93998 74.6809 3.93682 74.5592 3.93357 74.4337C3.94077 73.7561 4.03061 73.4916 4.46518 72.9591C4.92183 72.5977 4.92183 72.5977 5.29674 72.5194C5.4123 72.538 5.52786 72.5565 5.64693 72.5757C5.7634 72.5897 5.87986 72.6038 5.99986 72.6183C6.49892 72.8542 6.61741 73.1591 6.85542 73.6524C6.90269 74.1042 6.9224 74.5117 6.91529 74.9623C6.91541 75.1554 6.91541 75.1554 6.91552 75.3524C6.91516 75.7757 6.91106 76.1988 6.90692 76.6221C6.90594 76.9164 6.90519 77.2107 6.90466 77.5051C6.90265 78.2781 6.89747 79.0511 6.89163 79.8241C6.88623 80.6136 6.88383 81.403 6.88117 82.1925C6.87552 83.7403 6.86653 85.2881 6.85542 86.8359C7.60952 86.8359 8.36363 86.8359 9.14058 86.8359C9.14058 75.9885 9.14058 65.141 9.14058 53.9648C8.38648 53.9648 7.63238 53.9648 6.85542 53.9648C6.85659 54.1369 6.85777 54.3089 6.85897 54.4861C6.86966 56.1078 6.87757 57.7294 6.88275 59.3511C6.8855 60.1848 6.88923 61.0185 6.89521 61.8522C6.90094 62.6569 6.90409 63.4615 6.90546 64.2662C6.90643 64.5731 6.90833 64.88 6.91118 65.1869C6.91501 65.617 6.91553 66.0469 6.91529 66.477C6.91719 66.6037 6.91908 66.7304 6.92104 66.8609C6.91631 67.6311 6.80171 68.118 6.32808 68.7305C5.82653 68.9812 5.47826 68.9608 4.92183 68.9063C4.45478 68.671 4.45478 68.671 4.04292 68.2031C3.90596 67.5666 3.91988 66.9357 3.92422 66.2866C3.9221 66.0889 3.91999 65.8912 3.91781 65.6875C3.91182 65.0225 3.91214 64.3577 3.91246 63.6926C3.91002 63.2168 3.90629 62.741 3.90266 62.2652C3.89468 61.105 3.89161 59.9448 3.89052 58.7846C3.88962 57.8408 3.8874 56.897 3.88424 55.9531C3.87549 53.2753 3.87063 50.5975 3.87044 47.9196C3.87043 47.7752 3.87041 47.6308 3.8704 47.4821C3.87039 47.3375 3.87038 47.1929 3.87037 47.044C3.86996 44.7046 3.86018 42.3653 3.84616 40.026C3.83187 37.6221 3.82485 35.2182 3.82525 32.8143C3.82532 31.4654 3.82241 30.1167 3.81162 28.7679C3.80247 27.6185 3.80011 26.4693 3.80631 25.3199C3.80927 24.734 3.80816 24.149 3.8006 23.5631C3.74987 19.3682 3.74987 19.3682 5.2127 17.7884C5.37875 17.6233 5.54731 17.4607 5.7184 17.3008C6.17699 16.8566 6.57071 16.3564 6.97627 15.8643C7.13734 15.675 7.2987 15.4859 7.46036 15.2971C7.97745 14.686 8.47767 14.0633 8.9751 13.4363C9.46161 12.8255 9.95763 12.2226 10.4528 11.6187C10.9693 10.9883 11.4832 10.3556 11.997 9.7229C12.0939 9.60357 12.1908 9.48424 12.2907 9.3613C12.4893 9.11669 12.688 8.87207 12.8866 8.62744C13.2717 8.15315 13.657 7.67896 14.0423 7.2048C14.2313 6.97216 14.4203 6.7395 14.6093 6.50682C15.098 5.90508 15.5872 5.30368 16.0771 4.70284C16.1769 4.58029 16.2767 4.45775 16.3795 4.33149C16.5756 4.09085 16.7717 3.85032 16.968 3.60991C17.5687 2.87209 18.1521 2.1246 18.7097 1.35338C19.3551 0.651439 19.9684 0.451647 20.9069 0.450439ZM20.9179 3.33984C20.0951 4.23101 19.3213 5.15087 18.5778 6.1084C17.8514 7.04401 17.1026 7.95543 16.3334 8.8561C15.7341 9.55875 15.1534 10.2739 14.5795 10.9973C14.2241 11.4436 13.8639 11.8855 13.5022 12.3267C12.0778 14.0648 10.6546 15.8038 9.26143 17.5671C9.17807 17.6721 9.09471 17.7771 9.00883 17.8853C8.61268 18.3014 8.61268 18.3014 8.43745 18.8086C8.61738 18.8096 8.61738 18.8096 8.80094 18.8105C10.0471 18.8179 11.293 18.8301 12.5391 18.8451C13.0044 18.85 13.4697 18.8538 13.935 18.8562C14.6031 18.86 15.271 18.8682 15.9391 18.8773C16.2522 18.8776 16.2522 18.8776 16.5716 18.8779C16.7652 18.8814 16.9587 18.8848 17.1581 18.8884C17.3286 18.89 17.4992 18.8915 17.675 18.8931C18.1054 18.9844 18.1054 18.9844 18.4275 19.316C18.6815 19.7758 18.6609 20.0092 18.5778 20.5225C18.5568 20.663 18.5357 20.8034 18.514 20.9482C18.4858 21.1073 18.4858 21.1073 18.457 21.2695C17.7942 21.4222 17.1735 21.4716 16.494 21.4814C16.2794 21.4849 16.0648 21.4884 15.8437 21.492C15.4987 21.4964 15.4987 21.4964 15.1467 21.5009C14.9075 21.5046 14.6684 21.5082 14.4292 21.512C13.8019 21.5217 13.1745 21.5304 12.5471 21.5389C11.9061 21.5477 11.2651 21.5575 10.6241 21.5672C9.36787 21.5861 8.11165 21.6039 6.85542 21.6211C6.85542 22.2012 6.85542 22.7813 6.85542 23.3789C16.1947 23.3789 25.5339 23.3789 35.1562 23.3789C35.1562 22.7988 35.1562 22.2188 35.1562 21.6211C35.0102 21.6197 34.8642 21.6183 34.7138 21.6168C33.3378 21.6031 31.9619 21.5877 30.5859 21.5706C29.8785 21.5618 29.1711 21.5536 28.4637 21.5469C27.781 21.5405 27.0983 21.5323 26.4156 21.523C26.1552 21.5197 25.8948 21.5171 25.6343 21.515C25.2694 21.5121 24.9047 21.507 24.5398 21.5014C24.3321 21.499 24.1245 21.4967 23.9105 21.4943C23.3974 21.447 23.1005 21.3783 22.6757 21.0938C22.4288 20.6 22.4562 20.2345 22.5 19.6875C22.7031 19.3076 22.7031 19.3076 23.0273 18.9844C23.4844 18.8931 23.4844 18.8931 24.0392 18.8884C24.2468 18.885 24.4544 18.8815 24.6683 18.8779C25.0045 18.8776 25.0045 18.8776 25.3475 18.8773C25.6917 18.8729 25.6917 18.8729 26.0428 18.8685C26.6522 18.8608 27.2617 18.8573 27.8712 18.8546C28.4933 18.8512 29.1154 18.8438 29.7375 18.8367C30.9578 18.8235 32.1781 18.8147 33.3984 18.8086C33.1546 18.3064 32.9018 17.8976 32.5421 17.4696C32.3922 17.2897 32.3922 17.2897 32.2392 17.1062C32.1323 16.9792 32.0254 16.8521 31.9152 16.7212C31.1245 15.7723 30.3434 14.8186 29.5861 13.8428C28.881 12.9361 28.1515 12.0543 27.4058 11.1807C26.8243 10.4988 26.26 9.80564 25.7032 9.10355C24.9104 8.10872 24.1048 7.12411 23.3015 6.13775C23.0498 5.82841 22.7985 5.51871 22.5473 5.20889C22.339 4.95262 22.339 4.95262 22.1264 4.69116C22.0063 4.5432 21.8862 4.39523 21.7625 4.24278C21.4935 3.92425 21.2185 3.62829 20.9179 3.33984ZM6.85542 26.1914C6.85542 32.8623 6.85542 39.5332 6.85542 46.4063C8.13159 46.4063 9.40777 46.4063 10.7226 46.4063C10.7292 45.811 10.7358 45.2157 10.7425 44.6024C10.7507 44.0189 10.7597 43.4353 10.7687 42.8518C10.7746 42.4497 10.7795 42.0475 10.7835 41.6454C10.8221 37.8855 11.0599 34.4581 13.8867 31.6406C15.1174 30.64 16.4022 29.8241 17.9296 29.3555C18.0488 29.3163 18.168 29.2771 18.2908 29.2367C21.0148 28.4812 23.8767 29.0855 26.3088 30.4088C28.4352 31.6901 29.9982 33.7746 30.6744 36.1733C30.9536 37.3044 30.9977 38.3954 31.0102 39.557C31.0153 39.8521 31.0153 39.8521 31.0206 40.1532C31.031 40.7763 31.0392 41.3995 31.0473 42.0227C31.054 42.4474 31.0609 42.8721 31.0679 43.2968C31.085 44.3333 31.099 45.3697 31.1132 46.4063C32.4474 46.4063 33.7816 46.4063 35.1562 46.4063C35.1562 39.7354 35.1562 33.0645 35.1562 26.1914C25.8169 26.1914 16.4777 26.1914 6.85542 26.1914ZM15.3149 34.1043C13.9025 35.8981 13.4777 37.7028 13.5008 39.9518C13.5011 40.1162 13.5015 40.2807 13.5019 40.4501C13.5037 41.0586 13.5086 41.667 13.5131 42.2754C13.5204 43.6386 13.5276 45.0018 13.5351 46.4063C18.4078 46.4063 23.2804 46.4063 28.3007 46.4063C28.3152 44.9959 28.3297 43.5856 28.3447 42.1326C28.3511 41.6913 28.3575 41.2501 28.3641 40.7955C28.3661 40.4398 28.3679 40.0842 28.3694 39.7286C28.3748 39.4588 28.3748 39.4588 28.3803 39.1835C28.3813 37.1014 27.6498 35.2848 26.2243 33.761C24.6067 32.2478 22.6749 31.5416 20.473 31.5871C18.4339 31.7662 16.7118 32.6027 15.3149 34.1043ZM6.85542 49.2188C6.85542 49.8568 6.85542 50.4949 6.85542 51.1523C16.1367 51.1523 25.4179 51.1523 34.9804 51.1523C34.9804 50.5143 34.9804 49.8762 34.9804 49.2188C25.6992 49.2188 16.4179 49.2188 6.85542 49.2188ZM11.9531 53.9648C11.9531 64.8123 11.9531 75.6598 11.9531 86.8359C13.2293 86.8359 14.5054 86.8359 15.8203 86.8359C15.8203 75.9885 15.8203 65.141 15.8203 53.9648C14.5441 53.9648 13.2679 53.9648 11.9531 53.9648ZM18.6328 53.9648C18.6328 55.009 18.6328 56.0531 18.6328 57.1289C20.199 57.1289 21.7652 57.1289 23.3789 57.1289C23.3789 56.0848 23.3789 55.0406 23.3789 53.9648C21.8126 53.9648 20.2464 53.9648 18.6328 53.9648ZM26.1914 53.9648C26.1914 64.8123 26.1914 75.6598 26.1914 86.8359C27.4675 86.8359 28.7437 86.8359 30.0585 86.8359C30.0585 75.9885 30.0585 65.141 30.0585 53.9648C28.7824 53.9648 27.5062 53.9648 26.1914 53.9648ZM32.871 53.9648C32.871 64.8123 32.871 75.6598 32.871 86.8359C33.6251 86.8359 34.3792 86.8359 35.1562 86.8359C35.1562 75.9885 35.1562 65.141 35.1562 53.9648C34.4021 53.9648 33.648 53.9648 32.871 53.9648ZM37.9687 48.8672C37.9687 49.6793 37.9687 50.4914 37.9687 51.3281C38.398 51.3306 38.398 51.3306 38.8361 51.3331C39.9071 51.3402 40.978 51.3517 42.0489 51.3646C42.5107 51.3695 42.9725 51.3733 43.4344 51.3758C44.1016 51.3796 44.7687 51.3878 45.436 51.3968C45.6395 51.397 45.843 51.3972 46.0527 51.3974C48.2739 51.4365 50.227 51.943 51.797 53.5645C52.5878 54.4477 53.2144 55.377 53.822 56.3928C54.0219 56.7214 54.2219 57.0498 54.4221 57.3782C54.5219 57.5425 54.6216 57.7069 54.7244 57.8762C55.1702 58.6062 55.627 59.329 56.0852 60.0513C56.1714 60.1875 56.2577 60.3238 56.3466 60.4642C56.5203 60.7386 56.6941 61.013 56.868 61.2874C57.3073 61.9809 57.7453 62.675 58.1835 63.3691C58.3593 63.6475 58.5351 63.9258 58.7109 64.2041C59.0625 64.7607 59.414 65.3174 59.7656 65.874C59.8527 66.012 59.9398 66.1499 60.0296 66.292C60.2043 66.5686 60.3789 66.8452 60.5535 67.1218C61.0097 67.8444 61.4665 68.5666 61.9244 69.288C62.0191 69.4375 62.1138 69.5869 62.2114 69.7409C62.3915 70.0251 62.5719 70.3091 62.7525 70.593C62.9894 70.967 63.2234 71.3427 63.457 71.7188C63.5289 71.8305 63.6008 71.9422 63.6748 72.0573C64.0609 72.682 64.251 73.0867 64.1162 73.8171C64.0822 74.0207 64.0822 74.0207 64.0475 74.2284C64.0162 74.3783 64.0162 74.3783 63.9843 74.5313C63.1489 74.6951 62.6312 74.7646 61.875 74.3555C61.5588 73.9602 61.5588 73.9602 61.2666 73.4635C61.1561 73.2792 61.0455 73.0949 60.9317 72.905C60.8152 72.7057 60.6986 72.5064 60.5786 72.301C60.3284 71.8817 60.0765 71.4635 59.8246 71.0452C59.7611 70.9391 59.6975 70.833 59.632 70.7237C59.015 69.6972 58.3612 68.6964 57.7001 67.6978C56.7866 66.312 55.914 64.9085 55.0677 63.4808C54.3686 62.3045 53.6372 61.153 52.8861 60.0094C52.5163 59.4463 52.1552 58.8784 51.7971 58.3079C51.6471 58.0713 51.6471 58.0713 51.4942 57.83C51.3012 57.5254 51.1097 57.2199 50.9199 56.9133C49.9465 55.3872 49.187 54.7879 47.4609 54.1406C44.3285 54.1406 41.196 54.1406 37.9687 54.1406C37.9687 64.9301 37.9687 75.7195 37.9687 86.8359C48.2361 86.8359 58.5035 86.8359 69.082 86.8359C69.082 85.8498 69.082 84.8637 69.082 83.8477C68.3059 83.0398 68.3059 83.0398 67.684 82.6474C66.7024 81.9477 65.7705 80.9102 65.4503 79.7278C65.4292 79.2274 65.5185 78.8402 65.7531 78.3984C66.301 78.1157 66.7199 78.1485 67.3242 78.2227C67.822 78.6544 68.1883 79.1363 68.5656 79.6729C69.9348 81.4479 72.0739 82.6573 74.2675 83.0882C74.8127 83.1581 75.3556 83.1828 75.9045 83.2105C78.2003 83.3566 79.8516 84.1222 81.3757 85.8252C81.6603 86.1598 81.8935 86.4433 82.0898 86.8359C82.9599 86.8359 83.83 86.8359 84.7265 86.8359C84.5182 85.7942 84.1165 85.2154 83.496 84.375C83.4072 84.2545 83.3184 84.1339 83.2269 84.0097C81.7275 82.1429 79.5283 80.9926 77.1665 80.7001C76.6274 80.6442 76.088 80.5954 75.5481 80.547C73.4281 80.3265 71.8523 79.5347 70.4549 77.9146C69.9595 77.2997 69.5478 76.6437 69.1369 75.9705C68.9532 75.6745 68.7694 75.3786 68.5855 75.0826C68.4467 74.8577 68.4467 74.8577 68.3051 74.6283C67.8659 73.919 67.419 73.2146 66.9726 72.5098C66.7968 72.2315 66.621 71.9532 66.4453 71.6748C66.3583 71.537 66.2712 71.3993 66.1816 71.2573C65.2148 69.7266 64.248 68.1958 63.2812 66.665C63.1507 66.4585 63.1507 66.4585 63.0177 66.2478C62.8414 65.9688 62.6652 65.6897 62.489 65.4107C62.0564 64.7256 61.6237 64.0407 61.1904 63.3561C60.3322 61.9997 59.4772 60.6415 58.6277 59.2796C58.1821 58.5656 57.7357 57.8521 57.289 57.1388C57.0642 56.7793 56.8398 56.4195 56.6158 56.0595C56.2899 55.5363 55.9625 55.0142 55.6347 54.4922C55.5379 54.3359 55.441 54.1796 55.3413 54.0185C53.7722 51.5309 51.7752 49.822 48.8937 49.0337C47.8137 48.7998 46.7423 48.8234 45.642 48.8329C45.3117 48.8336 45.3117 48.8336 44.9748 48.8344C44.3948 48.836 43.8149 48.8391 43.2349 48.8431C42.641 48.8467 42.047 48.8483 41.4531 48.85C40.2916 48.8539 39.1302 48.8599 37.9687 48.8672ZM18.6328 59.9414C18.6328 60.9856 18.6328 62.0297 18.6328 63.1055C20.199 63.1055 21.7652 63.1055 23.3789 63.1055C23.3789 62.0613 23.3789 61.0172 23.3789 59.9414C21.8126 59.9414 20.2464 59.9414 18.6328 59.9414ZM18.6328 65.918C18.6328 66.9621 18.6328 68.0063 18.6328 69.082C20.199 69.082 21.7652 69.082 23.3789 69.082C23.3789 68.0379 23.3789 66.9938 23.3789 65.918C21.8126 65.918 20.2464 65.918 18.6328 65.918ZM18.6328 71.8945C18.6328 72.9387 18.6328 73.9828 18.6328 75.0586C20.199 75.0586 21.7652 75.0586 23.3789 75.0586C23.3789 74.0145 23.3789 72.9703 23.3789 71.8945C21.8126 71.8945 20.2464 71.8945 18.6328 71.8945ZM18.6328 77.8711C18.6328 78.9152 18.6328 79.9594 18.6328 81.0352C20.199 81.0352 21.7652 81.0352 23.3789 81.0352C23.3789 79.991 23.3789 78.9469 23.3789 77.8711C21.8126 77.8711 20.2464 77.8711 18.6328 77.8711ZM18.6328 83.8477C18.6328 84.8338 18.6328 85.8199 18.6328 86.8359C20.199 86.8359 21.7652 86.8359 23.3789 86.8359C23.3789 85.8498 23.3789 84.8637 23.3789 83.8477C21.8126 83.8477 20.2464 83.8477 18.6328 83.8477ZM71.8945 85.2539C71.8945 85.776 71.8945 86.2981 71.8945 86.8359C74.0408 86.8359 76.1871 86.8359 78.3984 86.8359C77.4782 85.9158 76.4174 85.887 75.1794 85.7813C74.056 85.684 72.9918 85.5181 71.8945 85.2539Z" fill="#2C4569"/>
</g>
<defs>
<clipPath id="clip0_256_1316">
<rect width="90" height="90" fill="white"/>
</clipPath>
</defs>
</svg>
