<svg width="90" height="90" viewBox="0 0 90 90" fill="none" xmlns="http://www.w3.org/2000/svg">
<g clip-path="url(#clip0_256_1377)">
<path d="M43.5937 21.2344C43.7344 21.375 43.875 21.375 44.1562 21.375C44.7187 21.375 45.1406 21.0937 45.4219 20.5312L46.4062 18.2812C46.6875 17.5781 46.4062 16.7344 45.7031 16.4531C45 16.1719 44.1562 16.4531 43.875 17.1562L42.8906 19.4062C42.6094 20.1094 42.8906 20.9531 43.5937 21.2344ZM49.7812 18.8437C49.0781 18.5625 48.2344 18.8437 47.9531 19.5469L46.9687 21.7969C46.6875 22.5 46.9687 23.3437 47.6719 23.625C47.8125 23.7656 47.9531 23.7656 48.2344 23.7656C48.7969 23.7656 49.2187 23.4844 49.5 22.9219L50.4844 20.6719C50.7656 19.9687 50.4844 19.125 49.7812 18.8437ZM55.4062 20.3906C54.7031 20.1094 53.8594 20.3906 53.5781 21.0937L52.5937 23.3437C52.3125 24.0469 52.5937 24.8906 53.2969 25.1719C53.4375 25.3125 53.5781 25.3125 53.8594 25.3125C54.4219 25.3125 54.8437 25.0312 55.125 24.4687L56.1094 22.2187C56.5312 21.375 56.1094 20.6719 55.4062 20.3906ZM54.5625 29.5312C53.8594 29.25 53.0156 29.5312 52.7344 30.2344L51.75 32.4844C51.4687 33.1875 51.75 34.0312 52.4531 34.3125C52.5937 34.4531 52.7344 34.4531 53.0156 34.4531C53.5781 34.4531 54 34.1719 54.2812 33.6094L55.2656 31.3594C55.6875 30.6562 55.2656 29.8125 54.5625 29.5312ZM59.9062 25.3125C59.2031 25.0312 58.3594 25.3125 58.0781 26.0156L57.0937 28.2656C56.8125 28.9687 57.0937 29.8125 57.7969 30.0937C57.9375 30.2344 58.0781 30.2344 58.3594 30.2344C58.9219 30.2344 59.3437 29.9531 59.625 29.3906L60.6094 27.1406C60.8906 26.4375 60.6094 25.5937 59.9062 25.3125ZM58.5 32.7656L57.5156 35.0156C57.2344 35.7187 57.5156 36.5625 58.2187 36.8437C58.3594 36.9844 58.5 36.9844 58.7812 36.9844C59.3437 36.9844 59.7656 36.7031 60.0469 36.1406L61.0312 33.8906C61.3125 33.1875 61.0312 32.3437 60.3281 32.0625C59.625 31.6406 58.7812 32.0625 58.5 32.7656ZM63.5625 28.6875C64.125 28.6875 64.5469 28.4062 64.8281 27.8437L65.8125 25.5937C66.0937 24.8906 65.8125 24.0469 65.1094 23.7656C64.4062 23.4844 63.5625 23.7656 63.2812 24.4687L62.2969 26.7187C62.0156 27.4219 62.2969 28.2656 63 28.5469C63.2812 28.6875 63.4219 28.6875 63.5625 28.6875ZM51.4687 26.0156L50.4844 28.2656C50.2031 28.9687 50.4844 29.8125 51.1875 30.0937C51.3281 30.2344 51.4687 30.2344 51.75 30.2344C52.3125 30.2344 52.7344 29.9531 53.0156 29.3906L54 27.1406C54.2812 26.4375 54 25.5937 53.2969 25.3125C52.5937 25.0312 51.75 25.3125 51.4687 26.0156ZM45.9844 29.5312C45.7031 30.2344 45.9844 31.0781 46.6875 31.3594C46.8281 31.5 46.9687 31.5 47.25 31.5C47.8125 31.5 48.2344 31.2187 48.5156 30.6562L49.5 28.4062C49.7812 27.7031 49.5 26.8594 48.7969 26.5781C48.0937 26.2969 47.25 26.5781 46.9687 27.2812L45.9844 29.5312ZM41.9062 29.8125C42.0469 29.9531 42.1875 29.9531 42.4687 29.9531C43.0312 29.9531 43.4531 29.6719 43.7344 29.1094L44.7187 26.8594C45 26.1562 44.7187 25.3125 44.0156 25.0312C43.3125 24.75 42.4687 25.0312 42.1875 25.7344L41.2031 28.125C40.9219 28.8281 41.2031 29.5312 41.9062 29.8125Z" fill="#2C4569"/>
<path d="M85.0781 42.8906H81.7031V11.5312C81.7031 5.20312 76.5 0 70.1719 0C66.5156 0 63.1406 1.6875 60.8906 4.64062C57.0938 3.51562 52.875 4.92188 50.625 8.15625L50.3438 8.01562C49.6406 7.73437 48.7969 8.01562 48.5156 8.71875L46.9688 12.6562C46.8281 12.9375 46.8281 13.3594 46.9688 13.6406C47.1094 13.9219 47.3906 14.2031 47.6719 14.3438L65.25 22.0781C65.3906 22.2188 65.6719 22.2188 65.8125 22.2188C66.375 22.2188 66.7969 21.9375 67.0781 21.375L68.9062 17.2969C69.0469 17.0156 69.0469 16.5938 68.9062 16.3125C68.7656 16.0312 68.4844 15.75 68.2031 15.6094L67.9219 15.4688C68.7656 11.6719 66.9375 7.73438 63.7031 5.625C65.3906 3.65625 67.7812 2.53125 70.3125 2.53125C75.2344 2.53125 79.1719 6.46875 79.1719 11.3906V42.75H31.7812L29.8125 38.3906C29.25 36.9844 27.8438 36.1406 26.2969 36.1406H14.3438C12.7969 36.1406 11.5312 36.9844 10.8281 38.3906L8.85938 42.75H4.64062C2.10938 42.8906 0 45.1406 0 47.8125C0 50.4844 2.10938 52.7344 4.92188 52.7344H6.1875L12.2344 77.3438C12.9375 80.1562 15.3281 81.9844 18.2812 81.9844H18.8438L21.5156 87.3281C22.0781 88.3125 23.0625 89.0156 24.1875 89.0156C25.3125 89.0156 26.4375 88.3125 26.8594 87.3281L29.5312 81.9844H60.4688L63.1406 87.3281C63.7031 88.3125 64.6875 89.0156 65.8125 89.0156C66.9375 89.0156 68.0625 88.3125 68.4844 87.3281L71.1562 81.9844H71.7188C74.5312 81.9844 77.0625 80.0156 77.7656 77.3438L83.8125 52.7344H85.0781C87.75 52.7344 90 50.625 90 47.8125C90 45.1406 87.8906 42.8906 85.0781 42.8906ZM64.9688 19.2656L49.9219 12.5156L50.625 10.9688L65.6719 17.5781L64.9688 19.2656ZM65.25 14.4844L53.2969 9.28125C55.125 7.17188 58.2188 6.46875 61.0313 7.59375H61.1719C63.9844 8.85938 65.5312 11.6719 65.25 14.4844ZM13.5 39.6562C13.6406 39.2344 14.0625 39.0938 14.4844 39.0938H26.4375C26.8594 39.0938 27.2812 39.375 27.4219 39.6562L28.8281 43.0312H12.0938L13.5 39.6562ZM24.4688 85.9219C24.3281 86.2031 24.0469 86.2031 23.9062 85.9219L21.7969 81.8438H26.4375L24.4688 85.9219ZM66.0938 85.9219C65.9531 86.2031 65.6719 86.2031 65.5312 85.9219L63.4219 81.8438H68.0625L66.0938 85.9219ZM75.0938 76.5C74.6719 78.0469 73.2656 79.1719 71.7188 79.1719H18.2812C16.7344 79.1719 15.3281 78.0469 14.9063 76.5L9 52.5938H81L75.0938 76.5ZM85.0781 49.9219H4.92188C3.79688 49.9219 2.8125 48.9375 2.8125 47.8125C2.8125 46.6875 3.79688 45.7031 4.92188 45.7031H80.4375H85.0781C86.2031 45.7031 87.1875 46.6875 87.1875 47.8125C87.3281 48.9375 86.3438 49.9219 85.0781 49.9219Z" fill="#2C4569"/>
</g>
<defs>
<clipPath id="clip0_256_1377">
<rect width="90" height="90" fill="white"/>
</clipPath>
</defs>
</svg>
