<svg width="119" height="136" viewBox="0 0 119 136" fill="none" xmlns="http://www.w3.org/2000/svg">
<path d="M14.7885 0.47152C15.2761 0.467581 15.2761 0.467581 15.7736 0.463562C16.1348 0.466061 16.496 0.468661 16.8572 0.47135C17.2406 0.470309 17.6239 0.4688 18.0072 0.466863C19.0619 0.462905 20.1165 0.465645 21.1712 0.469468C22.3081 0.472434 23.445 0.469247 24.5819 0.466834C26.8095 0.463101 29.0371 0.465132 31.2647 0.469156C33.8572 0.473661 36.4496 0.472809 39.0421 0.471806C43.6665 0.470233 48.2909 0.474029 52.9153 0.480622C57.4059 0.487024 61.8965 0.488918 66.3872 0.48611C71.2738 0.483059 76.1604 0.482538 81.047 0.486404C81.5677 0.486812 82.0884 0.487219 82.6091 0.487624C82.9934 0.487928 82.9934 0.487928 83.3855 0.488239C85.194 0.489509 87.0026 0.489011 88.8111 0.487874C91.0138 0.486558 93.2165 0.488147 95.4193 0.493465C96.5439 0.496113 97.6684 0.497466 98.793 0.495367C99.8215 0.493486 100.85 0.495281 101.878 0.500077C102.251 0.501164 102.624 0.500884 102.997 0.499136C103.503 0.496971 104.008 0.500181 104.513 0.503697C104.794 0.503973 105.075 0.504248 105.365 0.504532C106.059 0.605462 106.059 0.605462 106.55 0.974891C106.986 1.58243 106.96 2.01033 106.958 2.7542C106.96 3.17125 106.96 3.17125 106.961 3.59672C106.958 3.90158 106.955 4.20645 106.952 4.52056C106.953 4.84168 106.953 5.16281 106.953 5.49367C106.952 6.37434 106.948 7.25486 106.943 8.1355C106.938 9.05578 106.937 9.97607 106.936 10.8964C106.934 12.6391 106.927 14.3818 106.919 16.1245C106.91 18.1085 106.906 20.0925 106.902 22.0765C106.893 26.1578 106.879 30.239 106.861 34.3203C107.154 34.31 107.447 34.2997 107.749 34.289C108.734 34.3203 108.734 34.3203 109.511 34.821C110.299 35.9963 110.242 36.9664 110.223 38.3507C110.126 40.1263 110.126 40.1263 110.866 41.6442C111.045 41.788 111.225 41.9319 111.41 42.0801C111.716 42.9404 111.71 43.7655 111.708 44.672C111.708 44.9772 111.708 45.2825 111.708 45.597C111.707 45.9251 111.705 46.2532 111.704 46.5913C111.703 47.0968 111.703 47.0968 111.703 47.6125C111.701 48.5064 111.699 49.4002 111.696 50.2941C111.693 51.2071 111.692 52.12 111.691 53.033C111.688 54.8228 111.683 56.6126 111.678 58.4023C111.915 58.396 111.915 58.396 112.156 58.3896C112.872 58.3729 113.588 58.3625 114.303 58.3522C114.552 58.3454 114.8 58.3387 115.056 58.3318C115.415 58.3279 115.415 58.3279 115.78 58.3239C116.11 58.3176 116.11 58.3176 116.447 58.3112C117.029 58.4023 117.029 58.4023 117.503 58.7344C117.919 59.3287 117.932 59.6708 117.932 60.393C117.933 60.6323 117.935 60.8716 117.937 61.1181C117.933 61.5045 117.933 61.5045 117.929 61.8986C117.929 62.1635 117.93 62.4283 117.93 62.7012C117.929 63.2611 117.926 63.8209 117.922 64.3807C117.916 65.2399 117.916 66.0988 117.918 66.958C117.917 67.5014 117.915 68.0447 117.913 68.5881C117.913 68.8462 117.913 69.1043 117.913 69.3702C117.911 69.6086 117.908 69.8471 117.906 70.0928C117.904 70.303 117.903 70.5133 117.902 70.73C117.832 71.2461 117.832 71.2461 117.297 71.7812C116.601 71.8335 116.601 71.8335 115.792 71.8147C115.523 71.8099 115.255 71.805 114.979 71.8001C114.669 71.7907 114.669 71.7907 114.354 71.7812C114.355 72.0561 114.355 72.3309 114.357 72.614C114.38 79.2955 114.398 85.977 114.409 92.6585C114.414 95.8896 114.422 99.1207 114.434 102.352C114.445 105.167 114.452 107.983 114.454 110.799C114.456 112.29 114.459 113.781 114.467 115.273C114.474 116.676 114.476 118.079 114.475 119.482C114.475 119.997 114.477 120.513 114.481 121.028C114.486 121.731 114.485 122.434 114.482 123.137C114.485 123.342 114.488 123.547 114.492 123.758C114.481 124.682 114.421 125.204 113.869 125.959C113.025 126.547 112.237 126.501 111.247 126.472C111.053 126.47 110.858 126.469 110.658 126.467C110.039 126.461 109.42 126.448 108.801 126.434C108.381 126.429 107.96 126.424 107.54 126.419C106.511 126.408 105.482 126.389 104.453 126.367C104.459 126.598 104.464 126.829 104.47 127.067C104.488 127.924 104.502 128.781 104.512 129.638C104.517 130.009 104.525 130.38 104.534 130.751C104.547 131.284 104.552 131.818 104.558 132.351C104.563 132.672 104.569 132.993 104.575 133.324C104.453 134.127 104.453 134.127 104.025 134.633C103.17 135.028 102.501 135.029 101.56 135.027C101.386 135.027 101.212 135.027 101.032 135.027C100.665 135.027 100.298 135.024 99.9312 135.02C99.371 135.013 98.811 135.014 98.2507 135.016C95.1856 135.003 95.1856 135.003 94.2852 134.395C93.0879 132 94.0176 129.044 94.0176 126.367C71.236 126.367 48.4544 126.367 24.9824 126.367C24.9824 128.928 24.9824 131.489 24.9824 134.127C23.7965 135.016 23.51 135.03 22.0892 135.027C21.9151 135.027 21.741 135.027 21.5616 135.027C21.1946 135.027 20.8275 135.024 20.4605 135.02C19.9003 135.013 19.3403 135.014 18.7801 135.016C15.7149 135.003 15.7149 135.003 14.8145 134.395C14.4374 133.64 14.517 133.01 14.5208 132.168C14.5216 131.832 14.5225 131.496 14.5234 131.149C14.5267 130.62 14.5267 130.62 14.5302 130.08C14.5315 129.721 14.5327 129.363 14.5338 129.004C14.537 128.125 14.5414 127.246 14.5469 126.367C14.2931 126.371 14.0393 126.376 13.7779 126.38C12.8343 126.394 11.8909 126.404 10.9474 126.411C10.5394 126.415 10.1314 126.421 9.72342 126.428C9.13624 126.438 8.5492 126.442 7.96195 126.446C7.60883 126.45 7.25572 126.454 6.8919 126.458C5.89094 126.358 5.58661 126.296 4.91407 125.564C4.80917 124.817 4.77409 124.174 4.78536 123.426C4.78445 123.206 4.78353 122.985 4.78259 122.758C4.78082 122.018 4.78672 121.277 4.79256 120.536C4.79286 120.006 4.79269 119.476 4.79209 118.946C4.79178 117.505 4.79809 116.064 4.80555 114.623C4.81223 113.117 4.81287 111.612 4.81414 110.107C4.81747 107.255 4.82625 104.404 4.83699 101.553C4.84894 98.3067 4.85483 95.0609 4.86021 91.815C4.8714 85.1371 4.89024 78.4592 4.91407 71.7812C4.71091 71.7906 4.50775 71.7999 4.29843 71.8095C4.03249 71.8167 3.76656 71.824 3.49256 71.8314C3.22869 71.8407 2.96483 71.85 2.69296 71.8596C1.97071 71.7812 1.97071 71.7812 1.48071 71.4096C1.08026 70.8576 1.06478 70.5269 1.05986 69.8482C1.05647 69.6213 1.05307 69.3945 1.04958 69.1608C1.05075 68.7945 1.05075 68.7945 1.05196 68.4208C1.05055 68.1691 1.04915 67.9174 1.04771 67.6581C1.04599 67.1257 1.04635 66.5933 1.04862 66.0609C1.0509 65.2463 1.04321 64.4321 1.03471 63.6175C1.03428 63.1003 1.03443 62.5831 1.03523 62.0659C1.03223 61.8222 1.02922 61.5786 1.02612 61.3276C1.02863 61.0999 1.03114 60.8722 1.03373 60.6376C1.03377 60.438 1.03382 60.2384 1.03386 60.0328C1.23378 59.1978 1.55372 58.9211 2.23829 58.4023C3.03013 58.309 3.71921 58.2771 4.50852 58.2978C4.72676 58.2993 4.94499 58.3008 5.16984 58.3024C5.86518 58.3084 6.56015 58.3218 7.25538 58.3354C7.72747 58.3408 8.19956 58.3457 8.67166 58.3501C9.82748 58.3619 10.983 58.3803 12.1387 58.4023C12.1377 58.111 12.1367 57.8196 12.1357 57.5194C12.1119 50.436 12.0943 43.3526 12.0832 36.2691C12.0777 32.8436 12.0702 29.4182 12.0579 25.9927C12.0473 23.0077 12.0404 20.0228 12.038 17.0378C12.0366 15.4567 12.0333 13.8756 12.0255 12.2945C12.0183 10.8072 12.016 9.31994 12.0176 7.83262C12.0173 7.28594 12.0152 6.73926 12.0111 6.1926C12.0058 5.44765 12.007 4.703 12.01 3.95804C12.0069 3.74044 12.0037 3.52284 12.0005 3.29864C12.0101 2.39867 12.0329 1.8162 12.5833 1.08539C13.3744 0.478564 13.798 0.471621 14.7885 0.47152ZM15.6172 3.8164C15.6172 21.8298 15.6172 39.8431 15.6172 58.4023C33.9838 58.4023 52.3503 58.4023 71.2734 58.4023C71.2734 56.9895 71.2734 55.5767 71.2734 54.1211C70.645 54.1189 70.0166 54.1168 69.3691 54.1145C63.4588 54.0939 57.5485 54.0704 51.6383 54.0442C48.5995 54.0307 45.5606 54.0183 42.5218 54.0082C39.8738 53.9994 37.2259 53.9887 34.5779 53.9758C33.1752 53.9691 31.7725 53.9633 30.3699 53.9596C29.0506 53.9562 27.7313 53.9503 26.412 53.9425C25.927 53.9401 25.4419 53.9386 24.9568 53.938C24.2962 53.9371 23.6357 53.933 22.975 53.928C22.7817 53.9285 22.5883 53.9291 22.389 53.9296C21.4097 53.9185 21.0045 53.8774 20.166 53.3184C20.0672 52.5546 20.0672 52.5546 20.0695 51.5576C20.0688 51.3746 20.0681 51.1917 20.0674 51.0032C20.0661 50.3873 20.0705 49.7715 20.0749 49.1556C20.0751 48.7153 20.075 48.275 20.0745 47.8346C20.0743 46.6367 20.079 45.4387 20.0846 44.2408C20.0896 42.9898 20.0901 41.7388 20.0911 40.4878C20.0936 38.1178 20.1002 35.7477 20.1082 33.3776C20.1172 30.6799 20.1216 27.9822 20.1256 25.2844C20.134 19.7339 20.1481 14.1833 20.166 8.6328C30.1447 8.61445 40.1233 8.6003 50.1019 8.59181C51.2789 8.59081 52.4559 8.58977 53.6329 8.58871C53.9844 8.58839 53.9844 8.58839 54.343 8.58807C58.1415 8.58457 61.94 8.57824 65.7385 8.57087C69.6336 8.56338 73.5287 8.55891 77.4238 8.55728C79.8289 8.55617 82.2341 8.55268 84.6393 8.54618C86.2866 8.54195 87.934 8.54065 89.5813 8.54169C90.533 8.54221 91.4847 8.5414 92.4364 8.53712C93.4661 8.53252 94.4959 8.53407 95.5257 8.53627C95.8292 8.53393 96.1327 8.5316 96.4454 8.52919C96.7195 8.53079 96.9937 8.53238 97.2762 8.53403C97.5141 8.53373 97.7521 8.53342 97.9972 8.53311C98.279 8.58246 98.279 8.58246 98.5664 8.6328C99.268 9.68516 99.1838 10.5891 99.1869 11.811C99.1896 12.0538 99.1923 12.2967 99.195 12.5469C99.2033 13.3504 99.2078 14.1539 99.2124 14.9575C99.2174 15.5143 99.2226 16.071 99.2281 16.6278C99.2418 18.094 99.2524 19.5601 99.2624 21.0263C99.273 22.5221 99.2867 24.0179 99.3002 25.5137C99.3261 28.4492 99.3486 31.3848 99.3691 34.3203C100.782 34.3203 102.195 34.3203 103.65 34.3203C103.65 24.254 103.65 14.1877 103.65 3.8164C74.5994 3.8164 45.5485 3.8164 15.6172 3.8164ZM23.1094 11.5762C23.1094 24.5564 23.1094 37.5366 23.1094 50.9101C39.0035 50.9101 54.8977 50.9101 71.2734 50.9101C71.3617 47.5547 71.45 44.1993 71.541 40.7422C71.6293 40.4773 71.7176 40.2124 71.8086 39.9394C72.4943 39.6217 72.4943 39.6217 73.1465 39.4043C73.1504 39.2058 73.1543 39.0074 73.1583 38.803C73.1782 37.9051 73.2041 37.0075 73.2301 36.1097C73.2361 35.7974 73.2422 35.4851 73.2484 35.1633C73.2579 34.8641 73.2674 34.5648 73.2771 34.2565C73.2841 33.9805 73.2912 33.7045 73.2984 33.42C73.4141 32.7148 73.4141 32.7148 73.7111 32.2232C74.4783 31.7512 75.129 31.8127 76.0229 31.8149C76.1981 31.8148 76.3732 31.8146 76.5537 31.8145C76.9234 31.8151 77.2932 31.8177 77.6629 31.8221C78.2285 31.8285 78.7937 31.8276 79.3593 31.8259C82.1321 31.8374 82.1321 31.8374 83.0469 32.4473C83.1626 33.1466 83.1626 33.1466 83.1838 34.0214C83.1933 34.3335 83.2028 34.6457 83.2125 34.9673C83.2186 35.2946 83.2246 35.622 83.2308 35.9592C83.24 36.2886 83.2491 36.618 83.2585 36.9574C83.2807 37.773 83.2991 38.5885 83.3145 39.4043C83.5297 39.4816 83.7449 39.5588 83.9667 39.6384C84.6523 39.9394 84.6523 39.9394 84.9199 40.4746C84.9522 41.0428 84.9674 41.612 84.9749 42.1811C84.9775 42.356 84.9802 42.5309 84.9829 42.7112C84.9914 43.2903 84.998 43.8694 85.0046 44.4486C85.0101 44.8497 85.0157 45.2509 85.0214 45.6521C85.0362 46.7087 85.0494 47.7653 85.0623 48.822C85.0758 49.8999 85.0907 50.9778 85.1055 52.0557C85.1342 54.1712 85.1614 56.2868 85.1875 58.4023C86.2471 58.4023 87.3067 58.4023 88.3984 58.4023C88.4037 57.9297 88.409 57.4571 88.4145 56.9701C88.4327 55.4076 88.4532 53.8451 88.4754 52.2826C88.4887 51.3354 88.5011 50.3882 88.5113 49.4409C88.5231 48.3516 88.539 47.2624 88.5552 46.1732C88.5583 45.8334 88.5614 45.4936 88.5646 45.1435C88.5699 44.8275 88.5752 44.5115 88.5807 44.1859C88.5843 43.9079 88.5878 43.6298 88.5915 43.3433C88.667 42.6059 88.7985 42.1627 89.2012 41.5449C89.3778 41.4566 89.5544 41.3683 89.7363 41.2773C89.756 40.8174 89.756 40.8174 89.776 40.3481C89.7961 39.9387 89.8164 39.5294 89.8367 39.12C89.8449 38.9187 89.8532 38.7175 89.8618 38.5101C89.9289 37.2169 90.0747 36.0702 90.5391 34.8555C92.2398 34.2885 94.101 34.4256 95.8906 34.3203C95.8906 26.8147 95.8906 19.3092 95.8906 11.5762C71.8728 11.5762 47.855 11.5762 23.1094 11.5762ZM76.3574 35.123C76.3574 36.5359 76.3574 37.9487 76.3574 39.4043C77.5936 39.4043 78.8298 39.4043 80.1035 39.4043C80.1035 37.9915 80.1035 36.5787 80.1035 35.123C78.8673 35.123 77.6311 35.123 76.3574 35.123ZM93.2148 37.5312C93.2148 38.5909 93.2148 39.6505 93.2148 40.7422C97.7182 40.7422 102.222 40.7422 106.861 40.7422C106.861 39.6826 106.861 38.623 106.861 37.5312C102.358 37.5312 97.8547 37.5312 93.2148 37.5312ZM74.752 42.6152C74.752 47.825 74.752 53.0347 74.752 58.4023C77.0478 58.4023 79.3436 58.4023 81.709 58.4023C81.709 53.1926 81.709 47.9828 81.709 42.6152C79.4132 42.6152 77.1173 42.6152 74.752 42.6152ZM91.6094 43.9531C91.6094 48.7214 91.6094 53.4896 91.6094 58.4023C97.084 58.4023 102.559 58.4023 108.199 58.4023C108.199 53.6341 108.199 48.8659 108.199 43.9531C102.725 43.9531 97.2499 43.9531 91.6094 43.9531ZM4.37891 61.6133C4.37891 63.9091 4.37891 66.2049 4.37891 68.5703C40.7588 68.5703 77.1388 68.5703 114.621 68.5703C114.621 66.2745 114.621 63.9787 114.621 61.6133C78.2412 61.6133 41.8613 61.6133 4.37891 61.6133ZM8.12501 71.7812C8.12501 76.991 8.12501 82.2007 8.12501 87.5684C18.6328 87.5684 29.1406 87.5684 39.9668 87.5684C39.9668 82.3586 39.9668 77.1489 39.9668 71.7812C29.459 71.7812 18.9512 71.7812 8.12501 71.7812ZM43.1777 71.7812C43.1777 76.991 43.1777 82.2007 43.1777 87.5684C54.0387 87.5684 64.8997 87.5684 76.0898 87.5684C76.0898 82.3586 76.0898 77.1489 76.0898 71.7812C65.2289 71.7812 54.3679 71.7812 43.1777 71.7812ZM79.3008 71.7812C79.3008 76.991 79.3008 82.2007 79.3008 87.5684C89.7203 87.5684 100.14 87.5684 110.875 87.5684C110.875 82.3586 110.875 77.1489 110.875 71.7812C100.456 71.7812 90.036 71.7812 79.3008 71.7812ZM8.12501 90.7793C8.12501 101.375 8.12501 111.971 8.12501 122.889C18.6328 122.889 29.1406 122.889 39.9668 122.889C39.9668 112.293 39.9668 101.696 39.9668 90.7793C29.459 90.7793 18.9512 90.7793 8.12501 90.7793ZM43.1777 90.7793C43.1777 101.375 43.1777 111.971 43.1777 122.889C54.0387 122.889 64.8997 122.889 76.0898 122.889C76.0898 112.293 76.0898 101.696 76.0898 90.7793C65.2289 90.7793 54.3679 90.7793 43.1777 90.7793ZM79.3008 90.7793C79.3008 101.375 79.3008 111.971 79.3008 122.889C89.7203 122.889 100.14 122.889 110.875 122.889C110.875 112.293 110.875 101.696 110.875 90.7793C100.456 90.7793 90.036 90.7793 79.3008 90.7793ZM18.0254 126.367C18.0254 128.045 18.0254 129.723 18.0254 131.451C19.2616 131.451 20.4978 131.451 21.7715 131.451C21.7715 129.773 21.7715 128.096 21.7715 126.367C20.5353 126.367 19.2991 126.367 18.0254 126.367ZM97.4961 126.367C97.4961 128.045 97.4961 129.723 97.4961 131.451C98.7323 131.451 99.9685 131.451 101.242 131.451C101.242 129.773 101.242 128.096 101.242 126.367C100.006 126.367 98.7698 126.367 97.4961 126.367Z" fill="#2C4569" stroke="#2C4569" stroke-width="0.5"/>
</svg>
