<svg width="137" height="137" viewBox="0 0 137 137" fill="none" xmlns="http://www.w3.org/2000/svg">
<g clip-path="url(#clip0_258_604)">
<path d="M101.596 16.5062C101.902 16.5077 102.207 16.5092 102.522 16.5108C110.199 16.6205 116.773 19.7439 122.206 25.0593C127.462 30.5657 130.162 37.8461 130.124 45.4363C130.003 50.0857 128.799 54.5312 126.502 58.5737C125.545 60.2595 125.126 61.8982 124.792 63.7839C124.756 63.9809 124.72 64.1778 124.683 64.3808C124.596 64.8617 124.51 65.3429 124.424 65.8242C124.584 65.8915 124.743 65.9587 124.908 66.028C125.996 66.6429 126.559 67.6656 127.1 68.7676C127.227 69.3441 127.338 69.9244 127.434 70.5068C127.779 72.2901 128.516 72.9333 129.905 74.0324C131.318 75.3381 132.198 77.2996 132.451 79.2031C132.466 81.4661 132.059 83.3156 131.113 85.3574C131.025 85.6223 130.937 85.8872 130.846 86.1601C130.979 86.2512 131.111 86.3423 131.248 86.4361C134.284 88.6023 136.354 91.5223 137 95.2578C137.079 96.3649 137.081 97.4692 137.082 98.5788C137.084 98.9062 137.087 99.2336 137.089 99.571C137.094 100.463 137.097 101.355 137.098 102.248C137.099 102.806 137.101 103.364 137.103 103.922C137.109 105.869 137.113 107.817 137.114 109.765C137.115 111.579 137.123 113.393 137.134 115.208C137.143 116.768 137.148 118.328 137.148 119.889C137.148 120.819 137.15 121.75 137.158 122.681C137.166 123.717 137.164 124.754 137.16 125.79C137.166 126.252 137.166 126.252 137.172 126.724C137.153 128.79 137.153 128.79 136.382 129.708C135.4 130.165 134.822 130.062 133.789 129.775C133.213 129.343 133.011 129.114 132.885 128.398C132.884 128.174 132.884 127.95 132.883 127.719C132.881 127.462 132.878 127.204 132.875 126.939C132.877 126.656 132.878 126.374 132.879 126.083C132.877 125.785 132.875 125.488 132.874 125.181C132.868 124.193 132.868 123.205 132.868 122.217C132.865 121.53 132.862 120.843 132.858 120.156C132.847 118.157 132.842 116.159 132.837 114.16C132.831 111.451 132.82 108.743 132.806 106.034C132.801 105.026 132.8 104.018 132.8 103.009C132.797 102.384 132.794 101.759 132.791 101.135C132.792 100.857 132.793 100.58 132.793 100.294C132.77 96.9451 132.402 93.7665 130.054 91.2076C129.078 90.3165 128.081 89.5681 126.832 89.1035C125.824 89.4396 125.599 89.853 124.959 90.6923C122.251 94.0763 118.9 96.5125 115.059 98.4687C114.84 98.5843 114.622 98.6998 114.397 98.8189C107.418 102.282 98.964 102.312 91.6952 99.8658C85.8976 97.8286 80.8438 93.9279 77.0626 89.1035C74.9405 89.7019 73.4239 91.0139 72.2618 92.882C71.4371 94.5057 70.8757 95.8512 70.8731 97.6788C70.8721 97.9511 70.871 98.2235 70.8699 98.5041C70.87 98.8013 70.8702 99.0985 70.8703 99.4047C70.8694 99.719 70.8685 100.033 70.8675 100.357C70.8655 101.04 70.8641 101.722 70.8632 102.405C70.8616 103.484 70.8571 104.563 70.8521 105.643C70.8504 106.013 70.8487 106.382 70.847 106.752C70.8462 106.937 70.8453 107.123 70.8444 107.313C70.8332 109.826 70.8244 112.338 70.8211 114.85C70.8188 116.546 70.8128 118.242 70.8025 119.937C70.7972 120.834 70.7939 121.731 70.7952 122.629C70.7959 123.629 70.79 124.628 70.7825 125.628C70.7843 125.926 70.7861 126.223 70.7879 126.529C70.7845 126.801 70.7812 127.074 70.7778 127.354C70.7771 127.591 70.7765 127.827 70.7758 128.071C70.5954 128.918 70.2347 129.237 69.5704 129.775C68.5845 130.09 68.1569 130.133 67.2124 129.692C66.627 129.24 66.627 129.24 66.3595 128.705C66.3324 128.276 66.3221 127.846 66.3201 127.416C66.3182 127.144 66.3162 126.872 66.3143 126.591C66.3136 126.292 66.3128 125.992 66.3121 125.683C66.3103 125.367 66.3086 125.052 66.3068 124.728C66.3015 123.68 66.2984 122.633 66.2957 121.585C66.2946 121.223 66.2935 120.862 66.2924 120.5C66.2873 118.799 66.2835 117.098 66.2813 115.396C66.2787 113.44 66.2716 111.483 66.2608 109.526C66.2527 108.01 66.2487 106.494 66.2479 104.978C66.2472 104.075 66.2449 103.171 66.2381 102.268C66.2037 96.9549 66.2604 92.5263 69.9718 88.3509C70.8138 87.6142 71.6564 86.8791 72.5137 86.1601C72.442 85.9449 72.3703 85.7297 72.2963 85.5079C72.1915 85.1934 72.0866 84.8788 71.9786 84.5547C71.9079 84.386 71.8372 84.2174 71.7643 84.0436C70.8762 81.7916 70.7694 79.2466 71.6107 76.9622C72.3846 75.3083 73.2894 73.8851 74.8718 72.9318C75.5677 72.4776 75.5677 72.4776 75.8553 71.7235C75.8803 71.3151 75.9003 70.9063 75.916 70.4974C76.1086 68.8323 77.0044 67.4137 78.2667 66.3594C78.9421 65.6192 78.9356 65.2633 78.9335 64.2344C78.6563 61.7052 77.8912 59.8068 76.5441 57.66C73.2376 52.2914 72.8014 45.086 73.8851 39.0162C75.0869 34.1251 77.217 29.7416 80.5411 25.9551C80.7129 25.7316 80.8846 25.5081 81.0616 25.2778C82.0635 24.0739 83.3234 23.1673 84.5548 22.209C84.7617 22.0451 84.9687 21.8813 85.1819 21.7125C89.8886 18.1906 95.7693 16.4759 101.596 16.5062ZM83.3032 29.2823C78.8128 34.5966 77.4533 41.1096 77.8653 47.8965C78.2464 51.2074 79.4236 54.9995 81.5121 57.6338C82.3058 58.7066 82.4139 59.7393 82.5479 61.0413C83.1212 65.4234 84.8994 68.9196 87.7657 72.2461C87.9082 72.4144 88.0506 72.5827 88.1974 72.7562C90.9382 75.7486 95.373 77.84 99.4163 78.192C105.116 78.4413 110.217 77.2666 114.623 73.4599C118.426 69.9706 120.809 65.0522 121.062 59.8873C120.973 57.5224 119.947 55.1885 118.27 53.5156C117.71 53.1921 117.71 53.1921 117.199 52.9805C117.288 53.2123 117.376 53.444 117.467 53.6829C117.998 55.5729 118.138 57.9643 117.333 59.787C116.3 61.4898 114.834 62.6396 112.918 63.1484C110.612 63.4264 108.655 63.2225 106.764 61.8105C105.724 60.7974 105.15 59.7673 104.74 58.3822C104.501 57.5879 104.398 57.3027 103.787 56.7098C102.33 56.2348 101.12 56.2414 99.7064 56.8436C98.9978 57.5354 98.8884 57.7478 98.6361 58.6498C98.1502 60.3688 97.0503 61.6852 95.5673 62.6749C93.7817 63.4807 91.5301 63.471 89.6795 62.9227C87.7497 62.0611 86.7057 60.7857 85.7923 58.9174C85.321 56.5135 85.5638 54.772 86.755 52.6084C87.7244 51.1851 89.0189 50.3946 90.7091 50.0371C92.7863 49.8581 94.6091 49.9624 96.3219 51.2318C96.9807 51.7862 97.5926 52.3719 98.2013 52.9805C98.5572 52.848 98.5572 52.848 98.9204 52.7129C101.02 52.1141 103.388 52.2221 105.426 52.9805C105.564 52.7818 105.702 52.5831 105.844 52.3784C106.983 51.0935 108.338 50.5162 109.975 50.0371C109.975 49.8605 109.975 49.6839 109.975 49.5019C109.751 49.4402 109.528 49.3785 109.298 49.3149C98.2805 46.2475 98.2805 46.2475 93.919 43.6236C93.3662 43.2862 93.3662 43.2862 92.5821 43.3477C92.1036 43.8326 91.6661 44.3172 91.2275 44.8361C89.6633 46.6178 87.5589 48.8308 85.0732 49.0337C84.2872 48.9668 84.2872 48.9668 83.4845 48.4316C83.3381 47.9393 83.3381 47.9393 83.2838 47.378C83.2631 47.1935 83.2424 47.009 83.2211 46.8189C83.2169 46.291 83.2169 46.291 83.4845 45.4883C83.9248 45.2965 84.3719 45.1198 84.8223 44.9531C87.1869 43.4343 89.3064 41.2383 90.7091 38.7988C90.7091 38.6222 90.7091 38.4456 90.7091 38.2637C92.7298 38.105 93.7043 38.459 95.3415 39.6016C99.9572 42.5769 105.072 43.9298 110.321 45.3847C113.887 46.3835 117.119 47.5627 120.143 49.7695C120.374 49.9241 120.606 50.0786 120.845 50.2378C121.689 51.0372 122.294 51.952 122.939 52.9157C123.339 53.5334 123.339 53.5334 123.889 54.0508C126.273 48.3393 126.513 41.9591 124.223 36.1732C121.689 30.1284 117.197 25.2095 111.148 22.5814C101.217 18.5424 90.4457 21.4207 83.3032 29.2823ZM90.4415 54.5859C89.7738 55.3918 89.6388 55.8054 89.6388 56.8604C89.9633 57.9963 90.2855 58.447 91.2442 59.1348C92.4593 59.3557 92.9676 59.2218 94.0371 58.5996C94.8072 57.698 94.9347 57.3186 94.8482 56.1736C94.6522 55.3651 94.2403 54.889 93.6524 54.3184C92.5891 53.7867 91.3988 53.8927 90.4415 54.5859ZM109.44 54.5859C108.772 55.3918 108.637 55.8054 108.637 56.8604C108.961 57.9963 109.284 58.447 110.242 59.1348C111.457 59.3557 111.966 59.2218 113.035 58.5996C113.805 57.698 113.933 57.3186 113.846 56.1736C113.65 55.3651 113.238 54.889 112.65 54.3184C111.587 53.7867 110.397 53.8927 109.44 54.5859ZM80.8087 70.1055C80.1738 70.6153 80.1738 70.6153 80.2662 71.4956C80.2741 71.8426 80.2821 72.1896 80.2902 72.5471C80.268 73.6925 80.1835 74.4595 79.3819 75.3389C78.8643 75.6944 78.3354 76.0339 77.7963 76.3559C76.6206 77.0594 75.895 77.8894 75.4571 79.2031C75.3049 80.74 75.4046 81.8864 76.2598 83.2168C76.5226 83.4891 76.7893 83.7578 77.0626 84.0195C79.3889 83.4118 81.5931 82.5119 83.8125 81.5998C84.4435 81.3414 85.0763 81.0875 85.7092 80.8337C86.1109 80.6695 86.5124 80.5051 86.9138 80.3403C87.1031 80.2651 87.2923 80.1898 87.4873 80.1122C87.9467 79.9206 88.3931 79.698 88.836 79.4707C88.9243 79.2058 89.0126 78.9409 89.1036 78.668C88.9191 78.5414 88.7345 78.4148 88.5444 78.2844C85.5651 76.1878 83.5429 73.9474 81.603 70.8988C81.4292 70.637 81.2554 70.3752 81.0762 70.1055C80.9879 70.1055 80.8996 70.1055 80.8087 70.1055ZM122.283 70.1055C121.95 70.6005 121.95 70.6005 121.614 71.2427C119.701 74.503 117.263 76.7344 114.256 78.9355C114.829 79.5692 115.326 79.9065 116.115 80.2267C116.326 80.3132 116.537 80.3997 116.754 80.4888C116.981 80.5792 117.207 80.6695 117.441 80.7626C117.675 80.8571 117.909 80.9517 118.15 81.049C118.644 81.248 119.138 81.4458 119.633 81.6427C120.391 81.9449 121.147 82.2524 121.902 82.5604C122.383 82.753 122.863 82.9454 123.344 83.1374C123.57 83.2299 123.796 83.3224 124.029 83.4177C124.241 83.5008 124.452 83.584 124.671 83.6696C124.856 83.7439 125.041 83.8181 125.232 83.8946C125.874 84.0459 126.221 83.9928 126.832 83.752C127.805 82.6125 128.233 81.5001 128.17 80.0059C127.905 78.3648 127.311 77.3466 126.006 76.3277C125.504 75.9987 124.999 75.7479 124.457 75.4905C123.621 74.9219 123.621 74.9219 123.387 73.9185C123.371 73.5395 123.36 73.1604 123.354 72.7812C123.248 71.4009 123.248 71.4009 122.818 70.1055C122.642 70.1055 122.465 70.1055 122.283 70.1055ZM92.0135 81.9792C91.8307 82.1469 91.6479 82.3145 91.4595 82.4872C91.1163 82.8156 90.7774 83.1485 90.4415 83.4844C94.3222 86.5094 98.5372 88.2758 103.553 87.7656C107.079 87.2013 110.303 85.9807 112.918 83.4844C112.719 83.3354 112.521 83.1864 112.316 83.0328C111.58 82.4141 111.58 82.4141 111.078 81.6615C110.891 81.4683 110.703 81.2752 110.51 81.0762C109.314 81.1736 108.203 81.454 107.048 81.7618C103.077 82.6179 98.884 82.4894 95.0029 81.3103C93.6146 80.9116 93.0397 81.0233 92.0135 81.9792ZM84.8715 85.4996C84.6671 85.5841 84.4627 85.6686 84.2522 85.7556C84.0375 85.845 83.8227 85.9343 83.6015 86.0264C83.3858 86.1157 83.17 86.205 82.9477 86.2971C82.4129 86.5186 81.8784 86.7407 81.3438 86.9629C82.7889 90.0869 86.204 92.2731 89.1036 93.9199C89.3644 94.0706 89.6251 94.2214 89.8938 94.3767C95.5072 97.4058 102.448 98.082 108.588 96.4159C113.86 94.8179 119.22 91.6477 122.283 86.9629C120.694 86.3448 119.104 85.7267 117.467 85.0898C116.24 86.1408 116.24 86.1408 115.016 87.196C111.87 89.7862 107.654 91.601 103.553 91.7793C103.285 91.7931 103.017 91.8069 102.742 91.8211C96.3989 91.9925 91.2401 89.7722 86.6191 85.4922C85.9195 84.8788 85.6961 85.1575 84.8715 85.4996Z" fill="#2C4569"/>
<path d="M33.7983 6.90267C34.2344 6.90038 34.2344 6.90038 34.6793 6.89805C35.2938 6.89553 35.9082 6.89378 36.5226 6.89274C37.4503 6.89016 38.3779 6.88186 39.3056 6.87341C45.5177 6.8436 50.5165 7.85724 55.6561 11.5059C55.921 11.7708 55.921 11.7708 56.1913 12.041C56.9107 12.045 57.6144 12.0246 58.3319 11.9908C60.5786 11.9416 62.1874 12.2738 63.9051 13.8189C65.677 15.7242 65.9124 17.369 65.8523 19.9084C65.843 20.1378 65.8337 20.3672 65.8241 20.6035C65.9807 20.668 66.1373 20.7325 66.2986 20.799C67.0087 21.2038 67.3697 21.6443 67.8644 22.2926C68.0224 22.4958 68.1803 22.6989 68.3431 22.9082C69.5145 24.6712 69.7896 26.7348 69.3862 28.7981C68.7132 31.2846 67.5628 32.6381 65.5565 34.25C65.6448 34.4928 65.7331 34.7356 65.8241 34.9858C66.4407 37.2138 66.3532 39.3778 65.2064 41.4035C64.2859 42.6365 63.116 43.6934 61.6014 44.0657C61.4055 44.0937 61.2095 44.1216 61.0077 44.1504C61.0039 44.3325 61.0001 44.5146 60.9962 44.7023C60.7118 50.4823 57.8314 55.889 53.6166 59.7936C53.056 60.2973 52.4865 60.7899 51.91 61.2754C52.1563 61.3771 52.4026 61.4789 52.6563 61.5837C53.6382 62.1487 53.9157 62.5673 54.4186 63.5665C54.5531 63.8262 54.6876 64.086 54.8262 64.3536C55.121 65.0215 55.121 65.0215 55.121 65.5566C55.3831 65.6182 55.3831 65.6182 55.6505 65.6811C57.9922 66.2477 60.2969 66.9192 62.6015 67.6187C63.2524 67.8154 63.9043 68.0085 64.5562 68.2016C64.9754 68.3283 65.3946 68.4553 65.8136 68.5826C66.006 68.6389 66.1983 68.6952 66.3965 68.7533C67.5977 69.1238 68.5734 69.5786 69.5702 70.373C69.8712 71.2928 69.8712 71.2928 69.8378 72.2461C69.3776 73.0602 69.0738 73.4798 68.1792 73.784C67.189 73.8732 66.4552 73.6443 65.5032 73.3603C65.3223 73.3071 65.1413 73.2539 64.9549 73.1991C64.3797 73.0292 63.8059 72.8551 63.2319 72.6809C62.843 72.5657 62.454 72.4507 62.0649 72.336C59.2478 71.4999 59.2478 71.4999 58.5995 71.1758C58.497 71.5124 58.3946 71.8491 58.2891 72.1959C55.2573 81.2575 47.1557 91.3741 38.7906 96.0999C37.9233 96.4755 37.2486 96.3801 36.3905 96.0605C35.3422 95.4299 34.3993 94.6861 33.4471 93.9199C33.3083 93.8086 33.1694 93.6973 33.0263 93.5826C25.9476 87.8687 19.6679 80.0873 16.5897 71.4434C13.2143 72.212 9.95956 73.2553 6.68933 74.3867C7.69801 75.6277 8.78164 76.7656 9.917 77.8893C10.1406 78.1107 10.1406 78.1107 10.3688 78.3366C10.9937 78.9541 11.6195 79.5706 12.2465 80.1858C16.5901 84.4526 16.5901 84.4526 17.6099 86.9629C17.7164 87.2168 17.823 87.4706 17.9328 87.7322C18.6089 89.8869 18.5024 92.1344 18.5016 94.3696C18.5024 94.7368 18.5034 95.104 18.5044 95.4712C18.5067 96.4629 18.5074 97.4547 18.5075 98.4464C18.5077 99.0666 18.5083 99.6868 18.509 100.307C18.5115 102.472 18.5126 104.637 18.5124 106.802C18.5122 108.818 18.515 110.835 18.5192 112.851C18.5227 114.585 18.5242 116.319 18.524 118.053C18.5239 119.087 18.5247 120.122 18.5275 121.156C18.5301 122.128 18.5301 123.1 18.5282 124.072C18.5278 124.598 18.53 125.124 18.5323 125.65C18.5312 125.964 18.5301 126.278 18.5289 126.601C18.5291 126.874 18.5292 127.146 18.5294 127.426C18.4583 128.22 18.2778 128.795 17.9276 129.508C17.2209 130.084 16.8275 130.042 15.9041 130.01C14.9843 129.775 14.9843 129.775 14.5317 129.323C14.0926 128.548 14.0808 128.04 14.0802 127.152C14.078 126.835 14.0758 126.517 14.0736 126.19C14.0752 125.843 14.0769 125.496 14.0786 125.138C14.0775 124.768 14.076 124.398 14.0742 124.028C14.0711 123.231 14.0704 122.434 14.0716 121.637C14.0735 120.375 14.0692 119.113 14.064 117.851C14.0539 115.17 14.0505 112.489 14.0477 109.807C14.0448 106.918 14.0406 104.029 14.0288 101.139C14.0239 99.887 14.0229 98.6347 14.0248 97.3823C14.0252 96.5998 14.0223 95.8174 14.0185 95.0349C14.017 94.5037 14.0193 93.9725 14.0219 93.4413C13.9876 88.4087 11.6758 85.9698 8.26821 82.6C7.80462 82.1413 7.34327 81.6805 6.88218 81.2194C6.58773 80.9262 6.29315 80.6332 5.99844 80.3403C5.86075 80.2029 5.72307 80.0656 5.58121 79.924C4.86406 79.2071 4.86406 79.2071 4.01355 78.668C4.0154 79.0554 4.0154 79.0554 4.01729 79.4506C4.04697 85.7301 4.06897 92.0097 4.08287 98.2893C4.08978 101.326 4.09919 104.363 4.11448 107.399C4.1278 110.046 4.13645 112.692 4.13943 115.338C4.14118 116.74 4.14529 118.142 4.15501 119.543C4.16407 120.862 4.16689 122.18 4.16488 123.499C4.16525 123.984 4.16792 124.468 4.17304 124.953C4.17967 125.613 4.1781 126.274 4.17444 126.934C4.17834 127.127 4.18223 127.319 4.18625 127.518C4.17143 128.505 4.07788 128.904 3.39517 129.636C2.67566 130.043 2.67566 130.043 1.70569 130.026C0.487206 129.688 0.487206 129.688 -0.00011903 128.973C-0.0795569 128.259 -0.109569 127.607 -0.103854 126.893C-0.106015 126.572 -0.106015 126.572 -0.10822 126.244C-0.112059 125.525 -0.110136 124.805 -0.108235 124.085C-0.10976 123.57 -0.111623 123.055 -0.1138 122.54C-0.118614 121.138 -0.118281 119.737 -0.116758 118.335C-0.115932 117.165 -0.11756 115.995 -0.119177 114.824C-0.122941 112.062 -0.122514 109.3 -0.119471 106.538C-0.116404 103.69 -0.120155 100.843 -0.127337 97.9959C-0.133272 95.5507 -0.13504 93.1056 -0.133471 90.6604C-0.13257 89.2003 -0.133211 87.7404 -0.13782 86.2803C-0.141969 84.9057 -0.140888 83.5311 -0.135864 82.1565C-0.13488 81.6532 -0.135703 81.1499 -0.13851 80.6466C-0.154359 77.5685 -0.151872 74.7556 2.00672 72.313C4.13956 70.1728 6.75292 69.429 9.59611 68.6484C10.0305 68.5282 10.0305 68.5282 10.4737 68.4055C11.6872 68.0715 12.9008 67.7396 14.1197 67.4255C17.6905 66.7071 17.6905 66.7071 20.5829 64.7374C21.0801 63.8984 21.0801 63.8984 21.3656 63.0524C21.7513 62.1678 22.1581 61.9577 23.0116 61.543C23.1882 61.4547 23.3648 61.3664 23.5468 61.2754C23.4202 61.1681 23.2936 61.0608 23.1632 60.9503C22.571 60.4413 21.988 59.923 21.4061 59.4023C21.2133 59.234 21.0205 59.0657 20.8218 58.8923C16.9375 55.2918 14.9517 50.3743 14.1815 45.2207C14.1815 44.8675 14.1815 44.5143 14.1815 44.1504C13.7676 44.0593 13.7676 44.0593 13.3453 43.9664C11.6716 43.4738 10.7878 42.5154 9.95044 41.0398C9.02582 39.2863 8.78593 37.6226 9.27732 35.6799C9.46967 35.1064 9.67288 34.5428 9.90027 33.9824C9.61881 33.9079 9.61881 33.9079 9.33167 33.8319C7.63257 32.9824 6.70454 31.3959 6.07265 29.6489C5.47598 27.2421 5.72006 24.8963 6.95691 22.7441C7.5631 21.9069 8.21821 21.1571 9.01392 20.4959C9.49533 19.9098 9.4134 19.5755 9.34839 18.8308C9.29327 16.9402 9.98901 15.6671 11.004 14.1147C12.1378 13.0303 13.3344 12.0878 14.969 12.0192C15.549 12.0342 16.1274 12.0604 16.7068 12.0912C18.7054 12.1862 19.6906 11.8064 21.2473 10.4794C24.7121 7.58857 29.4422 6.92061 33.7983 6.90267ZM25.2191 13.1113C25.0432 13.2031 24.8673 13.2948 24.6861 13.3894C23.8049 13.8567 22.9849 14.3573 22.2089 14.9844C22.3413 15.3321 22.3413 15.3321 22.4764 15.6868C23.0716 17.8283 23.0967 20.141 22.0918 22.1421C21.8694 22.5248 21.6421 22.9048 21.4061 23.2793C21.0467 23.8424 21.0467 23.8424 21.3894 24.6005C22.1192 27.0049 21.7268 29.3447 20.6138 31.5481C19.4748 33.394 17.4959 34.2678 15.5529 35.0695C14.5315 35.5113 13.9029 35.9013 13.3788 36.9258C13.3788 37.9328 13.4877 38.5505 14.031 39.4009C14.8992 39.9938 15.7448 40.1836 16.7664 40.4032C17.638 40.7772 17.8222 41.1425 18.1952 42.0098C18.3087 42.7383 18.3901 43.4349 18.446 44.1671C18.9572 49.2971 21.3735 53.9483 25.3195 57.3119C29.8889 60.746 35.0174 62.2431 40.7184 61.4634C45.7201 60.5973 50.2109 57.8698 53.2479 53.7832C55.4728 50.3785 56.5063 47.115 56.9839 43.0889C57.0128 42.8535 57.0416 42.6181 57.0714 42.3756C57.0954 42.1634 57.1194 41.9512 57.1441 41.7326C57.2616 41.207 57.2616 41.207 57.7968 40.6719C58.2222 40.5416 58.6523 40.4263 59.0845 40.3207C60.3132 39.9592 61.1011 39.6564 61.8104 38.5312C61.9228 37.659 61.8442 36.9494 61.5429 36.123C60.6782 35.3027 59.7485 34.9833 58.6497 34.5845C56.661 33.8136 55.0906 32.5432 54.1845 30.5875C53.4505 28.6359 53.3195 26.9287 53.8667 24.9015C54.0452 24.0996 54.111 23.6944 53.7977 22.9281C53.4434 22.3609 53.4434 22.3609 53.0504 21.8588C52.3562 20.9282 52.4014 20.017 52.395 18.8977C52.3912 18.5976 52.3874 18.2975 52.3835 17.9884C52.4452 17.125 52.4452 17.125 52.7326 16.4121C53.0263 15.8087 53.0263 15.8087 52.927 15.2091C52.2267 13.6 49.8972 12.9228 48.3939 12.3264C45.9304 11.4076 43.5823 11.1966 40.9811 11.1839C40.733 11.1824 40.4849 11.1809 40.2292 11.1793C39.7057 11.1768 39.1822 11.175 38.6586 11.174C37.8719 11.1714 37.0853 11.1631 36.2985 11.1547C32.4831 11.1326 28.6345 11.1947 25.2191 13.1113ZM13.9139 17.6601C13.6497 18.6467 13.5314 19.2458 13.9139 20.2021C14.3181 21.2125 14.2755 21.7137 13.9139 22.7441C13.2684 23.2134 12.5965 23.5798 11.8956 23.9608C10.9865 24.4984 10.5858 24.9862 10.1679 25.9551C9.95231 27.2277 10.0393 28.1062 10.6194 29.2664C11.4545 30.2143 12.1425 30.6395 13.3453 31.0056C14.799 31.0638 15.7464 30.5043 16.8239 29.5674C17.4944 28.7785 17.6379 28.2805 17.7604 27.2595C17.6602 26.2243 17.5005 25.8725 16.9744 25.0185C16.4775 24.18 16.3233 23.8313 16.2553 22.8278C16.6551 21.768 17.1452 21.34 18.0363 20.6735C18.5004 20.3551 18.5004 20.3551 18.7304 19.8008C18.8228 18.995 18.885 18.4378 18.7304 17.6601C17.9159 16.7066 17.4077 16.3719 16.1716 16.155C14.9897 16.3699 14.6145 16.6917 13.9139 17.6601ZM56.7264 17.3926C56.3065 18.2324 56.3647 18.8746 56.4589 19.8008C57.1543 20.6701 57.8342 21.253 58.8671 21.6738C58.9989 23.0979 58.8851 23.8966 58.1814 25.1523C57.7223 26.0089 57.4145 26.63 57.479 27.6107C57.8722 28.8732 58.3585 29.6856 59.4022 30.5039C60.4463 31.0083 61.261 31.0943 62.3958 30.8718C63.7096 30.2295 64.4667 29.6677 65.0214 28.2964C65.351 27.1594 65.2736 26.4125 64.7757 25.3447C64.1487 24.3487 63.3463 23.9038 62.2954 23.4298C61.5429 23.0117 61.5429 23.0117 61.1582 22.3762C60.9473 21.3917 61.0966 20.6933 61.5429 19.8008C61.6484 18.6819 61.6634 18.1125 61.0411 17.1584C60.3119 16.4292 60.0886 16.3365 59.051 16.2386C57.9104 16.3353 57.5238 16.5952 56.7264 17.3926ZM31.0389 65.0215C32.9508 66.4743 35.058 68.0492 37.4608 68.5C39.1633 68.2636 40.6038 67.3525 42.0219 66.4269C42.7042 65.9896 43.4188 65.6362 44.1503 65.2891C43.2694 64.9954 43.0213 65.0531 42.1487 65.2682C40.6354 65.5941 39.1885 65.638 37.6448 65.6235C37.3768 65.6225 37.1087 65.6215 36.8326 65.6204C34.859 65.5974 32.9727 65.4372 31.0389 65.0215ZM24.3495 66.6269C24.0846 67.1567 23.8197 67.6866 23.5468 68.2324C24.3745 69.294 25.2063 70.3521 26.0412 71.4081C26.5045 71.9967 26.9634 72.5886 27.4225 73.1805C27.7303 73.5716 28.0383 73.9625 28.3464 74.3533C28.4917 74.5426 28.637 74.732 28.7867 74.9271C28.9253 75.1013 29.0639 75.2755 29.2067 75.4549C29.3281 75.6105 29.4494 75.766 29.5745 75.9262C30.0187 76.375 30.0187 76.375 31.0389 76.2598C31.4803 75.8767 31.4803 75.8767 31.8459 75.342C32.058 75.0559 32.058 75.0559 32.2744 74.764C32.4186 74.5623 32.5628 74.3605 32.7113 74.1526C32.9338 73.853 32.9338 73.853 33.1608 73.5474C33.9565 72.5881 33.9565 72.5881 34.2499 71.4434C32.8833 70.7567 31.5163 70.0708 30.149 69.3856C29.6835 69.1521 29.2181 68.9185 28.7528 68.6847C28.0856 68.3495 27.418 68.0149 26.7504 67.6805C26.5411 67.5752 26.3317 67.4698 26.1161 67.3613C25.27 66.8551 25.27 66.8551 24.3495 66.6269ZM48.2361 67.8896C48.0353 67.9905 47.8345 68.0915 47.6276 68.1955C46.9861 68.5185 46.3459 68.8437 45.7056 69.1689C45.271 69.3882 44.8364 69.6074 44.4016 69.8264C43.3359 70.3637 42.2711 70.903 41.2069 71.4434C41.3704 72.3141 41.6663 72.8542 42.203 73.5547C42.347 73.7444 42.491 73.9341 42.6394 74.1296C42.7903 74.3248 42.9412 74.52 43.0967 74.7212C43.2486 74.9205 43.4006 75.1199 43.5571 75.3253C43.9317 75.8164 44.3078 76.3062 44.6854 76.7949C46.3983 75.1531 47.8404 73.2802 49.3322 71.4401C49.6963 70.9971 50.0713 70.5631 50.4488 70.1316C51.113 69.361 51.113 69.361 51.6425 68.5C51.554 67.5606 51.554 67.5606 51.1073 66.8945C50.0002 66.8945 49.2006 67.3971 48.2361 67.8896ZM23.2792 74.9219C23.5468 75.457 23.5468 75.457 23.5468 75.457L23.2792 74.9219ZM23.5468 75.457C24.4694 77.9594 26.1642 80.0912 27.828 82.1465C28.0032 82.3714 28.1784 82.5963 28.359 82.828C31.0164 86.1837 34.0419 88.9539 37.4608 91.5117C42.8648 88.3881 47.1739 83.1379 50.4885 77.9488C50.6082 77.7626 50.7279 77.5763 50.8512 77.3844C51.1326 76.9308 51.39 76.4625 51.6425 75.9922C51.51 75.7273 51.51 75.7273 51.3749 75.457C51.2726 75.5906 51.1703 75.7242 51.065 75.8619C50.5933 76.4722 50.1146 77.0767 49.6356 77.6813C49.4749 77.8915 49.3142 78.1017 49.1485 78.3183C48.0369 79.7079 47.2269 80.3748 45.4882 80.8086C44.2697 80.9117 43.2984 80.6502 42.2103 80.1062C41.3306 79.3464 40.7845 78.5603 40.1366 77.5976C40.0483 77.5976 39.96 77.5976 39.869 77.5976C39.859 77.9397 39.859 77.9397 39.8487 78.2887C39.8232 79.139 39.7966 79.9893 39.7694 80.8395C39.7578 81.2067 39.7467 81.5739 39.736 81.9412C39.7204 82.4706 39.7033 82.9999 39.6861 83.5293C39.6763 83.8474 39.6665 84.1655 39.6564 84.4932C39.608 85.2541 39.5056 85.9539 39.3339 86.6953C38.383 87.0123 37.6561 87.0342 36.6581 86.9629C36.2067 86.683 36.2067 86.683 35.8554 86.1601C35.7668 85.4703 35.7247 84.8412 35.7184 84.1502C35.7136 83.9553 35.7088 83.7605 35.7039 83.5597C35.6894 82.9381 35.6803 82.3166 35.6714 81.6949C35.6625 81.2732 35.6533 80.8514 35.6437 80.4297C35.621 79.3965 35.6031 78.3634 35.5878 77.3301C34.9626 77.9382 34.4343 78.5136 33.9154 79.2198C33.1212 80.1739 32.2519 80.5825 31.0389 80.8086C29.374 80.8763 28.3549 80.5007 27.0253 79.4707C26.4696 78.8602 25.9771 78.2111 25.4867 77.5475C24.6666 76.3349 24.6666 76.3349 23.5468 75.457Z" fill="#2C4569"/>
<path d="M67.6974 78.668C68.3987 79.7199 68.4513 80.0909 68.2325 81.3438C67.315 82.6468 66.1362 83.7237 64.9871 84.8202C62.6246 87.0884 61.3582 88.9322 61.2509 92.2776C61.2414 93.2339 61.2402 94.1898 61.2418 95.1462C61.2414 95.5138 61.2409 95.8814 61.2403 96.249C61.2391 97.0376 61.2386 97.8261 61.2386 98.6147C61.2383 99.8616 61.2348 101.109 61.2306 102.356C61.23 102.566 61.2293 102.777 61.2286 102.994C61.2272 103.425 61.2257 103.856 61.2243 104.287C61.2149 107.188 61.2078 110.089 61.2085 112.99C61.2089 114.95 61.2046 116.91 61.1949 118.87C61.19 119.906 61.1875 120.943 61.1908 121.979C61.1938 122.953 61.1907 123.926 61.1828 124.9C61.1802 125.428 61.1842 125.955 61.1884 126.483C61.1847 126.797 61.181 127.111 61.1772 127.434C61.1768 127.707 61.1764 127.98 61.176 128.261C61.0079 128.973 61.0079 128.973 60.389 129.605C59.67 130.043 59.67 130.043 58.7001 130.026C57.519 129.698 57.519 129.698 56.9943 128.973C56.8925 128.255 56.8925 128.255 56.8905 127.37C56.8879 127.035 56.8852 126.7 56.8825 126.355C56.8836 125.983 56.8848 125.612 56.8861 125.24C56.8846 124.848 56.8828 124.457 56.8806 124.066C56.8758 123.002 56.8761 121.938 56.8776 120.875C56.8784 119.986 56.8768 119.097 56.8752 118.208C56.8714 116.109 56.8719 114.01 56.8749 111.911C56.878 109.749 56.8742 107.588 56.867 105.426C56.8611 103.569 56.8593 101.711 56.8609 99.8532C56.8618 98.7446 56.8612 97.636 56.8566 96.5275C56.8524 95.4831 56.8535 94.4389 56.8585 93.3945C56.8595 93.0129 56.8587 92.6313 56.8559 92.2497C56.8216 87.2166 59.001 84.3122 62.3458 80.8086C62.5276 80.6127 62.7094 80.4168 62.8967 80.2149C64.3915 78.6435 65.5062 77.7409 67.6974 78.668Z" fill="#2C4569"/>
<path d="M124.156 99.8066C124.724 100.19 124.724 100.19 125.227 100.877C125.388 101.762 125.37 102.639 125.361 103.536C125.362 103.806 125.364 104.076 125.365 104.354C125.369 105.246 125.364 106.139 125.359 107.031C125.359 107.651 125.36 108.271 125.361 108.891C125.361 110.19 125.358 111.489 125.352 112.788C125.344 114.455 125.345 116.121 125.348 117.788C125.35 119.068 125.348 120.347 125.345 121.627C125.343 122.242 125.343 122.856 125.344 123.471C125.345 124.329 125.341 125.188 125.335 126.046C125.336 126.301 125.337 126.555 125.338 126.818C125.319 128.524 125.319 128.524 124.876 129.392C124.151 130.007 123.48 130.01 122.551 130.043C121.827 129.828 121.577 129.669 121.189 129.023C120.926 128.391 120.878 127.961 120.877 127.28C120.876 127.05 120.874 126.821 120.873 126.584C120.874 126.334 120.875 126.085 120.876 125.828C120.875 125.563 120.874 125.298 120.873 125.026C120.871 124.15 120.873 123.275 120.874 122.4C120.874 121.792 120.873 121.185 120.873 120.577C120.872 119.303 120.873 118.029 120.876 116.755C120.879 115.121 120.877 113.487 120.874 111.853C120.872 110.598 120.872 109.342 120.874 108.087C120.874 107.485 120.874 106.882 120.872 106.28C120.871 105.438 120.873 104.596 120.876 103.754C120.875 103.505 120.874 103.255 120.873 102.998C120.874 102.768 120.876 102.539 120.877 102.302C120.878 102.103 120.878 101.904 120.878 101.699C120.957 101.051 121.136 100.627 121.481 100.074C122.448 99.5251 123.107 99.4299 124.156 99.8066Z" fill="#2C4569"/>
<path d="M81.6114 99.8066C82.3061 100.551 82.5147 101.055 82.5197 102.065C82.5227 102.301 82.5257 102.538 82.5289 102.781C82.5277 103.167 82.5277 103.167 82.5265 103.561C82.5288 103.833 82.531 104.106 82.5334 104.386C82.5396 105.287 82.5399 106.189 82.5396 107.09C82.5415 107.716 82.5435 108.341 82.5457 108.967C82.5493 110.279 82.5497 111.591 82.5482 112.903C82.5466 114.585 82.5548 116.268 82.5656 117.951C82.5725 119.243 82.5733 120.535 82.5723 121.828C82.5728 122.448 82.5754 123.069 82.5801 123.689C82.586 124.556 82.5835 125.422 82.5788 126.289C82.5841 126.675 82.5841 126.675 82.5895 127.068C82.5676 128.798 82.5676 128.798 81.7955 129.677C80.8136 130.177 80.2513 130.067 79.2032 129.775C78.5116 129.268 78.4104 129.003 78.1329 128.17C78.1077 127.803 78.0968 127.435 78.0953 127.067C78.0938 126.842 78.0922 126.618 78.0907 126.387C78.0904 126.142 78.0901 125.896 78.0898 125.644C78.0884 125.385 78.0871 125.126 78.0857 124.859C78.0818 124.001 78.08 123.143 78.0785 122.285C78.077 121.69 78.0754 121.094 78.0739 120.499C78.0711 119.249 78.0695 118 78.0686 116.751C78.0671 115.149 78.0607 113.548 78.0531 111.947C78.0481 110.716 78.0467 109.486 78.0463 108.256C78.0455 107.665 78.0433 107.075 78.0398 106.484C78.0353 105.659 78.0358 104.833 78.0375 104.008C78.035 103.763 78.0326 103.519 78.03 103.268C78.0385 101.982 78.0969 101.118 78.9356 100.074C79.837 99.3904 80.5528 99.4913 81.6114 99.8066Z" fill="#2C4569"/>
<path d="M98.2012 64.2188C98.6528 64.5888 98.6528 64.5888 99.1043 65.0215C99.9962 65.8533 100.698 66.0801 101.91 66.1378C103.071 66.0446 103.832 65.5796 104.59 64.7205C105.304 64.0901 105.833 63.9642 106.771 63.8905C107.299 63.9512 107.299 63.9512 108.102 64.5031C108.637 65.2891 108.637 65.2891 108.837 66.0416C108.47 67.6038 107.424 68.6247 106.081 69.4595C103.797 70.6305 101.793 70.9966 99.2716 70.3563C97.5153 69.7828 96.0155 68.6999 94.9903 67.1621C94.9006 66.3549 94.8406 65.7981 94.9903 65.0215C95.9623 63.8138 96.7613 63.7719 98.2012 64.2188Z" fill="#2C4569"/>
<path d="M32.8453 47.1606C33.7982 47.3805 34.1456 47.6644 34.8856 48.2811C36.0611 49.2551 36.7321 49.5522 38.2638 49.502C39.1827 49.1596 39.7839 48.7736 40.5215 48.1306C41.4042 47.4847 41.99 47.3613 43.0802 47.3613C43.8662 47.746 43.8662 47.746 44.4181 48.4316C44.6192 49.36 44.6884 49.7047 44.4181 50.5723C43.1224 52.4545 41.3093 53.3718 39.1669 53.9839C36.819 54.231 34.748 53.8777 32.8119 52.4788C30.8818 50.8925 30.8818 50.8925 30.6211 49.502C30.8683 48.1836 31.5572 47.512 32.8453 47.1606Z" fill="#2C4569"/>
<path d="M46.5587 35.4196C46.8236 35.4284 46.8236 35.4284 47.0938 35.4374C47.2704 35.437 47.447 35.4367 47.629 35.4363C48.4389 35.6657 48.7413 35.9758 49.2344 36.6582C49.3417 37.4156 49.3846 38.0452 49.3682 38.7988C49.3724 38.9892 49.3765 39.1796 49.3808 39.3758C49.3739 40.2978 49.3029 40.8447 48.7578 41.599C48.1361 42.0292 47.8404 42.1617 47.0938 42.1603C46.9172 42.1661 46.7406 42.172 46.5587 42.1781C45.6982 41.9075 45.4171 41.4278 44.9532 40.6719C44.811 39.7688 44.811 39.7688 44.8194 38.7988C44.8166 38.4787 44.8139 38.1587 44.811 37.8289C44.992 36.6792 45.3835 35.7892 46.5587 35.4196Z" fill="#2C4569"/>
<path d="M27.5606 35.4196C27.8255 35.4284 27.8255 35.4284 28.0958 35.4374C28.2724 35.437 28.449 35.4367 28.6309 35.4363C29.4409 35.6657 29.7432 35.9758 30.2364 36.6582C30.3437 37.4156 30.3866 38.0452 30.3702 38.7988C30.3743 38.9892 30.3785 39.1796 30.3827 39.3758C30.3758 40.2978 30.3049 40.8447 29.7598 41.599C29.138 42.0292 28.8424 42.1617 28.0958 42.1603C27.9192 42.1661 27.7426 42.172 27.5606 42.1781C26.7001 41.9075 26.419 41.4278 25.9551 40.6719C25.813 39.7688 25.813 39.7688 25.8214 38.7988C25.8186 38.4787 25.8158 38.1587 25.813 37.8289C25.994 36.6792 26.3854 35.7892 27.5606 35.4196Z" fill="#2C4569"/>
</g>
<defs>
<clipPath id="clip0_258_604">
<rect width="137" height="137" fill="white"/>
</clipPath>
</defs>
</svg>
