<svg width="100" height="100" viewBox="0 0 100 100" fill="none" xmlns="http://www.w3.org/2000/svg">
<g clip-path="url(#clip0_256_1325)">
<path fill-rule="evenodd" clip-rule="evenodd" d="M29.2984 31.8629C28.6511 31.8629 28.1262 31.3401 28.1262 30.6932L28.1266 16.9324C28.1266 16.2855 28.6511 15.7606 29.298 15.7606C29.9451 15.7606 30.4699 16.2855 30.4699 16.9324L30.4702 30.6931C30.4702 31.34 29.945 31.863 29.2984 31.8629Z" fill="#2C4569"/>
<path fill-rule="evenodd" clip-rule="evenodd" d="M32.7566 24.4514H29.2984C28.6511 24.4514 28.1262 23.9266 28.1262 23.2796C28.1266 22.6326 28.6511 22.1078 29.2981 22.1078H32.7566C34.0181 22.1078 35.0432 21.2106 35.0432 20.106C35.0435 19.0033 34.0179 18.1041 32.7565 18.1041H29.2984C28.6511 18.1041 28.1262 17.5813 28.1262 16.9323C28.1266 16.2853 28.6511 15.7604 29.2981 15.7604H32.7566C35.3099 15.7604 37.3868 17.7115 37.3868 20.106C37.3871 22.5025 35.3097 24.4514 32.7566 24.4514ZM19.6002 81.6123C15.1715 81.6102 10.7381 81.6082 6.30719 81.6082C5.66056 81.6082 5.13537 81.0853 5.13537 80.4364C5.13555 79.645 5.12113 78.8353 5.10481 78.052C4.98492 71.7474 4.84847 64.6005 13.7429 63.3066C26.1001 61.1135 34.093 58.066 40.5157 55.6186C55.066 50.0709 62.3693 47.2857 94.1284 62.6638C94.5333 62.8591 94.7896 63.268 94.7896 63.7176C94.7897 64.3625 94.8141 65.3146 94.8405 66.4172C94.9426 70.5796 94.9992 74.152 94.6533 75.684C94.261 77.4417 92.4663 81.5289 84.343 81.5289L80.4006 81.5471C80.3983 81.5471 80.4026 81.5471 80.4006 81.5471C79.7561 81.5471 79.2244 81.0263 79.2223 80.3794C79.2205 79.7324 79.7432 79.2056 80.3901 79.2035L84.3372 79.1852C90.5418 79.1852 92.0309 76.6707 92.3666 75.1713C92.6763 73.794 92.568 69.3895 92.4968 66.4742C92.4785 65.7174 92.4622 65.0297 92.4541 64.4561C62.1683 49.8734 55.605 52.3737 41.3498 57.8076C34.8319 60.2937 26.7204 63.386 14.1335 65.6177C14.1214 65.6197 14.1091 65.6218 14.0968 65.6238C7.56241 66.5678 7.31415 70.9438 7.44839 78.0073C7.4567 78.4202 7.46471 78.8414 7.47083 79.2646C11.5132 79.2666 15.5556 79.2666 19.5999 79.2686C20.2469 79.2686 20.7718 79.7935 20.7718 80.4404C20.7719 81.0873 20.2469 81.6123 19.6002 81.6123ZM38.5709 81.6163C36.6813 81.6163 34.8357 81.6163 33.0495 81.6163C32.4028 81.6163 31.8777 81.0915 31.8777 80.4445C31.8777 79.7976 32.4026 79.2727 33.0495 79.2727C43.1464 79.2747 55.0678 79.2727 66.9428 79.2462C67.5902 79.2462 68.1165 79.7691 68.1165 80.414C68.119 81.063 67.5957 81.5879 66.9488 81.5899C57.1739 81.6123 47.3657 81.6163 38.5709 81.6163Z" fill="#2C4569"/>
<path fill-rule="evenodd" clip-rule="evenodd" d="M41.232 63.5588L77.7758 63.6016C74.1445 61.9659 69.9046 60.2713 65.7971 59.2357C63.5739 58.6763 61.588 58.3711 59.7326 58.304C57.7107 58.2307 55.7635 58.4322 53.7738 58.9204C50.2097 59.7911 46.4683 61.3638 42.8511 62.8814C42.3141 63.1072 41.7749 63.333 41.232 63.5588ZM82.9981 65.9513L34.9819 65.8964C34.4084 65.8964 33.92 65.4814 33.8264 64.9159C33.7332 64.3523 34.0624 63.801 34.6035 63.6159C37.0184 62.7879 39.5227 61.7381 41.9436 60.7208C45.6463 59.1666 49.473 57.5594 53.2163 56.6439C55.4196 56.1028 57.5781 55.881 59.8159 55.9624C61.8403 56.0336 63.9844 56.3632 66.3708 56.9633C72.6572 58.5481 79.1671 61.5834 83.5168 63.7277C84.0051 63.9698 84.2634 64.5151 84.1393 65.046C84.0156 65.577 83.5432 65.9513 82.9981 65.9513Z" fill="#2C4569"/>
<path fill-rule="evenodd" clip-rule="evenodd" d="M59.8488 65.9249C59.202 65.9249 58.6767 65.4 58.6767 64.753L58.677 57.1321C58.677 56.4852 59.2017 55.9604 59.8486 55.9604C60.4956 55.9603 61.0204 56.4852 61.0204 57.1322L61.0206 64.753C61.0206 65.4 60.4955 65.9249 59.8488 65.9249ZM9.95504 72.7706C8.78917 72.7706 7.56032 72.5896 6.27045 72.2295C5.64816 72.0566 5.28381 71.4096 5.45877 70.7871C5.63166 70.1626 6.27864 69.7984 6.90117 69.9734C9.57646 70.72 11.8895 70.5348 13.7795 69.42C17.1223 67.4486 18.1677 63.1764 18.1778 63.1337C18.3285 62.5051 18.9591 62.1145 19.5877 62.2609C20.2167 62.4094 20.6069 63.0361 20.4604 63.6667C20.4117 63.8803 19.1951 68.9338 14.9879 71.428C13.4806 72.3231 11.7959 72.7707 9.95504 72.7706ZM26.3238 74.8885C23.262 74.8885 20.7717 77.3807 20.7717 80.4424C20.7719 83.5042 23.2618 85.9963 26.3236 85.9963C29.3874 85.9963 31.8775 83.5042 31.8775 80.4424C31.8776 77.3806 29.3874 74.8885 26.3238 74.8885ZM26.3238 88.34C21.9702 88.34 18.428 84.7961 18.428 80.4424C18.4282 76.0889 21.9699 72.5449 26.3236 72.5449C30.6797 72.5449 34.2211 76.0889 34.2211 80.4424C34.2212 84.7961 30.6793 88.34 26.3238 88.34ZM73.6704 79.1973C72.9828 79.1973 72.4254 79.7568 72.4254 80.4424C72.4258 81.128 72.9828 81.6874 73.6704 81.6874C74.356 81.6874 74.9155 81.128 74.9155 80.4424C74.9159 79.7568 74.356 79.1973 73.6704 79.1973ZM73.6704 84.0311C71.6911 84.0311 70.0817 82.4219 70.0817 80.4424C70.0821 78.4629 71.6909 76.8537 73.6704 76.8537C75.6478 76.8537 77.2591 78.4629 77.2591 80.4424C77.2595 82.4219 75.6478 84.0311 73.6704 84.0311Z" fill="#2C4569"/>
<path fill-rule="evenodd" clip-rule="evenodd" d="M26.3238 79.1973C25.6381 79.1973 25.0806 79.7568 25.0806 80.4423C25.0806 81.128 25.638 81.6874 26.3236 81.6874C27.0114 81.6874 27.5687 81.128 27.5687 80.4423C27.5689 79.7568 27.0112 79.1973 26.3238 79.1973ZM26.3238 84.031C24.3464 84.031 22.7369 82.4219 22.7369 80.4423C22.7369 78.4629 24.3462 76.8537 26.3236 76.8537C28.3031 76.8537 29.9123 78.4629 29.9123 80.4423C29.9125 82.4219 28.303 84.031 26.3238 84.031ZM73.6704 74.8885C70.609 74.8885 68.1164 77.3807 68.1164 80.4424C68.1166 83.5042 70.6086 85.9963 73.6704 85.9963C76.7322 85.9963 79.2223 83.5042 79.2223 80.4424C79.2224 77.3806 76.7322 74.8885 73.6704 74.8885ZM73.6704 88.34C69.315 88.34 65.7729 84.7961 65.7729 80.4424C65.773 76.0888 69.3148 72.5449 73.6704 72.5449C78.0245 72.5449 81.566 76.0888 81.566 80.4424C81.566 84.7961 78.0241 88.34 73.6704 88.34ZM93.7012 74.7908H87.9643C87.3175 74.7908 86.7924 74.2659 86.7924 73.619L86.7925 67.9247C86.7925 67.2777 87.3172 66.7529 87.9642 66.7529H93.7035C94.3502 66.7529 94.8751 67.2778 94.8751 67.9247C94.8753 68.5717 94.3502 69.0965 93.7033 69.0965L89.1361 69.0965V72.4472H93.7012C94.3484 72.4472 94.873 72.972 94.873 73.619C94.873 74.2659 94.3481 74.7908 93.7012 74.7908ZM35.4013 59.9458C34.7546 59.9458 34.2293 59.421 34.2293 58.774L34.2295 34.7986C34.2295 34.1516 34.7542 33.6268 35.4012 33.6268C36.0481 33.6268 36.573 34.1517 36.573 34.7986L36.5731 58.774C36.5731 59.421 36.0481 59.9458 35.4013 59.9458ZM30.1121 61.7219C29.4649 61.7219 28.9399 61.197 28.9399 60.5501L28.9403 34.7985C28.9403 34.1515 29.4647 33.6267 30.1117 33.6267C30.7589 33.6267 31.2835 34.1516 31.2835 34.7985L31.2839 60.5501C31.2839 61.197 30.7586 61.7219 30.1121 61.7219Z" fill="#2C4569"/>
<path fill-rule="evenodd" clip-rule="evenodd" d="M20.3999 33.6266H45.1138V13.9987H20.3999V33.6266ZM46.2856 35.9703H19.2281C18.579 35.9703 18.0559 35.4454 18.0559 34.7985L18.0563 12.8269C18.0563 12.1799 18.5787 11.6551 19.2277 11.6551H46.2856C46.9324 11.6551 47.4571 12.18 47.4571 12.8269L47.4574 34.7985C47.4574 35.4454 46.9323 35.9703 46.2856 35.9703Z" fill="#2C4569"/>
</g>
<defs>
<clipPath id="clip0_256_1325">
<rect width="100" height="100" fill="white"/>
</clipPath>
</defs>
</svg>
