<svg width="202" height="202" viewBox="0 0 202 202" fill="none" xmlns="http://www.w3.org/2000/svg">
<circle cx="101" cy="101" r="101" fill="#EEEEEE"/>
<path d="M63.2 47.66C64.0432 44.4263 66.1365 41.6601 69.0193 39.9698C70.4467 39.1328 72.025 38.5852 73.6641 38.3582C75.3031 38.1312 76.9708 38.2293 78.572 38.6468C80.1731 39.0643 81.6764 39.7931 82.9959 40.7916C84.3154 41.7901 85.4253 43.0387 86.2622 44.4661C87.0992 45.8935 87.6468 47.4718 87.8738 49.1109C88.1008 50.7499 88.0027 52.4176 87.5852 54.0188C86.742 57.2525 84.6487 60.0187 81.7659 61.709C78.8831 63.3993 75.4469 63.8752 72.2132 63.032C68.9795 62.1888 66.2132 60.0955 64.5229 57.2127C62.8326 54.3299 62.3568 50.8937 63.2 47.66ZM155.6 141.488C155.807 142.572 155.798 143.687 155.574 144.768C155.35 145.849 154.915 146.875 154.294 147.788C153.673 148.701 152.878 149.482 151.955 150.088C151.032 150.693 149.998 151.11 148.914 151.316H148.88C147.139 151.668 145.331 151.46 143.716 150.72C142.101 149.981 140.763 148.748 139.892 147.2L125.78 118.892L113.6 121.328L111.752 122H111.248V140.06L116.456 138.8H117.632C118.635 138.819 119.6 139.182 120.367 139.829C121.133 140.476 121.654 141.367 121.841 142.352C122.028 143.337 121.871 144.357 121.395 145.24C120.919 146.122 120.154 146.815 119.228 147.2L77.228 155.6C76.7553 155.68 76.2726 155.68 75.8 155.6C74.7902 155.6 73.8116 155.25 73.0307 154.61C72.2498 153.97 71.7148 153.079 71.5168 152.089C71.3188 151.098 71.4699 150.07 71.9445 149.179C72.4191 148.288 73.1879 147.588 74.12 147.2L108.98 140.228V122L81.932 126.872C79.8279 127.421 77.5932 127.132 75.6976 126.067C73.8021 125.001 72.3935 123.242 71.768 121.16H71.6L63.2 86.972C62.9381 85.7822 62.9381 84.5498 63.2 83.36C63.5847 81.7695 64.4256 80.3259 65.6194 79.2067C66.8133 78.0875 68.308 77.3414 69.92 77.06L109.4 72.692V38H111.248V72.44H111.752L113.6 72.272L116.96 71.6H118.724C119.803 71.8593 120.735 72.5348 121.317 73.4791C121.9 74.4234 122.085 75.5597 121.832 76.64C121.653 77.5961 121.142 78.458 120.389 79.0731C119.635 79.6881 118.688 80.0165 117.716 80L113.6 80.672H111.248V104.696H111.752L113.6 104.192L128.804 101.168C130.555 101.024 132.308 101.433 133.815 102.337C135.322 103.241 136.507 104.595 137.204 106.208L154.004 139.304C154.651 139.941 155.19 140.678 155.6 141.488ZM109.4 81.092L88.4 83.36L94.616 108.056L109.4 105.2V81.092Z" fill="#2C4569"/>
</svg>
