<svg width="106" height="106" viewBox="0 0 106 106" fill="none" xmlns="http://www.w3.org/2000/svg">
<path d="M50.3058 24.0708L42.4441 20.0958L48.0091 8.83333H85.4183L91.0275 20.0958L83.1658 24.0267L79.9858 17.6667H53.4858L50.3058 24.0708ZM95.9741 35.3333H75.9666L72.4774 22.0833H60.9941L57.4166 35.3333H37.5416L31.8441 46.5958L39.75 50.5267L42.9741 44.1667H90.5416L93.6774 50.5708L101.583 46.64L95.9741 35.3333ZM92.2199 97.1667H83.0774L82.0174 93.1917L66.7358 70.225L51.41 93.1917L50.3941 97.1667H41.2516L54.0158 48.5833H63.1583L61.5683 54.5458L66.7358 62.275L71.8591 54.5458L70.3133 48.5833H79.4999L92.2199 97.1667ZM64.0416 66.25L60.1108 60.2875L54.8991 80.0742L64.0416 66.25ZM78.5725 80.03L73.3608 60.2433L69.3858 66.25L78.5725 80.03ZM39.75 70.6667L22.0833 53V66.25H4.41663V75.0833H22.0833V88.3333L39.75 70.6667Z" fill="#2C4569"/>
</svg>
