<svg width="105" height="105" viewBox="0 0 105 105" fill="none" xmlns="http://www.w3.org/2000/svg">
<path d="M84.4922 85.3125H83.6719V84.4922C83.67 83.009 83.0949 81.584 82.0668 80.515C81.0387 79.4461 79.6372 78.8158 78.1553 78.7562C79.1586 77.8762 79.8698 76.7113 80.194 75.4167C80.5182 74.1222 80.4401 72.7596 79.97 71.5106C79.4999 70.2616 78.6601 69.1857 77.5628 68.4262C76.4654 67.6667 75.1626 67.2599 73.8281 67.2599C72.4936 67.2599 71.1908 67.6667 70.0935 68.4262C68.9961 69.1857 68.1564 70.2616 67.6863 71.5106C67.2162 72.7596 67.138 74.1222 67.4622 75.4167C67.7865 76.7113 68.4977 77.8762 69.501 78.7562C68.019 78.8158 66.6175 79.4461 65.5894 80.515C64.5613 81.584 63.9862 83.009 63.9844 84.4922V85.3125H62.3438V84.4922C62.3419 83.009 61.7668 81.584 60.7387 80.515C59.7106 79.4461 58.3091 78.8158 56.8271 78.7562C57.8305 77.8762 58.5417 76.7113 58.8659 75.4167C59.1901 74.1222 59.1119 72.7596 58.6418 71.5106C58.1717 70.2616 57.332 69.1857 56.2347 68.4262C55.1373 67.6667 53.8345 67.2599 52.5 67.2599C51.1655 67.2599 49.8627 67.6667 48.7653 68.4262C47.668 69.1857 46.8283 70.2616 46.3582 71.5106C45.8881 72.7596 45.8099 74.1222 46.1341 75.4167C46.4583 76.7113 47.1695 77.8762 48.1729 78.7562C46.6909 78.8158 45.2894 79.4461 44.2613 80.515C43.2332 81.584 42.6581 83.009 42.6562 84.4922V85.3125H41.0156V84.4922C41.0138 83.009 40.4387 81.584 39.4106 80.515C38.3825 79.4461 36.981 78.8158 35.499 78.7562C36.5023 77.8762 37.2135 76.7113 37.5378 75.4167C37.862 74.1222 37.7838 72.7596 37.3137 71.5106C36.8436 70.2616 36.0039 69.1857 34.9065 68.4262C33.8092 67.6667 32.5064 67.2599 31.1719 67.2599C29.8374 67.2599 28.5345 67.6667 27.4372 68.4262C26.3399 69.1857 25.5001 70.2616 25.03 71.5106C24.5599 72.7596 24.4818 74.1222 24.806 75.4167C25.1302 76.7113 25.8414 77.8762 26.8447 78.7562C25.3628 78.8158 23.9613 79.4461 22.9332 80.515C21.9051 81.584 21.33 83.009 21.3281 84.4922V85.3125H20.5078C18.9854 85.3142 17.5258 85.9197 16.4493 86.9962C15.3728 88.0727 14.7673 89.5323 14.7656 91.0547V100.078C14.7656 100.513 14.9385 100.931 15.2462 101.238C15.5538 101.546 15.9711 101.719 16.4062 101.719H88.5938C89.0289 101.719 89.4462 101.546 89.7538 101.238C90.0615 100.931 90.2344 100.513 90.2344 100.078V91.0547C90.2327 89.5323 89.6272 88.0727 88.5507 86.9962C87.4742 85.9197 86.0146 85.3142 84.4922 85.3125ZM73.8281 70.5469C74.4771 70.5469 75.1115 70.7393 75.6511 71.0999C76.1907 71.4604 76.6113 71.9729 76.8596 72.5724C77.108 73.172 77.1729 73.8318 77.0463 74.4683C76.9197 75.1048 76.6072 75.6894 76.1483 76.1483C75.6894 76.6072 75.1048 76.9197 74.4683 77.0463C73.8318 77.1729 73.172 77.108 72.5724 76.8596C71.9729 76.6113 71.4604 76.1907 71.0999 75.6511C70.7393 75.1115 70.5469 74.4771 70.5469 73.8281C70.548 72.9582 70.8941 72.1243 71.5092 71.5092C72.1243 70.8941 72.9582 70.548 73.8281 70.5469ZM67.2656 84.4922C67.2662 83.8397 67.5256 83.214 67.987 82.7526C68.4484 82.2912 69.074 82.0318 69.7266 82.0312H77.9297C78.5822 82.0318 79.2078 82.2912 79.6692 82.7526C80.1306 83.214 80.3901 83.8397 80.3906 84.4922V85.3125H67.2656V84.4922ZM52.5 70.5469C53.149 70.5469 53.7834 70.7393 54.323 71.0999C54.8626 71.4604 55.2831 71.9729 55.5315 72.5724C55.7798 73.172 55.8448 73.8318 55.7182 74.4683C55.5916 75.1048 55.2791 75.6894 54.8202 76.1483C54.3613 76.6072 53.7766 76.9197 53.1401 77.0463C52.5036 77.1729 51.8439 77.108 51.2443 76.8596C50.6447 76.6113 50.1323 76.1907 49.7717 75.6511C49.4112 75.1115 49.2188 74.4771 49.2188 73.8281C49.2199 72.9582 49.566 72.1243 50.1811 71.5092C50.7962 70.8941 51.6301 70.548 52.5 70.5469ZM45.9375 84.4922C45.938 83.8397 46.1975 83.214 46.6589 82.7526C47.1203 82.2912 47.7459 82.0318 48.3984 82.0312H56.6016C57.2541 82.0318 57.8797 82.2912 58.3411 82.7526C58.8025 83.214 59.062 83.8397 59.0625 84.4922V85.3125H45.9375V84.4922ZM31.1719 70.5469C31.8208 70.5469 32.4552 70.7393 32.9948 71.0999C33.5344 71.4604 33.955 71.9729 34.2034 72.5724C34.4517 73.172 34.5167 73.8318 34.3901 74.4683C34.2635 75.1048 33.951 75.6894 33.4921 76.1483C33.0332 76.6072 32.4485 76.9197 31.812 77.0463C31.1755 77.1729 30.5158 77.108 29.9162 76.8596C29.3166 76.6113 28.8042 76.1907 28.4436 75.6511C28.0831 75.1115 27.8906 74.4771 27.8906 73.8281C27.8918 72.9582 28.2378 72.1243 28.8529 71.5092C29.468 70.8941 30.302 70.548 31.1719 70.5469ZM24.6094 84.4922C24.6099 83.8397 24.8694 83.214 25.3308 82.7526C25.7922 82.2912 26.4178 82.0318 27.0703 82.0312H35.2734C35.926 82.0318 36.5516 82.2912 37.013 82.7526C37.4744 83.214 37.7338 83.8397 37.7344 84.4922V85.3125H24.6094V84.4922ZM86.9531 98.4375H18.0469V91.0547C18.0474 90.4022 18.3069 89.7765 18.7683 89.3151C19.2297 88.8537 19.8553 88.5943 20.5078 88.5938H84.4922C85.1447 88.5943 85.7703 88.8537 86.2317 89.3151C86.6931 89.7765 86.9526 90.4022 86.9531 91.0547V98.4375ZM18.2023 63.977C41.0161 61.8097 63.9839 61.8097 86.7977 63.977C86.8495 63.9819 86.9013 63.9844 86.9531 63.9844C87.3882 63.9844 87.8055 63.8115 88.1132 63.5038C88.4209 63.1962 88.5938 62.7789 88.5938 62.3437V19.6875C88.5938 19.4589 88.546 19.2329 88.4535 19.0239C88.3611 18.8149 88.226 18.6275 88.0569 18.4737C87.8878 18.3199 87.6884 18.2032 87.4716 18.131C87.2547 18.0587 87.0252 18.0326 86.7977 18.0543C63.9839 20.2215 41.0161 20.2215 18.2023 18.0543C17.9748 18.0326 17.7453 18.0587 17.5284 18.131C17.3116 18.2032 17.1122 18.3199 16.9431 18.4737C16.774 18.6275 16.6389 18.8149 16.5465 19.0239C16.454 19.2329 16.4063 19.4589 16.4062 19.6875V62.3437C16.4063 62.5723 16.454 62.7983 16.5465 63.0074C16.6389 63.2164 16.774 63.4038 16.9431 63.5576C17.1122 63.7113 17.3116 63.8281 17.5284 63.9003C17.7453 63.9725 17.9748 63.9986 18.2023 63.977ZM19.6875 21.4873C41.5184 23.4519 63.4816 23.4519 85.3125 21.4873V60.544C74.421 59.5617 63.4604 59.0703 52.5 59.0703C41.5396 59.0703 30.579 59.5625 19.6875 60.544V21.4873Z" fill="#2C4569"/>
<path d="M62.3438 41.0156C62.3437 40.711 62.2589 40.4123 62.0987 40.1532C61.9386 39.894 61.7094 39.6846 61.4369 39.5483L48.3119 32.9858C48.0618 32.8607 47.7838 32.8017 47.5044 32.8142C47.2251 32.8268 46.9535 32.9105 46.7156 33.0576C46.4778 33.2046 46.2814 33.41 46.1452 33.6542C46.009 33.8985 45.9375 34.1735 45.9375 34.4531V47.5781C45.9375 47.8578 46.009 48.1328 46.1452 48.377C46.2814 48.6213 46.4778 48.8267 46.7156 48.9737C46.9535 49.1207 47.2251 49.2045 47.5044 49.217C47.7838 49.2296 48.0618 49.1705 48.3119 49.0455L61.4369 42.483C61.7094 42.3467 61.9386 42.1373 62.0987 41.8781C62.2589 41.6189 62.3437 41.3203 62.3438 41.0156ZM49.2188 44.9236V37.1077L57.0345 41.0156L49.2188 44.9236ZM11.4844 55.7812C12.3543 55.7802 13.1883 55.4342 13.8034 54.8191C14.4186 54.2039 14.7646 53.3699 14.7656 52.5V36.0938C14.7646 35.2238 14.4186 34.3898 13.8034 33.7747C13.1883 33.1596 12.3543 32.8135 11.4844 32.8125H4.92188C4.05195 32.8135 3.21795 33.1596 2.60282 33.7747C1.98769 34.3898 1.64166 35.2238 1.64062 36.0938V52.5C1.64166 53.3699 1.98769 54.2039 2.60282 54.8191C3.21795 55.4342 4.05195 55.7802 4.92188 55.7812H6.5625V62.3438H4.92188C4.48675 62.3438 4.06945 62.5166 3.76178 62.8243C3.4541 63.132 3.28125 63.5493 3.28125 63.9844C3.28125 64.4195 3.4541 64.8368 3.76178 65.1445C4.06945 65.4521 4.48675 65.625 4.92188 65.625H11.4844C11.9195 65.625 12.3368 65.4521 12.6445 65.1445C12.9521 64.8368 13.125 64.4195 13.125 63.9844C13.125 63.5493 12.9521 63.132 12.6445 62.8243C12.3368 62.5166 11.9195 62.3438 11.4844 62.3438H9.84375V55.7812H11.4844ZM4.92188 36.0938H11.4844L11.4864 52.5H4.92188V36.0938Z" fill="#2C4569"/>
<path d="M8.20312 41.0156C9.10922 41.0156 9.84375 40.2811 9.84375 39.375C9.84375 38.4689 9.10922 37.7344 8.20312 37.7344C7.29703 37.7344 6.5625 38.4689 6.5625 39.375C6.5625 40.2811 7.29703 41.0156 8.20312 41.0156Z" fill="#2C4569"/>
<path d="M8.20312 45.9375C9.10922 45.9375 9.84375 45.203 9.84375 44.2969C9.84375 43.3908 9.10922 42.6562 8.20312 42.6562C7.29703 42.6562 6.5625 43.3908 6.5625 44.2969C6.5625 45.203 7.29703 45.9375 8.20312 45.9375Z" fill="#2C4569"/>
<path d="M8.20312 50.8594C9.10922 50.8594 9.84375 50.1248 9.84375 49.2188C9.84375 48.3127 9.10922 47.5781 8.20312 47.5781C7.29703 47.5781 6.5625 48.3127 6.5625 49.2188C6.5625 50.1248 7.29703 50.8594 8.20312 50.8594Z" fill="#2C4569"/>
<path d="M100.078 32.8125H93.5156C92.6457 32.8135 91.8117 33.1596 91.1966 33.7747C90.5814 34.3898 90.2354 35.2238 90.2344 36.0938V52.5C90.2354 53.3699 90.5814 54.2039 91.1966 54.8191C91.8117 55.4342 92.6457 55.7802 93.5156 55.7812H95.1562V62.3438H93.5156C93.0805 62.3438 92.6632 62.5166 92.3555 62.8243C92.0478 63.132 91.875 63.5493 91.875 63.9844C91.875 64.4195 92.0478 64.8368 92.3555 65.1445C92.6632 65.4521 93.0805 65.625 93.5156 65.625H100.078C100.513 65.625 100.931 65.4521 101.238 65.1445C101.546 64.8368 101.719 64.4195 101.719 63.9844C101.719 63.5493 101.546 63.132 101.238 62.8243C100.931 62.5166 100.513 62.3438 100.078 62.3438H98.4375V55.7812H100.078C100.948 55.7802 101.782 55.4342 102.397 54.8191C103.012 54.2039 103.358 53.3699 103.359 52.5V36.0938C103.358 35.2238 103.012 34.3898 102.397 33.7747C101.782 33.1596 100.948 32.8135 100.078 32.8125ZM100.078 52.5H93.5156V36.0938H100.078L100.08 52.5H100.078Z" fill="#2C4569"/>
<path d="M96.7969 45.9375C97.703 45.9375 98.4375 45.203 98.4375 44.2969C98.4375 43.3908 97.703 42.6562 96.7969 42.6562C95.8908 42.6562 95.1562 43.3908 95.1562 44.2969C95.1562 45.203 95.8908 45.9375 96.7969 45.9375Z" fill="#2C4569"/>
<path d="M96.7969 41.0156C97.703 41.0156 98.4375 40.2811 98.4375 39.375C98.4375 38.4689 97.703 37.7344 96.7969 37.7344C95.8908 37.7344 95.1562 38.4689 95.1562 39.375C95.1562 40.2811 95.8908 41.0156 96.7969 41.0156Z" fill="#2C4569"/>
<path d="M96.7969 50.8594C97.703 50.8594 98.4375 50.1248 98.4375 49.2188C98.4375 48.3127 97.703 47.5781 96.7969 47.5781C95.8908 47.5781 95.1562 48.3127 95.1562 49.2188C95.1562 50.1248 95.8908 50.8594 96.7969 50.8594Z" fill="#2C4569"/>
</svg>
