<svg width="90" height="90" viewBox="0 0 90 90" fill="none" xmlns="http://www.w3.org/2000/svg">
<g clip-path="url(#clip0_256_1318)">
<path d="M77.3344 90C74.0494 90 72.285 88.7738 70.8675 87.7894C69.63 86.9287 68.6531 86.25 66.5438 86.25C64.4363 86.25 63.4594 86.9287 62.2219 87.7894C60.8063 88.7738 59.0438 90 55.7606 90C52.4794 90 50.7188 88.7738 49.3031 87.7894C48.0675 86.9287 47.0906 86.25 44.9869 86.25C42.8794 86.25 41.9025 86.9287 40.6669 87.7894C39.2512 88.7738 37.4888 90 34.2056 90C30.9225 90 29.1619 88.7738 27.7463 87.7894C26.5106 86.9287 25.5356 86.25 23.43 86.25C21.3225 86.25 20.3475 86.9287 19.1119 87.7894C17.6962 88.7738 15.9338 90 12.6525 90C9.37125 90 7.60875 88.7738 6.19312 87.7894C4.9575 86.9287 3.9825 86.25 1.875 86.25C0.84 86.25 0 85.41 0 84.375C0 83.34 0.84 82.5 1.875 82.5C5.15812 82.5 6.91875 83.7262 8.33438 84.7106C9.57 85.5713 10.5469 86.25 12.6525 86.25C14.76 86.25 15.735 85.5713 16.9706 84.7106C18.3844 83.7262 20.1469 82.5 23.43 82.5C26.7131 82.5 28.4737 83.7262 29.8894 84.7106C31.1231 85.5713 32.1 86.25 34.2056 86.25C36.3112 86.25 37.2881 85.5713 38.5238 84.7106C39.9412 83.7262 41.7038 82.5 44.9869 82.5C48.2681 82.5 50.0288 83.7262 51.4444 84.7106C52.68 85.5713 53.655 86.25 55.7606 86.25C57.8681 86.25 58.845 85.5713 60.0825 84.7106C61.4962 83.7262 63.2588 82.5 66.5438 82.5C69.8288 82.5 71.5912 83.7262 73.0088 84.7106C74.2462 85.5713 75.225 86.25 77.3344 86.25C79.4437 86.25 80.4206 85.5713 81.66 84.7106C83.0775 83.7262 84.84 82.5 88.125 82.5C89.16 82.5 90 83.34 90 84.375C90 85.41 89.16 86.25 88.125 86.25C86.0156 86.25 85.0387 86.9287 83.7994 87.7894C82.3838 88.7738 80.6194 90 77.3344 90ZM77.325 80.625C74.0475 80.625 72.2887 79.4006 70.875 78.4162C69.6356 77.5556 68.6588 76.875 66.5438 76.875C64.4288 76.875 63.4519 77.5556 62.2125 78.4162C60.7988 79.4006 59.0381 80.625 55.7625 80.625C52.485 80.625 50.7262 79.4006 49.3125 78.4162C48.0731 77.5556 47.0962 76.875 44.9813 76.875C42.8812 76.875 41.9062 77.5537 40.6725 78.4125C39.255 79.3988 37.4906 80.625 34.2 80.625C33.1406 80.625 32.1994 80.5031 31.3219 80.2519C29.7638 79.8225 28.6856 79.0706 27.7331 78.4088C26.5031 77.5519 25.53 76.875 23.4375 76.875C21.3188 76.875 20.3381 77.5556 19.0987 78.4181C18.4781 78.8475 17.7769 79.3369 16.92 79.7363C15.66 80.34 14.2987 80.625 12.6562 80.625C9.36563 80.625 7.60125 79.3988 6.18375 78.4125C4.95 77.5537 3.975 76.875 1.875 76.875C0.84 76.875 0 76.035 0 75C0 73.965 0.84 73.125 1.875 73.125C5.1525 73.125 6.91125 74.3494 8.325 75.3338C9.56437 76.1944 10.5431 76.875 12.6562 76.875C13.7325 76.875 14.5519 76.7119 15.315 76.3462C15.8981 76.0725 16.4119 75.7162 16.9575 75.3375C18.3769 74.3512 20.1431 73.125 23.4375 73.125C26.7075 73.125 28.4644 74.3475 29.8762 75.3319C30.6844 75.8925 31.38 76.3781 32.3363 76.6425C32.8894 76.8 33.4931 76.875 34.2 76.875C36.3131 76.875 37.2919 76.1944 38.5312 75.3338C39.945 74.3494 41.7056 73.125 44.9813 73.125C48.2719 73.125 50.0362 74.3512 51.4538 75.3375C52.6875 76.1963 53.6625 76.875 55.7625 76.875C57.8625 76.875 58.8375 76.1963 60.0712 75.3394C61.4887 74.3531 63.2531 73.125 66.5438 73.125C69.8344 73.125 71.5988 74.3512 73.0163 75.3375C74.25 76.1963 75.225 76.875 77.325 76.875C79.4381 76.875 80.4169 76.1963 81.6562 75.3356C83.0737 74.3494 84.8381 73.125 88.125 73.125C89.16 73.125 90 73.965 90 75C90 76.035 89.16 76.875 88.125 76.875C86.0119 76.875 85.0331 77.5537 83.7937 78.4144C82.3781 79.4006 80.6119 80.625 77.325 80.625ZM6.29812 68.7375C5.95312 68.7375 5.60437 68.6419 5.29125 68.4431C4.40438 67.8769 3.48187 67.5 1.875 67.5C0.84 67.5 0 66.66 0 65.625C0 64.59 0.84 63.75 1.875 63.75C4.56187 63.75 6.18937 64.5694 7.30875 65.2819C8.18062 65.8388 8.4375 66.9994 7.88063 67.8713C7.5225 68.4319 6.91687 68.7375 6.29812 68.7375ZM55.7625 71.25C52.485 71.25 50.7262 70.0256 49.3125 69.0412C48.0731 68.1806 47.0962 67.5 44.9813 67.5C43.965 67.665 42.9788 66.9713 42.8119 65.9475C42.645 64.9256 43.32 63.9581 44.3419 63.7931C44.5556 63.7575 44.7675 63.75 44.9813 63.75C48.2719 63.75 50.0362 64.9762 51.4538 65.9625C52.6875 66.8213 53.6625 67.5 55.7625 67.5C57.8625 67.5 58.8375 66.8213 60.0712 65.9644C61.4887 64.9781 63.2531 63.75 66.5438 63.75C68.2256 63.75 69.6319 64.0556 70.9688 64.71C71.8988 65.1656 72.2831 66.2887 71.8275 67.2187C71.3719 68.1487 70.2525 68.535 69.3188 68.0775C68.7694 67.8094 67.9594 67.5 66.5438 67.5C64.4288 67.5 63.4519 68.1806 62.2125 69.0412C60.7988 70.0256 59.0381 71.25 55.7625 71.25ZM86.3231 67.6688C85.4588 67.6688 84.6806 67.0669 84.4912 66.1875C84.2738 65.175 84.9188 64.1775 85.9313 63.96C86.5819 63.8213 87.3187 63.75 88.125 63.75C89.16 63.75 90 64.59 90 65.625C90 66.66 89.16 67.5 88.125 67.5C87.5831 67.5 87.1106 67.5431 86.7188 67.6256C86.5856 67.6556 86.4525 67.6688 86.3231 67.6688ZM67.5 33.75C61.2956 33.75 56.25 28.7044 56.25 22.5C56.25 16.2956 61.2956 11.25 67.5 11.25C73.7044 11.25 78.75 16.2956 78.75 22.5C78.75 28.7044 73.7044 33.75 67.5 33.75ZM67.5 15C63.3638 15 60 18.3637 60 22.5C60 26.6363 63.3638 30 67.5 30C71.6363 30 75 26.6363 75 22.5C75 18.3637 71.6363 15 67.5 15Z" fill="#2C4569"/>
<path d="M77.325 71.25C74.0625 71.25 72.3 70.0294 70.8825 69.0469C70.3593 68.6831 69.8643 68.3419 69.3281 68.0813C69.1387 67.9894 68.9662 67.8675 68.8181 67.7194L57.0187 55.92L45.9693 66.9694C45.63 67.3087 45.1725 67.5056 44.6925 67.5169C42.7837 67.5675 41.85 68.2162 40.6687 69.0394C39.2512 70.0238 37.4887 71.25 34.2 71.25C30.9206 71.25 29.16 70.0238 27.7462 69.0375C26.5143 68.1787 25.5393 67.5 23.4375 67.5C21.3243 67.5 20.3456 68.1806 19.1062 69.0412C17.6925 70.0256 15.9337 71.25 12.6562 71.25C9.37122 71.25 7.59934 70.0238 6.17622 69.0356C5.89122 68.8388 5.60622 68.64 5.30622 68.4525C4.8206 68.1488 4.49997 67.6425 4.43622 67.0744C4.3706 66.5062 4.56935 65.94 4.97435 65.535L33.9825 36.525L17.0325 18.1462C16.3518 17.4056 16.3743 16.26 17.0868 15.5494L32.0868 0.549371C32.82 -0.183754 34.005 -0.183754 34.7381 0.549371L42.2381 8.04937C42.9712 8.7825 42.9712 9.96749 42.2381 10.7006L37.9425 14.9962L87.57 64.2956C87.735 64.4587 87.8681 64.65 87.9618 64.8619C88.1943 65.385 88.2131 66.0694 87.9506 66.5756C87.6862 67.0837 87.2437 67.5262 86.6812 67.635C85.4943 67.8656 84.7462 68.3831 83.7975 69.0412C82.38 70.0256 80.6137 71.25 77.325 71.25ZM71.2575 64.8562C71.9268 65.2087 72.5025 65.6062 73.0162 65.9644C74.2575 66.8231 75.2343 67.5 77.325 67.5C79.44 67.5 80.4206 66.8194 81.6618 65.9588C82.0856 65.6663 82.5281 65.3569 83.0287 65.0662L33.9656 16.3294C33.6112 15.9769 33.4125 15.5006 33.4125 15.0019C33.4125 14.5031 33.6093 14.025 33.9618 13.6744L38.2612 9.375L33.4125 4.52625L21.0112 16.9275L37.9593 35.31C38.64 36.0506 38.6175 37.1944 37.9068 37.9069L9.24185 66.5719C10.1362 67.1213 11.0831 67.5 12.6562 67.5C14.7562 67.5 15.7312 66.8213 16.965 65.9625C18.3825 64.9762 20.1468 63.75 23.4375 63.75C26.7168 63.75 28.4775 64.9762 29.8912 65.9625C31.125 66.8213 32.0981 67.5 34.2 67.5C36.3112 67.5 37.29 66.8213 38.5275 65.9606C39.7612 65.1019 41.2687 64.0537 43.8206 63.8156L55.6931 51.9431C56.4262 51.21 57.6112 51.21 58.3443 51.9431L71.2575 64.8562Z" fill="#2C4569"/>
</g>
<defs>
<clipPath id="clip0_256_1318">
<rect width="90" height="90" fill="white"/>
</clipPath>
</defs>
</svg>
