<svg width="134" height="100" viewBox="0 0 134 100" fill="none" xmlns="http://www.w3.org/2000/svg">
<path d="M72.9871 21.2039C74.8848 23.1898 75.9512 25.395 75.9443 28.146C75.9452 28.4912 75.9461 28.8364 75.9469 29.192C75.9024 30.2013 75.9024 30.2013 75.69 31.1268C75.6494 31.3751 75.6087 31.6234 75.5668 31.8792C75.7883 32.1007 76.0098 32.3221 76.2379 32.5503C76.3415 32.2691 76.3415 32.2691 76.4471 31.9822C79.4554 23.9013 79.4554 23.9013 81.94 22.4203C83.0004 21.9912 83.8311 22.0306 84.9628 22.1476C87.9789 23.5018 89.1389 27.0348 90.3057 29.913C90.6765 30.8963 91.0134 31.8867 91.3386 32.8859C91.6224 32.789 91.9062 32.6921 92.1985 32.5923C92.5792 32.4677 92.9598 32.3431 93.352 32.2148C93.6981 32.0902 94.0442 31.9656 94.4007 31.8372C97.5533 31.1254 100.555 31.3282 103.419 32.8859C105.98 34.7151 108.206 37.077 108.788 40.2685C109.081 44.348 108.595 47.5039 105.979 50.755C104.391 52.4614 102.605 53.3397 100.399 54.0268C99.9561 54.0268 99.5131 54.0268 99.0567 54.0268C99.0567 55.7987 99.0567 57.5705 99.0567 59.396C100.087 59.3668 100.087 59.3668 101.138 59.337C101.806 59.3253 102.473 59.3137 103.141 59.3038C103.604 59.2954 104.067 59.2839 104.529 59.2694C105.195 59.249 105.862 59.2404 106.528 59.2321C107.129 59.2189 107.129 59.2189 107.743 59.2055C108.788 59.396 108.788 59.396 109.514 60.1114C110.247 61.2555 110.302 61.8901 110.31 63.24C110.315 63.6711 110.32 64.1023 110.326 64.5465C110.324 65.0143 110.323 65.4822 110.321 65.9501C110.322 66.4327 110.324 66.9153 110.327 67.3979C110.33 68.4078 110.329 69.4175 110.324 70.4274C110.318 71.7195 110.326 73.0111 110.338 74.3032C110.345 75.2993 110.345 76.2953 110.342 77.2914C110.342 77.7677 110.344 78.244 110.349 78.7203C110.355 79.3867 110.349 80.0533 110.342 80.7198C110.342 81.0985 110.342 81.4772 110.341 81.8674C110.055 83.2512 109.589 83.7362 108.453 84.5638C107.546 84.7219 106.854 84.778 105.952 84.7542C105.706 84.7545 105.46 84.7547 105.207 84.755C104.399 84.7538 103.592 84.7408 102.783 84.7276C102.222 84.7245 101.66 84.7221 101.098 84.7204C99.622 84.714 98.1464 84.6975 96.6707 84.679C95.1636 84.6618 93.6565 84.6541 92.1494 84.6457C89.1944 84.6277 86.2397 84.5991 83.2849 84.5638C82.9074 83.7877 82.9074 83.7877 82.6138 82.8859C82.8353 82.5537 83.0567 82.2215 83.2849 81.8792C84.2829 81.7581 84.2829 81.7581 85.579 81.7649C85.8148 81.7648 86.0505 81.7646 86.2934 81.7645C87.0743 81.7652 87.8549 81.773 88.6357 81.7809C89.1764 81.7828 89.7172 81.7842 90.2579 81.7852C91.6824 81.789 93.1067 81.7989 94.5312 81.8101C96.2396 81.8222 97.948 81.8268 99.6564 81.8327C102.253 81.8424 104.849 81.8617 107.446 81.8792C107.446 78.1141 107.446 74.349 107.446 70.4698C106.645 70.4713 105.845 70.4728 105.02 70.4743C97.4889 70.488 89.9583 70.498 82.4277 70.5046C78.5558 70.508 74.6838 70.5128 70.8119 70.5204C67.438 70.5271 64.0641 70.5314 60.6901 70.5329C58.9029 70.5338 57.1157 70.5359 55.3284 70.5408C53.6475 70.5453 51.9666 70.5467 50.2856 70.5457C49.6675 70.5459 49.0494 70.5472 48.4313 70.5498C47.5896 70.5531 46.7481 70.5523 45.9064 70.5505C45.5367 70.5534 45.5367 70.5534 45.1595 70.5564C43.9212 70.5491 43.4051 70.5051 42.3453 69.7987C42.4712 68.8129 42.4712 68.8129 42.6809 67.7852C43.6979 67.2768 44.7507 67.4049 45.866 67.4093C46.1283 67.409 46.3906 67.4087 46.6609 67.4084C47.5445 67.4079 48.4282 67.4097 49.3119 67.4116C49.9434 67.4117 50.575 67.4116 51.2065 67.4114C52.9252 67.4113 54.6439 67.4133 56.3625 67.4156C58.1571 67.4177 59.9517 67.4179 61.7463 67.4183C65.1464 67.4194 68.5466 67.4221 71.9467 67.4255C75.8169 67.4292 79.687 67.4311 83.5572 67.4328C91.5201 67.4363 99.4831 67.4423 107.446 67.4497C107.446 65.6778 107.446 63.906 107.446 62.0805C80.8688 62.0805 54.2916 62.0805 26.9091 62.0805C26.9091 63.8523 26.9091 65.6242 26.9091 67.4497C27.7695 67.4419 28.6299 67.4341 29.5163 67.4261C30.3493 67.4208 31.1822 67.4168 32.0152 67.4128C32.5942 67.4094 33.1733 67.4048 33.7523 67.399C34.5845 67.3909 35.4165 67.3871 36.2487 67.3841C36.5077 67.3807 36.7668 67.3772 37.0337 67.3736C38.3161 67.3734 38.9028 67.3918 39.9963 68.1208C40.1222 68.9597 40.1222 68.9597 39.9963 69.7987C38.7251 70.6462 37.7194 70.555 36.2487 70.5353C35.982 70.5344 35.7153 70.5334 35.4405 70.5325C34.5891 70.5287 33.7378 70.5203 32.8864 70.5117C32.309 70.5084 31.7316 70.5053 31.1542 70.5026C29.7391 70.4957 28.3242 70.4826 26.9091 70.4698C26.9091 74.2349 26.9091 78 26.9091 81.8792C44.4057 81.8792 61.9024 81.8792 79.9292 81.8792C80.2614 82.7097 80.2614 82.7097 80.6004 83.557C80.3789 83.8893 80.1574 84.2215 79.9292 84.5638C79.0076 84.6923 79.0076 84.6923 77.8087 84.6961C77.4787 84.6992 77.4787 84.6992 77.142 84.7023C76.4013 84.7079 75.6609 84.7063 74.9202 84.7047C74.3905 84.7071 73.8608 84.71 73.3312 84.7133C71.8897 84.7208 70.4483 84.7217 69.0068 84.7211C67.8043 84.721 66.6018 84.7239 65.3993 84.7267C62.5622 84.7332 59.7251 84.7341 56.888 84.7319C53.9601 84.7296 51.0323 84.7373 48.1044 84.7498C45.5923 84.7601 43.0801 84.7639 40.5679 84.7626C39.0669 84.7619 37.5659 84.7637 36.0648 84.7719C34.6526 84.7794 33.2406 84.7788 31.8284 84.7719C31.3102 84.7708 30.7919 84.7725 30.2737 84.7773C29.5658 84.7834 28.8586 84.7791 28.1507 84.7723C27.7547 84.7725 27.3587 84.7728 26.9507 84.773C25.5853 84.5005 25.0831 83.9592 24.2245 82.8859C24.0137 81.8674 24.0137 81.8674 24.0127 80.7198C24.0064 80.073 24.0064 80.073 24 79.4132C24.0041 78.9454 24.0086 78.4775 24.0135 78.0096C24.0132 77.527 24.0124 77.0444 24.011 76.5618C24.0101 75.5519 24.015 74.5422 24.0242 73.5324C24.0357 72.2403 24.0336 70.9486 24.0273 69.6565C24.0238 68.6604 24.0268 67.6644 24.0318 66.6683C24.0336 66.192 24.0334 65.7157 24.0313 65.2394C24.0295 64.5729 24.0373 63.9064 24.0455 63.24C24.0476 62.8613 24.0497 62.4825 24.0518 62.0924C24.2632 60.8456 24.6757 60.2797 25.5668 59.396C26.5509 59.2055 26.5509 59.2055 27.6799 59.2321C28.0843 59.2375 28.4888 59.2429 28.9055 59.2485C29.3264 59.2626 29.7473 59.2766 30.1809 59.2911C30.607 59.2987 31.0331 59.3062 31.4721 59.314C32.5239 59.3338 33.5756 59.3639 34.6272 59.396C34.6272 57.6242 34.6272 55.8523 34.6272 54.0268C33.4645 53.8607 33.4645 53.8607 32.2782 53.6913C28.9954 52.5143 27.095 50.3764 25.5668 47.3154C24.472 44.5858 24.4106 41.2731 25.378 38.4857C26.8862 35.3107 29.3387 33.0953 32.6138 31.8792C35.1477 31.0873 37.9123 31.3405 40.3529 32.2973C41.0106 32.5533 41.66 32.7207 42.3453 32.8859C42.4042 32.7103 42.463 32.5348 42.5237 32.3539C45.4174 23.833 45.4174 23.833 48.7212 22.1476C50.2134 21.9577 51.3443 22.025 52.5697 22.9669C55.1519 25.5951 56.2796 29.1451 57.446 32.5503C57.8236 31.9353 57.8236 31.9353 58.1171 31.208C58.0064 30.8758 57.8957 30.5436 57.7816 30.2013C57.4822 26.9328 58.0448 24.7575 59.8579 22.0638C63.7364 18.2715 68.5892 18.2996 72.9871 21.2039ZM61.8084 24.1611C60.5912 25.6391 60.4542 27.333 60.4661 29.1946C60.754 30.2827 60.754 30.2827 61.1373 31.208C61.2756 32.2973 61.2569 32.7277 60.5854 33.616C60.3453 33.8526 60.1053 34.0893 59.8579 34.333C57.6384 36.7254 57.2591 38.6547 57.3529 41.9083C57.5956 44.6326 58.7785 46.4974 60.8017 48.3221C62.44 49.4807 63.4572 50 65.4997 50C65.6104 46.1242 65.7212 42.2483 65.8353 38.255C67.1775 37.9195 67.1775 37.9195 67.8487 38.255C67.9876 38.9485 67.9876 38.9485 68.0584 39.7861C68.0835 40.0633 68.1086 40.3406 68.1344 40.6263C68.1591 40.9475 68.1591 40.9475 68.1843 41.2752C68.9594 41.1644 69.7346 41.0537 70.5332 40.9396C70.6994 41.7701 70.6994 41.7701 70.8688 42.6174C70.5781 42.6999 70.5781 42.6999 70.2816 42.7839C69.3222 43.1853 68.8381 43.4722 68.1843 44.2953C67.8137 46.1587 68.0351 48.1207 68.1843 50C70.7371 49.7301 72.4136 48.8709 74.1695 46.9917C76.2329 44.3696 76.483 41.8613 76.2379 38.5906C75.9216 36.7425 75.0905 35.7121 73.8051 34.375C72.5493 33.0297 72.5493 33.0297 72.5257 31.7324C72.7022 31.1406 72.7022 31.1406 72.8822 30.5369C73.3569 27.8501 73.1403 26.2421 71.6029 23.9094C70.2639 22.5321 68.7808 21.9689 66.8695 21.7898C64.8994 21.8526 63.1996 22.8097 61.8084 24.1611ZM48.9519 25.4614C44.8746 29.7658 43.3694 38.2672 43.1633 44.0226C43.2428 46.6584 44.0263 48.0148 45.8688 49.8112C46.733 50.3513 47.3793 50.5561 48.3856 50.6711C48.4963 49.7852 48.6071 48.8993 48.7212 47.9866C49.3856 47.9866 50.05 47.9866 50.7346 47.9866C50.9561 48.8725 51.1775 49.7584 51.4057 50.6711C52.7615 50.4934 53.492 50.131 54.5098 49.224C54.7399 49.0246 54.97 48.8252 55.2071 48.6197C55.818 47.9303 56.0211 47.5561 56.1037 46.6443C55.8559 46.0248 55.6078 45.4055 55.3579 44.7869C54.6525 42.5502 54.5842 40.2505 55.1455 37.9889C55.5504 36.1004 55.2035 34.7098 54.5937 32.9069C54.5005 32.6156 54.4074 32.3243 54.3114 32.0241C53.469 29.4837 52.5059 26.6097 50.399 24.8322C49.6483 24.7618 49.6483 24.7618 48.9519 25.4614ZM82.8497 25.2425C80.4549 28.2747 78.7087 32.7345 78.2514 36.5772C78.354 37.3473 78.5387 38.0448 78.756 38.7898C79.2374 41.1245 78.7848 43.5615 77.9158 45.7424C77.6116 46.5267 77.6116 46.5267 77.5802 47.3154C78.3994 48.8727 79.6375 50.0136 81.2715 50.6711C81.6037 50.6711 81.9359 50.6711 82.2782 50.6711C82.4997 49.7852 82.7212 48.8993 82.9494 47.9866C83.6138 47.9866 84.2782 47.9866 84.9628 47.9866C85.0735 48.8725 85.1843 49.7584 85.2983 50.6711C86.8238 50.5787 87.6484 49.8905 88.772 48.9474C90.3969 47.1108 90.5044 45.361 90.4499 43.012C90.0954 37.744 88.6793 28.8414 84.6075 25.2255C83.8384 24.7612 83.529 24.6021 82.8497 25.2425ZM29.4049 37.2575C27.7321 39.553 27.1768 41.8068 27.5802 44.6309C28.2909 47.0516 29.5917 49.1144 31.7749 50.4404C32.7851 50.9275 33.5413 51.1545 34.6272 51.3423C34.7436 50.0918 34.8113 48.8966 34.6272 47.651C33.6591 46.8375 33.6591 46.8375 32.6138 46.3087C32.4879 45.3859 32.4879 45.3859 32.6138 44.6309C33.2782 44.5201 33.9426 44.4094 34.6272 44.2953C34.9594 43.1325 34.9594 43.1325 35.2983 41.9463C35.852 41.9463 36.4057 41.9463 36.9762 41.9463C37.4262 42.8463 37.3838 43.5852 37.4179 44.5915C37.432 44.983 37.4461 45.3745 37.4606 45.7778C37.4737 46.1883 37.4869 46.5989 37.5005 47.0218C37.515 47.4349 37.5295 47.848 37.5444 48.2736C37.5801 49.2965 37.6144 50.3193 37.6473 51.3423C39.8056 50.6042 39.8056 50.6042 41.6742 49.3289C41.5593 48.9746 41.5593 48.9746 41.4422 48.6131C40.2223 44.4229 40.9503 40.4726 41.6742 36.2416C37.7805 33.3926 32.7209 33.503 29.4049 37.2575ZM92.0098 36.2416C92.0403 36.4326 92.0707 36.6236 92.1022 36.8204C92.241 37.6968 92.3771 38.5736 92.5131 39.4505C92.5611 39.7509 92.6091 40.0513 92.6586 40.3609C93.0413 42.8484 93.1764 45.0026 92.5131 47.4622C92.4197 47.8148 92.3262 48.1673 92.23 48.5306C92.1573 48.794 92.0846 49.0574 92.0098 49.3289C93.2903 50.493 94.3752 50.9079 96.0366 51.3423C96.045 51.0815 96.0534 50.8207 96.0621 50.552C96.1009 49.3752 96.1421 48.1985 96.1834 47.0218C96.2032 46.406 96.2032 46.406 96.2234 45.7778C96.2374 45.3864 96.2515 44.9949 96.266 44.5915C96.2783 44.2295 96.2906 43.8675 96.3033 43.4945C96.3722 42.6174 96.3722 42.6174 96.7077 41.9463C97.2614 41.9463 97.8151 41.9463 98.3856 41.9463C98.6071 42.7215 98.8285 43.4966 99.0567 44.2953C99.7212 44.406 100.386 44.5168 101.07 44.6309C101.196 45.3859 101.196 45.3859 101.07 46.3087C100.738 46.4887 100.406 46.6686 100.063 46.854C98.9686 47.5339 98.9686 47.5339 98.923 48.5555C98.9302 49.4914 98.97 50.4105 99.0567 51.3423C101.5 50.7108 103.482 49.8375 104.857 47.63C106.116 45.1754 106.662 42.7422 105.823 40.0338C104.773 37.7315 103.281 35.9771 100.98 34.8679C97.7928 33.6952 94.6675 34.0998 92.0098 36.2416ZM57.7816 49.3289C57.5186 49.6818 57.2556 50.0348 56.9846 50.3985C55.5063 52.1379 53.538 52.9805 51.4057 53.6913C51.4057 55.5738 51.4057 57.4564 51.4057 59.396C56.0567 59.396 60.7077 59.396 65.4997 59.396C65.4997 57.2919 65.4997 55.1879 65.4997 53.0201C64.8976 52.8402 64.2954 52.6602 63.675 52.4748C61.68 51.8161 60.1383 50.8927 58.4527 49.6644C58.2312 49.5537 58.0098 49.4429 57.7816 49.3289ZM75.5668 49.3289C75.3404 49.5235 75.3404 49.5235 75.1093 49.7221C73.272 51.2096 71.4335 51.9781 69.191 52.6846C68.8587 52.7953 68.5265 52.906 68.1843 53.0201C68.1843 55.1242 68.1843 57.2282 68.1843 59.396C72.8353 59.396 77.4863 59.396 82.2782 59.396C82.2782 57.5134 82.2782 55.6309 82.2782 53.6913C81.7799 53.5182 81.2816 53.3452 80.7681 53.1669C78.6141 52.3133 77.1805 50.9426 75.5668 49.3289ZM43.352 51.3423C43.1933 51.4517 43.0345 51.5612 42.871 51.6739C41.181 52.7907 39.5888 53.4505 37.6473 54.0268C37.6473 55.7987 37.6473 57.5705 37.6473 59.396C41.191 59.396 44.7346 59.396 48.3856 59.396C48.3856 57.5134 48.3856 55.6309 48.3856 53.6913C47.8665 53.4906 47.3474 53.2898 46.8126 53.083C45.5849 52.5937 44.4561 52.0783 43.352 51.3423ZM89.9963 51.3423C89.8259 51.4556 89.6555 51.5689 89.4799 51.6857C89.2489 51.8354 89.0179 51.9851 88.7799 52.1393C88.5541 52.2872 88.3283 52.4351 88.0956 52.5876C87.3118 53.0201 87.3118 53.0201 85.2983 53.6913C85.2983 55.5738 85.2983 57.4564 85.2983 59.396C88.842 59.396 92.3856 59.396 96.0366 59.396C96.0366 57.6242 96.0366 55.8523 96.0366 54.0268C95.476 53.833 94.9154 53.6393 94.3378 53.4396C92.7738 52.8738 91.4061 52.2195 89.9963 51.3423Z" fill="#2C4569"/>
<path d="M99.6636 5.18825C101.654 6.58591 102.687 8.17489 103.28 10.5351C103.701 13.1833 103.117 15.1547 101.655 17.3828C100.357 19.0214 98.7573 20.0277 96.7077 20.4698C93.8233 20.7909 91.8403 20.0532 89.409 18.5613C87.6716 16.7755 86.7224 14.7583 86.5986 12.2628C86.723 9.73173 87.5587 7.75849 89.3238 5.93804C92.337 3.38888 96.2817 3.24486 99.6636 5.18825ZM90.5416 8.93458C89.4603 10.5149 89.4604 11.8761 89.6607 13.7584C90.1048 15.1059 90.8509 15.9761 91.9258 16.9044C93.7167 17.7998 95.2118 18.0281 97.1062 17.4287C98.5139 16.8274 99.2027 16.017 100.063 14.7651C100.55 13.3052 100.57 11.9284 100.399 10.4027C99.6565 8.91785 98.7386 7.98835 97.3788 7.04699C94.5772 6.11311 92.5022 6.76762 90.5416 8.93458Z" fill="#2C4569"/>
<path d="M76.8456 81.8792C84.8188 81.8792 92.7919 81.8792 101.007 81.8792C101.007 81.9899 101.007 82.1007 101.007 82.2148C100.57 82.2177 100.57 82.2177 100.124 82.2207C97.3786 82.2402 94.6334 82.2644 91.8881 82.2939C90.4768 82.3089 89.0654 82.3221 87.654 82.331C86.2919 82.3398 84.9299 82.3533 83.5679 82.3702C83.0482 82.3758 82.5286 82.3797 82.0089 82.3818C81.281 82.385 80.5533 82.3944 79.8255 82.4053C79.4112 82.409 78.9968 82.4127 78.57 82.4166C77.4515 82.5586 76.9859 82.7958 76.1745 83.5571C76.396 83.0034 76.6175 82.4497 76.8456 81.8792Z" fill="#535353"/>
<path d="M55.3691 20.4698C55.5906 20.5805 55.8121 20.6913 56.0403 20.8054C55.0436 21.802 54.047 22.7986 53.0201 23.8255C53.0201 22.4981 53.4917 22.1112 54.3624 21.1409C54.6946 20.9195 55.0269 20.698 55.3691 20.4698Z" fill="#444444"/>
<path d="M75.5034 22.4832C75.7248 22.594 75.9463 22.7047 76.1745 22.8188C75.2886 23.7047 74.4027 24.5906 73.4899 25.5033C73.4899 24.1824 73.9693 23.7832 74.8322 22.8188C75.0537 22.708 75.2752 22.5973 75.5034 22.4832Z" fill="#2C4569"/>
<path d="M41.6107 22.4832C41.8322 22.594 42.0537 22.7047 42.2819 22.8188C41.3959 23.7047 40.51 24.5906 39.5973 25.5033C39.5973 24.4966 39.5973 24.4966 40.4152 23.6158C40.699 23.3528 40.9828 23.0898 41.2751 22.8188C41.3859 22.708 41.4966 22.5973 41.6107 22.4832Z" fill="#4B4B4B"/>
<path d="M76.5101 47.651C76.953 47.7617 77.396 47.8725 77.8523 47.9866C77.5305 48.1734 77.5305 48.1734 77.2022 48.3641C76.2958 49.1881 76.2805 49.814 76.1745 51.0067C75.8423 50.896 75.5101 50.7852 75.1678 50.6711C75.3893 50.6711 75.6107 50.6711 75.8389 50.6711C75.8251 50.3597 75.8112 50.0482 75.797 49.7273C75.8389 48.6577 75.8389 48.6577 76.5101 47.651Z" fill="#7B7B7B"/>
</svg>
