<svg width="95" height="90" viewBox="0 0 95 90" fill="none" xmlns="http://www.w3.org/2000/svg">
<path d="M31.0871 0.247604C28.8697 0.549004 26.1533 1.25945 23.6772 2.2067C20.7391 3.32618 15.5282 6.34017 15.1771 7.1152C15.0108 7.48119 14.9554 8.42844 14.9923 10.0861C15.0662 13.2078 15.1771 13.3585 17.4684 13.3585H19.0206V16.2218C19.0206 17.8149 18.8913 20.0538 18.7434 21.2379C17.5239 30.732 20.1478 38.7191 25.8946 42.9602L26.7446 43.5845L26.5044 44.5533C26.3566 45.0915 26.1533 45.9526 26.0424 46.4478L25.8392 47.3735H22.1989C15.6391 47.3735 13.089 47.8902 9.78138 49.8708C5.42046 52.4758 2.11281 57.1475 0.597573 62.788L0.0801752 64.704L0.0247398 76.9537C-0.0306957 88.2347 -0.0122172 89.225 0.283439 89.591C0.597573 89.9785 1.57693 90 35.0969 90C68.6354 90 69.5962 89.9785 69.9104 89.591C70.206 89.225 70.2245 88.2347 70.1691 77.0614C70.0952 65.1561 70.0952 64.8762 69.6702 63.197C68.8017 59.6017 67.3788 56.7815 65.0505 53.9828C62.6668 51.098 59.7657 49.1389 56.3472 48.0624C54.7211 47.5673 54.2221 47.5242 49.4732 47.4166L44.3361 47.3305L44.1514 46.4263C44.0405 45.9526 43.8372 45.0915 43.7079 44.5318L43.4677 43.5199L44.5579 42.7449C45.7959 41.8407 47.8655 39.5372 48.7155 38.1163C51.2841 33.746 52.2634 27.7395 51.4504 21.4532C51.3025 20.2691 51.1732 17.9871 51.1732 16.3509V13.4015L52.8363 13.3154C55.0906 13.2293 55.1276 13.1647 55.2015 10.0646C55.2385 8.42844 55.183 7.48119 55.0167 7.1152C54.6841 6.3617 49.4732 3.34771 46.5351 2.22823C41.472 0.269127 36.0208 -0.419785 31.0871 0.247604ZM37.3698 3.24007C41.7307 3.67064 45.8883 5.0054 50.1199 7.37354C52.4297 8.66525 52.4667 8.70831 52.4667 9.41875V10.1292H51.2656C50.1938 10.1292 49.8612 10.0216 48.3829 9.13888C43.8557 6.5124 38.3306 5.28528 33.2491 5.80196C29.0914 6.211 25.1555 7.39507 21.663 9.28958C20.3326 9.97849 19.8891 10.1292 18.9098 10.1292H17.7271V9.41875C17.7271 8.70831 17.7641 8.66525 20.0924 7.37354C24.1576 5.09151 28.5555 3.62758 32.5099 3.2616C35.023 3.00325 34.986 3.00325 37.3698 3.24007ZM40.4372 9.37569C42.5807 9.84932 44.6688 10.6459 46.7014 11.7438L48.4014 12.6911V15.1669V17.6642H35.0969H21.7924V15.2099V12.7341L22.8641 12.1744C25.3772 10.7966 29.3686 9.52639 32.5099 9.05276C34.3947 8.79443 38.5524 8.96665 40.4372 9.37569ZM44.5209 21.2594C42.2296 22.4866 38.5524 23.2616 35.0969 23.2616C31.6414 23.2616 27.9642 22.4866 25.6729 21.2594L24.6566 20.7212H35.0969H45.5372L44.5209 21.2594ZM22.4761 23.0248C25.4881 25.1776 29.9968 26.3617 35.0969 26.3617C40.2339 26.3617 44.4285 25.2422 47.7177 23.0033C48.1982 22.6803 48.6786 22.4005 48.7525 22.4005C49.0482 22.4005 49.1775 26.5124 48.9558 28.5361C48.5492 32.3251 47.4221 35.1453 45.2785 37.7503C40.2154 43.9074 31.9371 44.5318 26.2088 39.1927C23.2522 36.437 21.737 33.1862 21.2196 28.45C20.9978 26.4048 21.1456 22.4005 21.4413 22.4005C21.5337 22.4005 21.9957 22.6803 22.4761 23.0248ZM35.0969 45.7374C37.998 45.7374 38.7002 45.6728 39.7535 45.2853L40.9731 44.8547L41.3426 46.577L41.7307 48.3208L40.4557 49.9354C39.7535 50.8396 38.2752 52.6265 37.148 53.9397L35.0969 56.3079L31.7523 52.4112L28.4262 48.5145L28.8327 46.6846L29.2392 44.8762L30.4588 45.3068C31.4936 45.6728 32.1958 45.7374 35.0969 45.7374ZM47.1079 50.6028H48.1242L48.4753 51.5931C48.6601 52.1529 49.3253 53.2078 49.9351 53.9613C51.7645 56.2433 54.4439 57.4704 57.0124 57.2121C58.4537 57.0398 60.0983 56.394 61.1331 55.5328L61.9461 54.8655L63.0364 56.1356C64.9581 58.3315 66.4549 61.3886 67.194 64.6394C67.4527 65.8019 67.5082 67.5673 67.5636 76.5016L67.6375 86.986H54.37H41.0839L40.197 75.9849L39.31 64.9623L40.2709 63.8428L41.2318 62.7018L44.6503 64.0797C46.5166 64.8332 48.309 65.4575 48.6232 65.4575C49.3808 65.4575 49.8797 64.9193 49.8797 64.0581C49.8797 63.6921 48.8634 60.4844 47.5884 56.8676C45.5742 51.141 45.334 50.366 45.6851 50.4736C45.9068 50.5382 46.5536 50.6028 47.1079 50.6028ZM18.8543 50.9903C18.5402 51.6792 17.1728 52.9925 16.2673 53.4876C15.0108 54.155 12.5901 54.1335 11.4629 53.423L10.6314 52.9279L11.2781 52.5188C12.8858 51.507 15.8054 50.6674 17.875 50.6243C18.9467 50.6028 19.0206 50.6243 18.8543 50.9903ZM24.749 50.7535C24.749 50.8181 23.7511 53.7244 22.5315 57.169C21.312 60.6351 20.3141 63.7567 20.3141 64.1012C20.3141 64.4672 20.4804 64.9193 20.6837 65.1346C21.238 65.7158 22.3468 65.479 25.8577 63.9935L28.9066 62.7234L29.886 63.8213L30.8653 64.9408L29.9784 75.9634L29.1099 86.986H15.8238H2.55629L2.61173 76.4801C2.68564 66.5985 2.70412 65.9096 3.07369 64.3595C3.55413 62.3789 4.36718 60.2476 5.18024 58.8482C6.01177 57.4058 7.34222 55.5974 7.84114 55.2099C8.22919 54.9085 8.32158 54.93 9.0792 55.5544C12.4423 58.2885 17.3391 57.5996 20.2587 53.9613C20.8685 53.2078 21.5337 52.1529 21.7185 51.5931L22.0696 50.6028H23.4185C24.1392 50.6028 24.749 50.6674 24.749 50.7535ZM55.8113 51.2271C56.5689 51.4424 57.733 51.916 58.3983 52.2605L59.5809 52.9064L58.7494 53.423C57.6037 54.1335 55.2015 54.155 53.9265 53.4876C53.0026 52.9925 51.6536 51.6792 51.321 50.9688C51.1362 50.5382 51.1732 50.5382 52.7623 50.6674C53.6678 50.7535 55.0352 50.9903 55.8113 51.2271ZM29.9784 54.8655L32.5284 57.8579L30.9023 58.5253C24.0652 61.3455 24.0283 61.3671 24.1761 60.8719C24.2685 60.6136 24.9892 58.6114 25.7653 56.4155C26.5414 54.2196 27.2251 52.3036 27.2805 52.1529C27.3359 52.0237 27.3914 51.8945 27.4099 51.8945C27.4283 51.8945 28.574 53.2293 29.9784 54.8655ZM44.3361 56.0926C45.0753 58.2239 45.7959 60.2691 45.9438 60.6566L46.184 61.3455L42.9872 60.0538C41.2502 59.3434 39.3285 58.5468 38.7372 58.31L37.6469 57.8579L40.197 54.887C41.6013 53.2508 42.8024 51.9806 42.8763 52.0667C42.9503 52.1529 43.597 53.9613 44.3361 56.0926ZM36.7415 60.8934L38.2567 61.4962L37.5361 62.3359C37.1295 62.8095 36.4274 63.6276 35.9654 64.1442L35.1154 65.0915L33.5447 63.3907C32.6762 62.465 31.9556 61.6469 31.9556 61.5824C31.9556 61.4532 34.6165 60.3552 35.0045 60.3122C35.1154 60.2906 35.8915 60.549 36.7415 60.8934ZM34.0991 68.5791C34.9491 69.2465 35.2447 69.2465 36.0947 68.5791C36.5567 68.2131 36.7969 68.127 36.8524 68.3208C36.8893 68.45 37.2219 72.4543 37.573 77.1905C37.9426 81.9268 38.2752 86.0603 38.3306 86.3832L38.423 86.986H35.0969H31.7708L31.8447 86.4909C31.9001 86.2325 32.2512 81.9699 32.6393 77.0183C33.0273 72.0883 33.3599 68.0409 33.3784 68.0409C33.3969 68.0409 33.7295 68.2777 34.0991 68.5791Z" fill="#2C4569"/>
<path d="M50.3254 68.7944L49.8634 69.3326L49.9189 75.4898L49.9743 81.6469L50.4178 82.056C50.8243 82.4435 51.2124 82.465 56.0722 82.465C58.9548 82.465 61.5234 82.3789 61.7821 82.2497C62.5582 81.9053 62.669 80.9796 62.5951 74.7578C62.5397 69.0958 62.5397 69.0743 62.0962 68.6652C61.6897 68.2777 61.3016 68.2562 56.22 68.2562H50.7874L50.3254 68.7944ZM59.8603 75.3606V79.2357H56.257H52.6537V75.3606V71.4855H56.257H59.8603V75.3606Z" fill="#2C4569"/>
<path d="M8.06415 74.2411C7.63915 74.7793 7.65762 76.0711 8.08263 76.5016C8.39676 76.8246 9.1359 76.8676 14.8827 76.8676C18.4306 76.8676 21.4241 76.7815 21.535 76.6954C22.2371 76.1572 22.2741 74.4779 21.6089 74.0689C21.4056 73.9397 18.7262 73.8536 14.8088 73.8536C8.80329 73.8536 8.34133 73.8752 8.06415 74.2411Z" fill="#2C4569"/>
<path d="M73.8833 3.4769C69.4115 6.83535 65.4386 8.36388 60.7635 8.51458C58.232 8.60069 57.8624 8.6868 57.6222 9.41877C57.4004 10.1292 57.4004 16.9538 57.6591 19.5587C58.3059 26.5124 60.1907 33.0356 62.944 37.8795C64.256 40.1615 66.4919 42.9171 68.4321 44.6179C69.9843 45.9742 73.7909 48.2562 75.2507 48.7083C76.0637 48.9451 76.267 48.9236 77.3757 48.4715C80.4801 47.2229 83.3812 45.1346 85.8388 42.3574C89.7378 37.9871 92.4726 31.7223 93.7476 24.338C94.3944 20.506 94.5976 18.0302 94.5976 13.5092C94.5976 8.34235 94.7639 8.62222 91.5487 8.5361C86.6334 8.3854 82.7344 6.89994 78.1703 3.4769C77.2094 2.74493 76.2485 2.16366 76.0268 2.16366C75.805 2.16366 74.8441 2.74493 73.8833 3.4769ZM80.4246 8.62222C83.8432 10.4952 86.5965 11.3563 89.9411 11.5716L92.0107 11.7008V13.5092C92.0107 16.3079 91.6596 20.2907 91.1606 23.2186C89.6454 32.0668 86.2638 38.6545 81.1638 42.6588C79.4083 44.0582 76.7659 45.5221 76.0268 45.5221C75.7311 45.5221 74.7702 45.1346 73.9017 44.661C69.2082 42.0775 65.5864 37.7718 63.2951 32.0668C61.2809 27.0506 60.0429 19.9462 60.0429 13.5092V11.7008L62.0385 11.5716C65.531 11.3779 68.3951 10.4521 71.9615 8.40693C73.1811 7.71802 74.5854 6.81382 75.1028 6.40478L76.0083 5.67281L77.2833 6.64159C77.9855 7.15828 79.3898 8.06248 80.4246 8.62222Z" fill="#2C4569"/>
<path d="M73.9919 10.409C72.9571 10.8181 72.4952 11.1195 71.6452 12.0237C70.3332 13.4015 69.8343 15.2529 69.8343 18.7836V20.6781H68.6332C67.5799 20.6781 67.3582 20.7427 66.9701 21.2163L66.5081 21.733V28.4284C66.5081 35.0376 66.5636 35.7911 67.1364 36.2217C67.3951 36.437 84.654 36.437 84.9127 36.2217C85.4856 35.7911 85.541 35.0376 85.541 28.4284V21.733L85.079 21.2163C84.691 20.7642 84.4692 20.6781 83.4529 20.6781H82.2518L82.1779 17.8148C82.104 15.4252 82.0301 14.8224 81.679 13.9612C80.6811 11.5716 78.8703 10.3014 76.3017 10.1937C75.3593 10.1507 74.4354 10.2368 73.9919 10.409ZM77.0778 13.3584C77.4659 13.4876 78.0202 13.8321 78.3344 14.155C79.2768 15.0807 79.4431 15.662 79.4431 18.31V20.6781H76.0246H72.606V18.3961C72.606 15.296 73.105 14.1335 74.768 13.4661C75.618 13.1001 76.1724 13.0786 77.0778 13.3584ZM82.7692 28.6437V33.38H76.0246H69.2799V28.6437V23.9074H76.0246H82.7692V28.6437Z" fill="#2C4569"/>
</svg>
